<svg xmlns="http://www.w3.org/2000/svg" xmlns:xlink="http://www.w3.org/1999/xlink" width="944" height="722" viewBox="0 0 944 722">
  <defs>
    <clipPath id="clip-path">
      <path id="Path_5433" data-name="Path 5433" d="M230.791,562.567c-24.945.229-51.927-14.516-57.027-38.935-3.67-17.565,4.385-35.144,10.226-52.13s8.985-37.573-2.482-51.387c-12.182-14.665-34.416-14.382-53.357-12.3s-40.689,3.8-54.436-9.4c-17.309-16.634-10.469-46.166,2.9-66.093s32.325-37.249,37.883-60.6c6.111-25.673-5.6-52.048-18.861-74.875s-28.8-45.708-31.259-71.988S78.828,68.174,105.2,67.176c20.776-.782,37.586,15.933,56.892,23.623,35.994,14.341,77.4-4.52,105.338-31.38,12.358-11.872,23.515-25.579,38.733-33.471s36.412-7.892,47.084,5.518c6.395,8.027,7.649,18.928,12.25,28.1,11.265,22.49,39.893,30.18,65.04,29.437s50.376-7.393,75.2-3.278,50,24.54,47.03,49.526c-1.673,14.085-11.7,25.714-15.892,39.259-7.042,22.732,3.359,47.489,18.091,66.187s33.755,33.714,48.177,52.656,23.987,44.224,15.8,66.565c-8.877,24.216-34.793,36.844-58.092,47.92s-48.7,26.024-54.234,51.212c-6.867,31.272,20.749,63.408,11.292,94.006-8.149,26.375-41,37.654-68.2,32.972s-50.848-20.668-75.671-32.743c-22.044-10.739-49.215-19.171-73.742-12.25C276.31,547.835,256.937,562.324,230.791,562.567Z" transform="translate(-63.379 -20.587)"/>
    </clipPath>
    <clipPath id="clip-path-3">
      <path id="Path_5447" data-name="Path 5447" d="M230.791,562.567c-24.945.229-51.927-14.516-57.027-38.935-3.67-17.565,4.385-35.144,10.226-52.13s8.985-37.573-2.482-51.387c-12.182-14.665-34.416-14.382-53.357-12.3s-40.689,3.8-54.436-9.4c-17.309-16.634-10.469-46.166,2.9-66.093s32.325-37.249,37.883-60.6c6.111-25.673-5.6-52.048-18.861-74.875s-28.8-45.708-31.259-71.988S78.828,68.174,105.2,67.176c20.776-.782,37.586,15.933,56.892,23.623,35.994,14.341,77.4-4.52,105.338-31.38,12.358-11.872,23.515-25.579,38.733-33.471s36.412-7.892,47.084,5.518c6.395,8.027,7.649,18.928,12.25,28.1,11.265,22.49,39.893,30.18,65.04,29.437s50.376-7.393,75.2-3.278,50,24.54,47.03,49.526c-1.673,14.085-11.7,25.714-15.892,39.259-7.042,22.732,3.359,47.489,18.091,66.187s33.755,33.714,48.177,52.656,23.987,44.224,15.8,66.565c-8.877,24.216-34.793,36.844-58.092,47.92s-48.7,26.024-54.234,51.212c-6.867,31.272,20.749,63.408,11.292,94.006-8.149,26.375-41,37.654-68.2,32.972s-50.848-20.668-75.671-32.743c-22.044-10.739-49.215-19.171-73.742-12.25C276.31,547.835,256.937,562.324,230.791,562.567Z" transform="translate(-63.379 -20.587)" fill="#f9f5f1"/>
    </clipPath>
    <clipPath id="clip-sign_up">
      <rect width="944" height="722"/>
    </clipPath>
  </defs>
  <g id="sign_up" data-name="sign up" clip-path="url(#clip-sign_up)">
    <g id="Group_3112" data-name="Group 3112" transform="translate(59 -210)">
      <g id="_3323907" data-name="3323907" transform="translate(130.656 238.783)">
        <g id="BACKGROUND" transform="translate(59.373 20.587)">
          <g id="Group_3056" data-name="Group 3056" transform="translate(5.404)">
            <path id="Path_5431" data-name="Path 5431" d="M230.791,562.567c-24.945.229-51.927-14.516-57.027-38.935-3.67-17.565,4.385-35.144,10.226-52.13s8.985-37.573-2.482-51.387c-12.182-14.665-34.416-14.382-53.357-12.3s-40.689,3.8-54.436-9.4c-17.309-16.634-10.469-46.166,2.9-66.093s32.325-37.249,37.883-60.6c6.111-25.673-5.6-52.048-18.861-74.875s-28.8-45.708-31.259-71.988S78.828,68.174,105.2,67.176c20.776-.782,37.586,15.933,56.892,23.623,35.994,14.341,77.4-4.52,105.338-31.38,12.358-11.872,23.515-25.579,38.733-33.471s36.412-7.892,47.084,5.518c6.395,8.027,7.649,18.928,12.25,28.1,11.265,22.49,39.893,30.18,65.04,29.437s50.376-7.393,75.2-3.278,50,24.54,47.03,49.526c-1.673,14.085-11.7,25.714-15.892,39.259-7.042,22.732,3.359,47.489,18.091,66.187s33.755,33.714,48.177,52.656,23.987,44.224,15.8,66.565c-8.877,24.216-34.793,36.844-58.092,47.92s-48.7,26.024-54.234,51.212c-6.867,31.272,20.749,63.408,11.292,94.006-8.149,26.375-41,37.654-68.2,32.972s-50.848-20.668-75.671-32.743c-22.044-10.739-49.215-19.171-73.742-12.25C276.31,547.835,256.937,562.324,230.791,562.567Z" transform="translate(-63.379 -20.587)" fill="#f9f5f1" opacity="0.7"/>
            <g id="Group_3055" data-name="Group 3055">
              <g id="Group_3049" data-name="Group 3049" clip-path="url(#clip-path)">
                <path id="Path_5432" data-name="Path 5432" d="M375.76,76.9l.31,97.3,79.6-.256-.31-97.3Z" transform="translate(45.676 -1.019)" fill="#f9f5f1" opacity="0.35" style="mix-blend-mode: multiply;isolation: isolate"/>
              </g>
              <g id="Group_3051" data-name="Group 3051" clip-path="url(#clip-path)">
                <path id="Path_5434" data-name="Path 5434" d="M94.17,433.995c.014,6.111,21.289,11,47.516,10.914s47.462-5.1,47.448-11.225-21.289-11-47.516-10.914S94.156,427.883,94.17,433.995Z" transform="translate(-52.629 119.817)" fill="#cac4f4"/>
                <rect id="Rectangle_712" data-name="Rectangle 712" width="11.117" height="324.568" transform="translate(93.734 553.146) rotate(179.818)" fill="#cac4f4"/>
                <rect id="Rectangle_713" data-name="Rectangle 713" width="11.117" height="324.568" transform="translate(93.734 553.146) rotate(179.818)" fill="#cac4f4" opacity="0.22"/>
                <g id="Group_3050" data-name="Group 3050" transform="translate(110.925 238.148)">
                  <path id="Path_5436" data-name="Path 5436" d="M146.22,199.471a2.361,2.361,0,1,0,2.347-2.361A2.346,2.346,0,0,0,146.22,199.471Z" transform="translate(-145.383 -197.11)" fill="#cac4f4"/>
                  <path id="Path_5437" data-name="Path 5437" d="M146.24,204.774A2.361,2.361,0,1,0,148.6,202.4,2.384,2.384,0,0,0,146.24,204.774Z" transform="translate(-145.376 -195.263)" fill="#cac4f4"/>
                  <path id="Path_5438" data-name="Path 5438" d="M146.35,209.871a2.361,2.361,0,1,0,2.4-2.32A2.364,2.364,0,0,0,146.35,209.871Z" transform="translate(-145.338 -193.465)" fill="#cac4f4"/>
                  <path id="Path_5439" data-name="Path 5439" d="M146.27,215.484a2.354,2.354,0,1,0,2.334-2.374A2.37,2.37,0,0,0,146.27,215.484Z" transform="translate(-145.366 -191.524)" fill="#cac4f4"/>
                  <path id="Path_5440" data-name="Path 5440" d="M146.2,220.31a2.361,2.361,0,1,0,2.4-2.32A2.364,2.364,0,0,0,146.2,220.31Z" transform="translate(-145.39 -189.821)" fill="#cac4f4"/>
                  <path id="Path_5441" data-name="Path 5441" d="M145.6,228.049c-.027,2.82,1.457,5.14,3.319,5.194s3.386-2.2,3.413-5.019-1.457-5.14-3.319-5.194S145.627,225.229,145.6,228.049Z" transform="translate(-145.6 -188.061)" fill="#cac4f4"/>
                </g>
              </g>
              <g id="Group_3053" data-name="Group 3053" clip-path="url(#clip-path-3)" style="mix-blend-mode: multiply;isolation: isolate">
                <g id="Group_3052" data-name="Group 3052" transform="translate(355.653 261.781)">
                  <path id="Path_5443" data-name="Path 5443" d="M338.47,310.525c3.508-1.821,7.515,1.551,10.537,5.113a91.441,91.441,0,0,1,15.029,25.647c-4.439-14.719-8.257-29.748-11.4-44.979-1.106-5.369-1.794-12.209,1.43-15.1,3.319-2.982,7.906.863,11,4.884a108.335,108.335,0,0,1,16,30.355,352.691,352.691,0,0,1-10.631-65.89c-.256-3.926-.256-8.5,1.929-10.779,3.481-3.629,8.553,1.808,11.2,7.11,12.857,25.741,14.557,57.985,15.811,88.339-.526-35.09-1.039-70.477,3.589-104.475.917-6.732,2.793-14.476,7.609-15.906,5.747-1.7,10.766,6.84,13.437,14.489,13.6,38.989,11.467,83.186,9.012,124.927A321.159,321.159,0,0,1,446.87,319.5c1.659-3.548,4.209-7.461,7.285-6.206,3.548,1.457,4.128,8.135,3.7,13.086-2.132,24.163-9.97,46.76-22.058,63.583l-63.516,23.65c-9.929-.782-17.08-14.489-21.734-27.077a335.091,335.091,0,0,1-15.38-56.7C333.9,322.613,333.626,313.021,338.47,310.525Z" transform="translate(-324.425 -214.628)" fill="#f9f5f1"/>
                  <path id="Path_5444" data-name="Path 5444" d="M346.746,471.924,333.12,355.456l125.224-4.466L444.516,471.735Z" transform="translate(-324.863 -167.023)" fill="#f9f5f1"/>
                  <path id="Path_5445" data-name="Path 5445" d="M328.727,369.365,327,339.82l143.046,1.862.594,25.431Z" transform="translate(-327 -170.923)" fill="#f9f5f1"/>
                  <path id="Path_5446" data-name="Path 5446" d="M328.727,369.365,327,339.82l143.046,1.862.594,25.431Z" transform="translate(-327 -170.923)" fill="#f9f5f1" opacity="0.22"/>
                </g>
              </g>
              <g id="Group_3054" data-name="Group 3054" clip-path="url(#clip-path)">
                <path id="Path_5448" data-name="Path 5448" d="M367.36,66.714l.391,124.887,102.181-.324L469.541,66.39Zm21.127,20.655,60.049-.189.27,83.469-60.049.189Z" transform="translate(42.743 -4.598)" fill="#f9f5f1" style="mix-blend-mode: multiply;isolation: isolate"/>
              </g>
            </g>
          </g>
          <g id="Group_3089" data-name="Group 3089" transform="translate(0 52.876)">
            <g id="Group_3057" data-name="Group 3057" transform="translate(62.653 164.237)">
              <path id="Path_5450" data-name="Path 5450" d="M112.7,184.318c-2-7.056-12.25,3.184-2.307,4.061C111.178,187.92,113.215,187.367,112.7,184.318Z" transform="translate(-105.705 -181.402)" fill="#bcb3e2"/>
              <path id="Path_5451" data-name="Path 5451" d="M109.64,189.264c-5.046.648-5.909-10.563,2.374-7.069C114.416,184.138,114.484,188.684,109.64,189.264Zm-.013-6.6c-6.422.31,1.133,10.739,2.55,1.9C112.042,184.178,111.165,182.559,109.627,182.667Z" transform="translate(-105.813 -181.519)" fill="#bcb3e2"/>
            </g>
            <g id="Group_3058" data-name="Group 3058" transform="translate(31.408 160.343)">
              <path id="Path_5452" data-name="Path 5452" d="M88.489,181.719c-1.079-7.218-11.063,2.793-1.471,2.293A3.226,3.226,0,0,0,88.489,181.719Z" transform="translate(-82.571 -178.471)" fill="#bcb3e2"/>
              <path id="Path_5453" data-name="Path 5453" d="M85.765,185.186c-4.29.742-4.708-9.646,2.347-5.626.364.648,1.983,2,.513,3.953A3.431,3.431,0,0,1,85.765,185.186Zm.081-5.315c-4.87.162.486,8,2.01,1.578C87.4,180.95,87.384,180.086,85.846,179.87Z" transform="translate(-82.653 -178.632)" fill="#bcb3e2"/>
            </g>
            <g id="Group_3059" data-name="Group 3059" transform="translate(86.694 196.205)">
              <path id="Path_5454" data-name="Path 5454" d="M127.346,206.879c-3.157-4.735-4.924,6.449-.067,1.956C127.306,208.134,127.684,208.215,127.346,206.879Z" transform="translate(-123.411 -205.05)" fill="#bcb3e2"/>
              <path id="Path_5455" data-name="Path 5455" d="M125.99,210.767c-6.3-1.066,2.01-10.779,2.172-1.727A2.332,2.332,0,0,1,125.99,210.767Zm.432-.7Zm-.351-3.413c-2.5-.337.148,5.909,1,.958C126.948,207.3,126.867,206.746,126.071,206.652Z" transform="translate(-123.633 -205.214)" fill="#bcb3e2"/>
            </g>
            <g id="Group_3069" data-name="Group 3069" transform="translate(31.103 302.494)">
              <path id="Path_5474" data-name="Path 5474" d="M88.4,286.323c-.364-3.953-9.322-1.052-3.764,3.292C85.759,290.087,89.051,289.669,88.4,286.323Z" transform="translate(-82.289 -283.84)" fill="#bcb3e2"/>
              <path id="Path_5475" data-name="Path 5475" d="M85.79,290.665c-.418-.364-1.5.634-3.1-2.159h0C80.2,279.723,96.637,285.619,85.79,290.665Zm-1.875-2.59c3.508,5.639,6.624-7.218-.121-1.417A1.415,1.415,0,0,0,83.915,288.074Z" transform="translate(-82.428 -283.999)" fill="#bcb3e2"/>
            </g>
            <g id="Group_3070" data-name="Group 3070" transform="translate(0.607 307.462)">
              <path id="Path_5476" data-name="Path 5476" d="M63.961,289.734c-2.347-5.167-6.476,5.019-.54,2.388A3.4,3.4,0,0,0,63.961,289.734Z" transform="translate(-59.634 -287.483)" fill="#bcb3e2"/>
              <path id="Path_5477" data-name="Path 5477" d="M62.288,293.6c-6.611-.958,2.159-11.629,2.266-1.767A2.407,2.407,0,0,1,62.288,293.6Zm-.013-4.412c-1.241-.229-1.727,2.6.013,3.1C63.205,292.334,64.649,289.42,62.274,289.19Z" transform="translate(-59.823 -287.682)" fill="#bcb3e2"/>
            </g>
            <g id="Group_3071" data-name="Group 3071" transform="translate(0 326.745)">
              <path id="Path_5478" data-name="Path 5478" d="M61.447,302.39a1.748,1.748,0,0,0,0,3.494A1.748,1.748,0,0,0,61.447,302.39Z" transform="translate(-59.239 -301.829)" fill="#bcb3e2"/>
              <path id="Path_5479" data-name="Path 5479" d="M61.581,306.69c-2.847.108-3.359-5.639.971-4.587C64.657,302.818,64.509,306.016,61.581,306.69Zm0-3.494c-2.307.094-.027,4.142,1.039,1.093C62.62,304.167,62.607,303.641,61.581,303.2Z" transform="translate(-59.373 -301.974)" fill="#bcb3e2"/>
            </g>
            <g id="Group_3079" data-name="Group 3079" transform="translate(50.632 464.489)">
              <path id="Path_5494" data-name="Path 5494" d="M98.977,404.5a1.748,1.748,0,0,0,0,3.494A1.748,1.748,0,0,0,98.977,404.5Z" transform="translate(-96.769 -403.926)" fill="#bcb3e2"/>
              <path id="Path_5495" data-name="Path 5495" d="M99.111,408.79c-2.847.108-3.359-5.639.971-4.587C102.174,404.932,102.026,408.129,99.111,408.79Zm0-3.494c-2.4.256.081,3.926,1.039,1.093C100.137,406.281,100.123,405.755,99.111,405.3Z" transform="translate(-96.903 -404.074)" fill="#bcb3e2"/>
            </g>
            <g id="Group_3080" data-name="Group 3080" transform="translate(85 441.899)">
              <path id="Path_5496" data-name="Path 5496" d="M126.085,389.7c.148-3.656-5.6-1.133-2.172,1.929A1.623,1.623,0,0,0,126.085,389.7Z" transform="translate(-122.223 -387.135)" fill="#bcb3e2"/>
              <path id="Path_5497" data-name="Path 5497" d="M124.634,392.618c-.661.324-3.6-2.024-1.525-2.968-1.875.216,1.4-4.29,3.4-1.282-.175.27,1.3,1.282-.283,1.417C127.3,389.569,127.183,392.5,124.634,392.618Zm.04-3.993c-1.5.148-1.2,5.262,1.551,1.039C125.686,389.826,125.821,389.178,124.674,388.625Z" transform="translate(-122.378 -387.33)" fill="#bcb3e2"/>
            </g>
            <g id="Group_3111" data-name="Group 3111">
              <g id="Group_3060" data-name="Group 3060" transform="translate(426.485 50.05)">
                <path id="Path_5456" data-name="Path 5456" d="M382.074,98.79c-.661-2.536-7.272-.675-5.9,3.265.54,1.538,3.575,2.6,5.113-.432C381.642,100.571,382.25,100.6,382.074,98.79Z" transform="translate(-375.324 -96.617)" fill="#ffc401"/>
                <path id="Path_5457" data-name="Path 5457" d="M378.739,104.543c-9.228-.54,4.209-14.314,3.885-3.589-.675.594-.175,2.347-1.727,1.659C381.95,102.843,380.4,104.6,378.739,104.543ZM377.4,99.12l.4.513c-2.793,1.43,1.025,7.083,3.764.526C381.99,96.961,379.346,99.5,377.4,99.12Z" transform="translate(-375.497 -96.879)" fill="#ffc401"/>
              </g>
              <g id="Group_3061" data-name="Group 3061" transform="translate(455.925 42.397)">
                <path id="Path_5458" data-name="Path 5458" d="M401.308,93.6c-.985-6.031-7.434,3.67-.472,1.781C400.9,95.068,401.443,95.163,401.308,93.6Z" transform="translate(-397.205 -91.071)" fill="#ffc401"/>
                <path id="Path_5459" data-name="Path 5459" d="M399.722,96.7c-2.793.661-3.966-6.773,1.052-5.3-.094,0,2.361,1.767.648,2.334C402.15,92.83,403.054,96.135,399.722,96.7Zm-.068-4.3c-1.862-.135-1.2,5.1,1.133,2.132C400.72,94.1,401,92.6,399.654,92.4Z" transform="translate(-397.318 -91.207)" fill="#ffc401"/>
              </g>
              <g id="Group_3062" data-name="Group 3062" transform="translate(422.694 27.745)">
                <path id="Path_5460" data-name="Path 5460" d="M377.244,82.182c-2.024-4.3-7.663,3.116-.688,1.713A1.611,1.611,0,0,0,377.244,82.182Z" transform="translate(-372.518 -80.18)" fill="#ffc401"/>
                <path id="Path_5461" data-name="Path 5461" d="M375.106,85.087c-7.15-1.2,3.966-9.39,2.536-1.012A3.373,3.373,0,0,1,375.106,85.087ZM375,81.714c-4.2,1.363,5.248,4.088.054-.648l-.027.648Z" transform="translate(-372.687 -80.346)" fill="#ffc401"/>
              </g>
              <g id="Group_3063" data-name="Group 3063" transform="translate(442.945 4.541)">
                <path id="Path_5462" data-name="Path 5462" d="M389.449,63.73a1.478,1.478,0,0,0,0,2.955A1.478,1.478,0,0,0,389.449,63.73Z" transform="translate(-387.585 -62.943)" fill="#ffc401"/>
                <path id="Path_5463" data-name="Path 5463" d="M389.562,67.549c-4.2.418-.337-8.432,2.091-2.132C391.6,66.079,391.249,67.1,389.562,67.549Zm0-2.955c-1.781.04.054,3.062.782.823C390.2,65.31,390.561,64.838,389.562,64.595Z" transform="translate(-387.698 -63.146)" fill="#ffc401"/>
              </g>
              <g id="Group_3064" data-name="Group 3064" transform="translate(403.91 465.083)">
                <path id="Path_5464" data-name="Path 5464" d="M363.369,406.947c-.175-1.632-5.113-3.7-3.9.58C360.023,408.917,363.584,410.441,363.369,406.947Z" transform="translate(-358.585 -404.35)" fill="#ffc401"/>
                <path id="Path_5465" data-name="Path 5465" d="M361.929,409.972c-2.226.459-5.761-5.855-.162-5.437C363.669,405.1,366.192,409.014,361.929,409.972Zm-.067-1.309c2.482-.513-.216-1.794.121-3.332-.04.472-.9.364-1.538.594.013,0,0,0-.041.027h0C359.636,406.667,360.351,408.3,361.862,408.664Z" transform="translate(-358.764 -404.515)" fill="#ffc401"/>
              </g>
              <g id="Group_3065" data-name="Group 3065" transform="translate(403.991 433.546)">
                <path id="Path_5466" data-name="Path 5466" d="M360.862,381.56a1.728,1.728,0,0,0,0,3.454A1.728,1.728,0,0,0,360.862,381.56Z" transform="translate(-358.695 -380.992)" fill="#ffc401"/>
                <path id="Path_5467" data-name="Path 5467" d="M360.991,385.808c-2.725.135-3.373-5.518.971-4.56C363.756,382,364.04,385.133,360.991,385.808Zm0-3.454c-2.55.472.445,3.67,1.012,1.066C362,383.312,361.989,382.8,360.991,382.354Z" transform="translate(-358.824 -381.139)" fill="#ffc401"/>
              </g>
              <g id="Group_3066" data-name="Group 3066" transform="translate(411.662 495.237)">
                <path id="Path_5468" data-name="Path 5468" d="M371.286,429.744c-1.39-7.164-12.547,4.857-1.713,3.4C370.18,432.24,371.407,431.849,371.286,429.744Z" transform="translate(-364.378 -426.663)" fill="#ffc401"/>
                <path id="Path_5469" data-name="Path 5469" d="M367.977,434.615c-9.875-1.268,4.573-14.989,3.656-2.617C370.662,433.077,370.541,434.386,367.977,434.615Zm-1.889-4.492c-2.159,3.845,6.638,4.182,4.155-1.2-1-.958-2.995-.54-4.155,1.2Zm5.019,1.484Zm.958-1.659Z" transform="translate(-364.509 -426.866)" fill="#ffc401"/>
              </g>
              <g id="Group_3067" data-name="Group 3067" transform="translate(383.48 472.407)">
                <path id="Path_5470" data-name="Path 5470" d="M350.363,414.18c1.025-6.1-10.941-3.6-4.29,3.035C347.206,417.7,350.417,417.485,350.363,414.18Z" transform="translate(-343.47 -409.679)" fill="#ffc401"/>
                <path id="Path_5471" data-name="Path 5471" d="M347.343,418.411c-.148.8-5.626-2.86-3.022-3.953-2.779-2.037,5.6-9.012,6.853-.068l-.648.068C352.173,413.729,350.554,418.573,347.343,418.411Zm.162-7.029c-4.87.094-1.848,10.617,3.009,3.063l-.648.067C349.691,413.473,349.907,411.746,347.505,411.382Z" transform="translate(-343.62 -409.944)" fill="#ffc401"/>
              </g>
              <g id="Group_3068" data-name="Group 3068" transform="translate(440.499 461.117)">
                <path id="Path_5472" data-name="Path 5472" d="M388.17,402.01c-2.523,0-2.523,3.926,0,3.926S390.706,402.01,388.17,402.01Z" transform="translate(-385.747 -401.423)" fill="#ffc401"/>
                <path id="Path_5473" data-name="Path 5473" d="M388.307,406.735c-3.2.108-3.616-6.219,1.106-5.005C391.45,402.782,391.558,406.155,388.307,406.735Zm0-3.926c-2.536-.081-.148,4.857,1.241,1.309C389.521,403.74,389.494,403.389,388.307,402.809Z" transform="translate(-385.884 -401.575)" fill="#ffc401"/>
              </g>
              <g id="Group_3072" data-name="Group 3072" transform="translate(106.232 27.066)">
                <path id="Path_5480" data-name="Path 5480" d="M144.965,81.923c-2.644-5.4-12.007,3.9-1.983,4.87C144.115,85.9,146.233,86.024,144.965,81.923Z" transform="translate(-137.998 -79.701)" fill="#ffc401"/>
                <path id="Path_5481" data-name="Path 5481" d="M142.209,87.7c-4.182.418-7.015-8.7,1.039-7.8C146.891,80.567,147.754,87.124,142.209,87.7Zm-2.5-2.887c4.155,6.381,8.648-7.555-.094-2.482A2.667,2.667,0,0,0,139.713,84.817Z" transform="translate(-138.116 -79.843)" fill="#ffc401"/>
              </g>
              <g id="Group_3073" data-name="Group 3073" transform="translate(73.259 33.915)">
                <path id="Path_5482" data-name="Path 5482" d="M118.507,87.414c-.337-2.091-5.68-3.251-4.047.782C114.878,89.869,118.845,91,118.507,87.414Z" transform="translate(-113.509 -84.715)" fill="#ffc401"/>
                <path id="Path_5483" data-name="Path 5483" d="M116.879,90.708c-.2.364-4.506-1.916-2.523-2.955l-.634.162c0-.337-.283-.216.58-.526-1.632.594.094-3.9,3.157-2C119.227,86.013,120.927,89.966,116.879,90.708ZM116.8,89.4c2.928-.067-.162-5.666-2.442-1.646-.148-.067,1.444-.216.2.567-.2.04,1.3-.58.189.351C115.152,88.037,115.692,89.116,116.8,89.4Z" transform="translate(-113.675 -84.92)" fill="#ffc401"/>
              </g>
              <g id="Group_3074" data-name="Group 3074" transform="translate(101.392)">
                <path id="Path_5484" data-name="Path 5484" d="M139.17,62.339a2.071,2.071,0,0,0-3.6-1.268,1.587,1.587,0,0,0-.634,1.133C134.353,63.931,138.779,66.062,139.17,62.339Z" transform="translate(-134.405 -59.561)" fill="#ffc401"/>
                <path id="Path_5485" data-name="Path 5485" d="M137.161,65.271c-6.017,0-.256-10.213,2.779-2.779A2.7,2.7,0,0,1,137.161,65.271ZM135.7,62.464c-.337,1,1.781,2.388,2.766.769.3-.567.148-2.55-1.7-1.821C136.608,61.682,135.826,61.614,135.7,62.464Zm3.521.648Zm-.594-.58v.027C138.632,62.545,138.645,62.559,138.632,62.532Z" transform="translate(-134.528 -59.781)" fill="#ffc401"/>
              </g>
              <g id="Group_3075" data-name="Group 3075" transform="translate(93.129 15.305)">
                <path id="Path_5486" data-name="Path 5486" d="M130.194,71.71a1.458,1.458,0,0,0,0,2.914A1.458,1.458,0,0,0,130.194,71.71Z" transform="translate(-128.269 -70.921)" fill="#ffc401"/>
                <path id="Path_5487" data-name="Path 5487" d="M130.328,75.476c-4.425-.2-.135-8.095,2.064-2.118C132.365,74.032,132.015,75.044,130.328,75.476Zm0-2.914c-1.605.121-.148,2.847.755.809C131.084,73.236,131.084,73.061,130.328,72.562Z" transform="translate(-128.403 -71.125)" fill="#ffc401"/>
              </g>
              <g id="Group_3076" data-name="Group 3076" transform="translate(475.449 220.864)">
                <path id="Path_5488" data-name="Path 5488" d="M415.242,225.942c-.148-4.816-6.287,1.147-1.093,1.929A1.642,1.642,0,0,0,415.242,225.942Z" transform="translate(-411.694 -223.287)" fill="#ffc401"/>
                <path id="Path_5489" data-name="Path 5489" d="M413.814,228.778c-3.791.513-1.767-9.066,2.064-3.589C415.986,226.147,416.525,228.494,413.814,228.778Zm-.175-3.845c-2.442,1.147,2.051,5.167.729.175C414.137,225.014,414.218,224.838,413.638,224.933Z" transform="translate(-411.79 -223.492)" fill="#ffc401"/>
              </g>
              <g id="Group_3077" data-name="Group 3077" transform="translate(460.497 194.731)">
                <path id="Path_5490" data-name="Path 5490" d="M402.658,204.59a1.593,1.593,0,0,0,0,3.184A1.593,1.593,0,0,0,402.658,204.59Z" transform="translate(-400.563 -203.958)" fill="#ffc401"/>
                <path id="Path_5491" data-name="Path 5491" d="M402.8,208.585c-4.992-.648.256-8.068,2.186-2.253A2.393,2.393,0,0,1,402.8,208.585Zm0-3.184c-2.051.067.081,3.454.89.944C403.531,206.211,403.949,205.684,402.8,205.4Z" transform="translate(-400.708 -204.121)" fill="#ffc401"/>
              </g>
              <g id="Group_3078" data-name="Group 3078" transform="translate(484.964 204.685)">
                <path id="Path_5492" data-name="Path 5492" d="M423.867,212.36c-2.563-2.482-8.985,5.882,0,4.924C424.663,216.663,426.471,214.626,423.867,212.36Z" transform="translate(-418.705 -211.361)" fill="#ffc401"/>
                <path id="Path_5493" data-name="Path 5493" d="M422.576,218.461c-4.088.108-6.031-6.786.621-6.961C426.879,211.783,427.244,218.165,422.576,218.461Zm-1.565-1.9c3.885,3.116,5.707-6.3-.378-2.914C420.3,214.2,419.351,215.345,421.011,216.559Z" transform="translate(-418.844 -211.5)" fill="#ffc401"/>
              </g>
              <g id="Group_3081" data-name="Group 3081" transform="translate(406.868 323.097)">
                <path id="Path_5498" data-name="Path 5498" d="M364.572,302.052c.351-4.506-5.68-1.471-2.132,2.374C363.088,304.8,364.882,304.4,364.572,302.052Z" transform="translate(-360.83 -299.084)" fill="#ffc401"/>
                <path id="Path_5499" data-name="Path 5499" d="M363.12,305.395c-3.076.364-3.076-8.068,1.322-5.707C365.521,300.794,366.438,305.1,363.12,305.395Zm-.175-4.843c-2.644,1.754,1.983,7.015.877.3C363.605,300.727,363.565,300.416,362.944,300.551Z" transform="translate(-360.956 -299.27)" fill="#ffc401"/>
              </g>
              <g id="Group_3082" data-name="Group 3082" transform="translate(421.932 312.844)">
                <path id="Path_5500" data-name="Path 5500" d="M373.915,292.25a1.553,1.553,0,0,0,0,3.1A1.553,1.553,0,0,0,373.915,292.25Z" transform="translate(-372.015 -291.468)" fill="#ffc401"/>
                <path id="Path_5501" data-name="Path 5501" d="M374.022,296.2c-4.277.432-.337-8.675,2.118-2.2C376.1,294.692,375.749,295.744,374.022,296.2Zm0-3.116c-1.97.067.067,3.346.85.917C374.858,293.869,374.858,293.693,374.022,293.086Z" transform="translate(-372.122 -291.671)" fill="#ffc401"/>
              </g>
              <g id="Group_3083" data-name="Group 3083" transform="translate(432.084 332.607)">
                <path id="Path_5502" data-name="Path 5502" d="M381.377,306.9a1.486,1.486,0,0,0,0,2.968A1.486,1.486,0,0,0,381.377,306.9Z" transform="translate(-379.537 -306.116)" fill="#ffc401"/>
                <path id="Path_5503" data-name="Path 5503" d="M381.486,310.7c-4.142.418-.324-8.391,2.051-2.132C383.509,309.248,383.159,310.259,381.486,310.7Zm0-2.955c-1.781,0,.121,3.022.782.836C382.133,308.479,382.511,307.993,381.486,307.75Z" transform="translate(-379.647 -306.319)" fill="#ffc401"/>
              </g>
              <g id="Group_3084" data-name="Group 3084" transform="translate(487.278 390.98)">
                <path id="Path_5504" data-name="Path 5504" d="M427.339,352.168c-2.051-6.516-11.778,4.155-1.9,3.373C426.017,354.92,427.42,353.989,427.339,352.168Z" transform="translate(-420.375 -349.426)" fill="#ffc401"/>
                <path id="Path_5505" data-name="Path 5505" d="M424.2,356.727c-11.022-2.536,6.84-13.653,2.968-1.713C426.321,355.931,426.469,356.39,424.2,356.727Zm-.121-5.707c-2.59-.121-3.036,5.6,1.2,4.128C426.091,354.488,429.087,350.872,424.081,351.021Zm2.1,4.236Z" transform="translate(-420.558 -349.588)" fill="#ffc401"/>
              </g>
              <g id="Group_3085" data-name="Group 3085" transform="translate(470.383 386.27)">
                <path id="Path_5506" data-name="Path 5506" d="M409.754,346.67a1.472,1.472,0,0,0,0,2.941A1.472,1.472,0,0,0,409.754,346.67Z" transform="translate(-407.927 -345.896)" fill="#ffc401"/>
                <path id="Path_5507" data-name="Path 5507" d="M409.863,350.459c-4.115.418-.324-8.351,2.051-2.118C411.873,349,411.522,350.014,409.863,350.459Zm0-2.941c-1.794.054.067,3.049.769.836C410.5,348.233,410.861,347.761,409.863,347.518Z" transform="translate(-408.036 -346.096)" fill="#ffc401"/>
              </g>
              <g id="Group_3086" data-name="Group 3086" transform="translate(487.487 361.653)">
                <path id="Path_5508" data-name="Path 5508" d="M422.514,328.36a1.472,1.472,0,0,0,0,2.941A1.472,1.472,0,0,0,422.514,328.36Z" transform="translate(-420.576 -327.671)" fill="#ffc401"/>
                <path id="Path_5509" data-name="Path 5509" d="M422.651,332.113c-4.533-.135.04-7.919,2.051-2.118C424.661,330.656,424.324,331.668,422.651,332.113Zm0-2.941c-1.605-.121.054,3.009.769.836C423.3,329.887,423.663,329.429,422.651,329.172Z" transform="translate(-420.713 -327.849)" fill="#ffc401"/>
              </g>
              <g id="Group_3087" data-name="Group 3087" transform="translate(470.723 333.424)">
                <path id="Path_5510" data-name="Path 5510" d="M412.716,307.607c-2.32-2.213-7.892,5.262,0,4.3A2.586,2.586,0,0,0,412.716,307.607Z" transform="translate(-408.166 -306.831)" fill="#ffc401"/>
                <path id="Path_5511" data-name="Path 5511" d="M411.583,312.989c-3.184.675-6.084-7.5,1.565-5.842C414.9,308.321,415.805,312.544,411.583,312.989Zm-1.322-1.727c3.926,2.563,4.223-6.179-.661-2.145a1.546,1.546,0,0,0,.661,2.145Z" transform="translate(-408.287 -306.925)" fill="#ffc401"/>
              </g>
            </g>
            <g id="Group_3088" data-name="Group 3088" transform="translate(62.228 184.954)">
              <path id="Path_5512" data-name="Path 5512" d="M109.406,198.647c-2.955-4.87-5.99,6.179-.094,2.374A3.467,3.467,0,0,0,109.406,198.647Z" transform="translate(-105.343 -196.697)" fill="#bcb3e2"/>
              <path id="Path_5513" data-name="Path 5513" d="M107.848,202.791c-5.019.31-.958-10.887,2.523-3.238-.013,0,.121.634-.661.675h.648A2.586,2.586,0,0,1,107.848,202.791Zm.094-4.439c-3.2-.256.742,6.934,1.039.783A1.131,1.131,0,0,0,107.943,198.352Z" transform="translate(-105.498 -196.875)" fill="#bcb3e2"/>
            </g>
          </g>
        </g>
        <g id="OBJECTS" transform="translate(179.593 51.12)">
          <ellipse id="Ellipse_87" data-name="Ellipse 87" cx="135.909" cy="22.206" rx="135.909" ry="22.206" transform="translate(23.739 548.237)" fill="#f9f5f1" opacity="0.7"/>
          <g id="Group_3108" data-name="Group 3108">
            <g id="Group_3092" data-name="Group 3092" transform="translate(60.302 262.606)">
              <g id="Group_3090" data-name="Group 3090" transform="translate(30.842 295.466)">
                <path id="Path_5515" data-name="Path 5515" d="M259.129,470.2a7.553,7.553,0,0,1-.742,3.2c-1.578,2.078-39.542,6.381-42.065,2.941-1.39-1.889,2.631-4.034,7-6.206,3.589-1.767,7.42-3.562,8.675-5.248,2.82-3.737,1.16-7.272,9.282-7.568s17.768-.432,17.768-.432A111.908,111.908,0,0,1,259.129,470.2Z" transform="translate(-216.043 -456.88)" fill="#ffc401"/>
                <path id="Path_5516" data-name="Path 5516" d="M259.129,466.767a7.553,7.553,0,0,1-.742,3.2c-1.578,2.078-39.542,6.381-42.065,2.941-1.39-1.889,2.631-4.034,7-6.206a10.245,10.245,0,0,1,1.619,4.8c7.434-.513,15.919-.216,23.232-1.632C252.1,469.1,255.851,468.4,259.129,466.767Z" transform="translate(-216.043 -453.452)" fill="#01807b"/>
              </g>
              <g id="Group_3091" data-name="Group 3091" transform="translate(144.082 273.246)">
                <path id="Path_5517" data-name="Path 5517" d="M337.35,461.685c-.7,2.577-33.323,18.833-36.763,16.378-1.821-1.3.755-4.627,3.777-8.162,2.685-3.143,5.72-6.449,6.3-8.648,1.228-4.654,1.282-8.985,8.445-12.182a29.078,29.078,0,0,0,11.022-8.661s5.464,12.87,6.907,18.726A6.268,6.268,0,0,1,337.35,461.685Z" transform="translate(-299.98 -440.41)" fill="#ffc401"/>
                <path id="Path_5518" data-name="Path 5518" d="M337.35,456.84c-.7,2.577-33.323,18.833-36.763,16.378-1.821-1.3.755-4.627,3.777-8.162a10.352,10.352,0,0,1,3.076,3.953c6.853-2.928,14.948-5.437,21.383-9.2a51.637,51.637,0,0,0,8.216-5.518A6.267,6.267,0,0,1,337.35,456.84Z" transform="translate(-299.98 -435.564)" fill="#01807b"/>
              </g>
              <path id="Path_5519" data-name="Path 5519" d="M335.159,292.252c-5.3,16.014-26.213,81.58-19.589,101.777S370.6,502.5,369.616,514.315s-15.582,19.8-25.174,18.793c-6.624-.7-77.331-123.281-80.838-134.344-6.624-20.884,12.1-88.5,8.122-91.982-5.41-4.735-30.422,72.069-33.08,89.473-1.255,8.243,39.488,134.938,30.49,142.735s-21.451,5.747-28.075,3.656S192.4,412.835,193.193,398.224c1.322-24.365,19.373-83.86,37.262-120.758,5.545-11.44,9.066-33.094,10.51-34.443,4.587-4.277,60.467-9.12,87.746.135C336.927,245.951,340.461,276.238,335.159,292.252Z" transform="translate(-193.182 -237.871)" fill="#dbcfc3"/>
            </g>
            <g id="Group_3093" data-name="Group 3093" transform="translate(24.027 119.873)">
              <path id="Path_5520" data-name="Path 5520" d="M189.7,132.082c-3.359.513-2.982,5.491-2.55,7.933s16.338,8.243,17.795,7.825,5.842-5.8,4.938-7.393C208.2,137.452,191.523,131.813,189.7,132.082Z" transform="translate(-159.108 -132.073)" fill="#01807b"/>
              <path id="Path_5521" data-name="Path 5521" d="M269.779,165.683c3.98,9.174-.958,19.818-16.621,29.478-12.452,7.676-49.971,54.113-76.791,29.127s7.555-84.832,15.15-87.867,22.341,4.371,25.012,9.97-18.469,46.1-14,45.951c7.8-6.179,21.734-16.85,35.751-25.93C250.217,158.709,265.8,156.51,269.779,165.683Z" transform="translate(-166.293 -130.8)" fill="#01807b"/>
            </g>
            <g id="Group_3095" data-name="Group 3095" transform="translate(95.328 139.841)">
              <path id="Path_5522" data-name="Path 5522" d="M225.314,249.218s-4.533,10.321-1.551,13.6,18.7,6.934,51.5,7.285c31.1.337,48.406-6.192,51.995-9.187S325.7,246.79,325.7,246.79Z" transform="translate(-217.886 -111.993)" fill="#01807b"/>
              <path id="Path_5523" data-name="Path 5523" d="M334.042,271.958a26.713,26.713,0,0,1-.931,6.53c-.472,1.174-.769,2.536-1.241,4.007a15.35,15.35,0,0,1-2.752,5.289c-3.265,4.061-10.1,8.135-26.078,10.806-29.4,4.924-68.912-.9-74.714-4.371a25.212,25.212,0,0,1-4.02-2.941,14.5,14.5,0,0,1-4.9-8.337,20.127,20.127,0,0,1,.391-8.216c1.066-4.627,3.292-9.633,5.693-14.962,1.066-2.334,2.145-4.722,3.184-7.177A73.152,73.152,0,0,0,233.884,236a41.749,41.749,0,0,0,.553-5.68c.013-.486.027-.971.027-1.457a162.9,162.9,0,0,0-.931-17.471c-.243-2.509-.526-5.019-.809-7.528-.58-5.086-1.187-10.132-1.632-14.975-.243-2.523-.432-5.005-.54-7.393a66.561,66.561,0,0,1,.634-14.881,25.838,25.838,0,0,1,2.267-7.042,16.093,16.093,0,0,1,2.914-4.115c12.56-12.668,66.43-10.334,79.543.567a3.789,3.789,0,0,1,.418.391,22.029,22.029,0,0,1,4.654,7.407,93.674,93.674,0,0,1,4.87,15.758q.971,4.169,1.808,8.769c.85,4.546,1.605,9.349,2.293,14.274q.546,4.007,1.025,8.081c.553,4.776,1.039,9.592,1.457,14.341q.384,4.391.675,8.661c.324,4.439.567,8.756.755,12.843.148,3.346.256,6.543.31,9.525C334.325,262.487,334.271,267.951,334.042,271.958Z" transform="translate(-219.144 -146.874)" fill="#05a19c"/>
              <g id="Group_3094" data-name="Group 3094" transform="translate(0 9.546)" opacity="0.4">
                <path id="Path_5524" data-name="Path 5524" d="M334.042,239.59a26.716,26.716,0,0,1-.931,6.53c-.472,1.174-.769,2.536-1.241,4.007-1.4.351-2.806.675-4.182.985-1.929.459-3.8.877-5.639,1.282a216.936,216.936,0,0,1-44.723,5.262,213.563,213.563,0,0,1-45.937-4.466c-1.619-.337-3.292-.688-4.992-1.052-2.293-.472-4.627-.985-6.988-1.565a20.127,20.127,0,0,1,.391-8.216c6.179,1.444,12.425,2.428,18.105,3.373a210.591,210.591,0,0,0,42.51,2.658,213.23,213.23,0,0,0,43.32-5.977Q328.915,241.135,334.042,239.59Z" transform="translate(-219.144 -124.053)" fill="#05a19c"/>
                <path id="Path_5525" data-name="Path 5525" d="M332.534,230.285c-4.115,1.3-8.23,2.428-12.223,3.467A195.738,195.738,0,0,1,280.8,239.8a186.7,186.7,0,0,1-56.946-5.828c1.066-2.334,2.145-4.722,3.184-7.177a194.728,194.728,0,0,0,53.425,4.533,189.5,189.5,0,0,0,39.421-6.449c4.209-1.16,8.3-2.577,12.344-4.115C332.372,224.106,332.48,227.3,332.534,230.285Z" transform="translate(-217.502 -130.626)" fill="#05a19c"/>
                <path id="Path_5526" data-name="Path 5526" d="M329.3,213.481c-4.047.944-8.108,1.754-12.061,2.523a229.458,229.458,0,0,1-33.8,4.034,218.618,218.618,0,0,1-53.371-4.263,41.744,41.744,0,0,0,.553-5.68c.014-.486.027-.971.027-1.457a230.107,230.107,0,0,0,51.576,3.562,220.946,220.946,0,0,0,32.878-3.953c4.573-.917,9.052-2.132,13.518-3.427Q329.006,209.211,329.3,213.481Z" transform="translate(-215.33 -136.191)" fill="#05a19c"/>
                <path id="Path_5527" data-name="Path 5527" d="M327.465,196.281c-1.983.459-3.912.9-5.774,1.336a200.136,200.136,0,0,1-36.574,4.992,191.711,191.711,0,0,1-55.1-5.639c-.243-2.509-.526-5.019-.809-7.528a194.579,194.579,0,0,0,54.76,5.437,188.931,188.931,0,0,0,35.616-4.911c2.293-.553,4.587-1.133,6.853-1.767Q326.986,192.207,327.465,196.281Z" transform="translate(-215.63 -141.993)" fill="#05a19c"/>
                <path id="Path_5528" data-name="Path 5528" d="M324.709,179.889a322.836,322.836,0,0,1-37.1,3.872,269.246,269.246,0,0,1-59.469-3.332c-.243-2.523-.432-5.005-.54-7.393a302.98,302.98,0,0,0,58.929,2.523A281.54,281.54,0,0,0,322.9,171.12Q323.872,175.289,324.709,179.889Z" transform="translate(-216.193 -147.956)" fill="#05a19c"/>
                <path id="Path_5529" data-name="Path 5529" d="M317.866,161.357a244.847,244.847,0,0,1-33.687,5.059,234.358,234.358,0,0,1-56.109-2.266,25.839,25.839,0,0,1,2.266-7.042,247.878,247.878,0,0,0,52.345,1.336,239.966,239.966,0,0,0,30.53-4.493A22.029,22.029,0,0,1,317.866,161.357Z" transform="translate(-216.028 -153.95)" fill="#05a19c"/>
              </g>
            </g>
            <g id="Group_3096" data-name="Group 3096" transform="translate(132.329 123.053)">
              <path id="Path_5530" data-name="Path 5530" d="M268.345,158.808a24.126,24.126,0,0,1-10.739,4.4c-8.23,1.484-7.717-2.5-7.717-2.5l-1.349-9.592-1.97-13.977,19.387-2.712,1.646,11.778,1.511,10.752A2.012,2.012,0,0,1,268.345,158.808Z" transform="translate(-246.57 -134.43)" fill="#b26f69"/>
              <path id="Path_5531" data-name="Path 5531" d="M267.6,146.194a40.013,40.013,0,0,1-6.354,2.644,58.745,58.745,0,0,1-8.472,1.916,23.284,23.284,0,0,1-4.223.364l-1.97-13.977,19.387-2.712Z" transform="translate(-246.566 -134.43)" fill="#a34b5f" opacity="0.4"/>
            </g>
            <g id="Group_3102" data-name="Group 3102" transform="translate(87.069)">
              <path id="Path_5532" data-name="Path 5532" d="M234.092,75.47c-9.565-13.14-23.232,2.779-16.688,12.412-10.86,8.486,1.282,21.4,6.233,21.734C224.514,104.314,234.659,86.735,234.092,75.47Z" transform="translate(-213.022 -33.701)" fill="#212121"/>
              <path id="Path_5533" data-name="Path 5533" d="M218.636,119.942C212.336,151.5,227.1,175,262.2,171.977s42.78-29.991,47.947-57.351S297.829,61.148,268.418,61.04C234.394,60.919,221.523,81.385,218.636,119.942Z" transform="translate(-211.557 -36.998)" fill="#ffcfad"/>
              <g id="Group_3097" data-name="Group 3097" transform="translate(71.844 79.679)" opacity="0.5">
                <path id="Path_5534" data-name="Path 5534" d="M268.116,102.28s-4.142,5.963,0,6.1S268.116,102.28,268.116,102.28Z" transform="translate(-266.275 -102.28)" fill="#fff"/>
                <path id="Path_5535" data-name="Path 5535" d="M271.59,108.11s-5.653,8.135,0,8.324S271.59,108.11,271.59,108.11Z" transform="translate(-265.297 -100.245)" fill="#fff"/>
              </g>
              <path id="Path_5536" data-name="Path 5536" d="M305.124,67.072c-6.651-2.982-15.528-.418-23.488-1.214a15.091,15.091,0,0,0-6.8-5.788,11.063,11.063,0,0,0-10.887,1.457,10.593,10.593,0,0,0-1.39,1.3,30.435,30.435,0,0,0-4.128-10.55c-3.1-4.735-7.825-8.378-13.572-8.972-5.41-.567-11.063,1.821-13.626,6.8a15.367,15.367,0,0,0-1.632,7.218,7.2,7.2,0,0,0-1.781-.27c-4.479-.094-8.189,3.481-9.376,7.609-1.255,4.358-.108,9.147,2.1,12.978a19.555,19.555,0,0,0,4.223,5.073,17.3,17.3,0,0,0,5.248,2.928.2.2,0,0,0,.27-.148c9.093,4.614,19.022-2.078,19.022-2.078s3.535,6.408,13.478,9.053a25.916,25.916,0,0,0,9.943.58c.04.189.054.378.094.567a14.565,14.565,0,0,0,6.638,8.445,7.347,7.347,0,0,0-1.551,2.752c-.931,2.968,1.592,7.447,3.912,9.322,4.29,3.454,11.319,4.951,11.319,4.951s-1.174,15.515,3.467,18.6c1.74,1.16,2.766-6.327,6.125-8.5,5.4-3.494,13.167-2.874,17.012-9.983C328.707,102.567,326.764,76.8,305.124,67.072Z" transform="translate(-211.31 -43.219)" fill="#212121"/>
              <g id="Group_3098" data-name="Group 3098" transform="translate(88.608 79.253)">
                <path id="Path_5537" data-name="Path 5537" d="M279.4,124.812c1.444,4.182,8.3,5.693,13.815,1.929s9.552-15.164,5.45-21.356-13.869-3.44-17.592,3.939C278.281,114.883,278.281,121.548,279.4,124.812Z" transform="translate(-278.701 -101.964)" fill="#edb894"/>
              </g>
            </g>
            <g id="Group_3103" data-name="Group 3103" transform="translate(107.616 123.801)">
              <path id="Path_5549" data-name="Path 5549" d="M230.893,149.98c3.454,4.641-5.531,8.985-1.646,13.127,19.953,12.749,65.8,4.1,75.55-8.513,4.371-4.627,2.752-7.825-4.762-10.388-3.359-7.218-2.32-10.617-11.643-8.688C250.4,150.372,227.413,137.069,230.893,149.98Z" transform="translate(-228.252 -134.985)" fill="#fdbf00"/>
              <path id="Path_5550" data-name="Path 5550" d="M257.6,137.482c-1.97.418-4.074.9-5.41,2.4a6.744,6.744,0,0,0-1.133,6.017,34.1,34.1,0,0,0,2.374,5.9c3.413,7.771,3.683,16.567,2.833,25.012s-2.766,16.756-3.535,25.2a93.1,93.1,0,0,0,2.482,31.259c1.052,4.115,2.617,8.5,6.219,10.766,2.428,1.538,5.423,1.848,8.284,2.132l12.2,1.174a5.627,5.627,0,0,0,2.766-.189,4.033,4.033,0,0,0,2.064-4.209,14.138,14.138,0,0,0-1.767-4.668c-5.289-10.55-6.543-22.692-6.422-34.5s1.538-23.6,1.174-35.4c-.27-8.864-1.578-17.849-5.059-26.065-1.147-2.712-2.388-6.017-5.572-6.719C265.645,134.851,260.964,136.781,257.6,137.482Z" transform="translate(-220.372 -134.831)" fill="#ffc401"/>
            </g>
            <g id="Group_3105" data-name="Group 3105" transform="translate(98.624 146.702)">
              <path id="Path_5551" data-name="Path 5551" d="M234.232,182.291c-4.034-2.793-6.341-1.39-10.078-1.16s-3.44-2.536,1.187-4.317c2.374-.917,7.258-.823,10.213.108-5.464-2.955-10.914.648-13.235-.756-1.012-.607-.418-2.793,2.213-3.885a24.125,24.125,0,0,1,13.639-1.511c-4.425-2.59-9.214.486-11.7-.054-1.7-.364-.472-1.848,1.565-3.022a19.39,19.39,0,0,1,13.478-2.159c5.626,1.025,11.022,9.106,17.417,18.6,1.889,2.793,3.616,3.993,2.32,8.257s-5.842,8.324-8.688,8.526c-3.656.256-9.471-3.818-14.017-9.012s-8.486-6.071-12.182-6.53c-3.656-.445-3.912-2.28-2.1-3.008S228.809,181.454,234.232,182.291Z" transform="translate(-221.587 -147.348)" fill="#ffcfad"/>
              <g id="Group_3104" data-name="Group 3104" transform="translate(24.175)">
                <path id="Path_5552" data-name="Path 5552" d="M239.619,194.69c-.9,3.278,3.8,4.951,6.206,5.558S260,188.673,260.207,187.175s-2.914-7.69-4.735-7.515C252.045,179.985,240.105,192.923,239.619,194.69Z" transform="translate(-239.506 -142.29)" fill="#01807b"/>
                <path id="Path_5553" data-name="Path 5553" d="M300.331,151.96c10,.094,17.714,8.931,20.169,27.171,1.956,14.489,29.1,67.658-4.627,82s-74.43-41.4-74.093-49.58,13.073-18.631,19.292-18.793,34.591,35.616,36.278,31.488c-2.469-9.633-6.557-26.712-9.133-43.212C285.99,166.989,290.334,151.866,300.331,151.96Z" transform="translate(-238.712 -151.96)" fill="#01807b"/>
              </g>
            </g>
            <g id="Group_3107" data-name="Group 3107" transform="translate(0 99.863)">
              <g id="Group_3106" data-name="Group 3106" transform="translate(0 3.278)">
                <path id="Path_5554" data-name="Path 5554" d="M158.685,150.379a39.524,39.524,0,0,1,8.769-8.324,73.117,73.117,0,0,1,11.386-6.826c1.093-.526,2.213-1.025,3.346-1.5.553-2.644.729-4.493.755-4.56.094-.189-18.213,4.843-24.972,7.353s-7.447,6.395-7.447,6.395c-1.106,4.789,1.16,8.189,4.816,10.037a1.545,1.545,0,0,0,2-.553C157.754,151.715,158.2,151.04,158.685,150.379Z" transform="translate(-147.87 -116.356)" fill="#e6e6e6"/>
                <path id="Path_5555" data-name="Path 5555" d="M218.308,120.3a78.361,78.361,0,0,1,21.1.162c3.44.58,7.407,2.078,8.2,5.477s-2.064,6.489-4.695,8.81c-11.616,10.253-23.866,20.736-30.045,34.955-2.455,5.666-3.858,11.724-6.1,17.471s-5.5,11.386-10.671,14.759c-3.818,2.509-9.417,3.373-12.655.148-4.627-4.6-.863-13.046-4.088-18.726-1.767-3.1-5.383-4.776-8.931-5.127s-7.1.4-10.6,1.106a17.162,17.162,0,0,1-6.354.445,5.973,5.973,0,0,1-4.789-3.777c-.89-2.941,1.4-5.815,3.508-8.054l11.332-11.98c2.374-2.509,4.938-5.612,4.223-9-.648-3.13-4.02-5.073-7.2-5.181-3.508-.108-6.287,1.794-9.5,4.681.418-2.82,5.734-7.069,7.892-8.2,4.479-2.347,9.079-4.493,13.747-6.422A165.1,165.1,0,0,1,218.308,120.3Z" transform="translate(-148.484 -119.671)" fill="#fff"/>
                <path id="Path_5556" data-name="Path 5556" d="M229.509,128.171c-.634-2.307-27.2,7.137-42,15.218s-31.232,22.22-29.343,24.1,16.189-16.594,36.075-23.555c2.7-.944,3.764.944-.135,4.169s.675,2.563,10.091-4.439S229.914,129.655,229.509,128.171Z" transform="translate(-145.155 -116.826)" fill="#e6e6e6"/>
              </g>
              <path id="Path_5557" data-name="Path 5557" d="M197.462,134.616c-.486-.931-1.228-6.543-1.12-9.3-.108,1.727-.283,3.035-.27,4.695.027,1.848.567,5.005-1.025,5.086s-3.265-1.9-4.412-4.762a22.016,22.016,0,0,1-1.444-7.528,4.186,4.186,0,0,1,3.454-4.317,49.16,49.16,0,0,1,15.083-1.052c5.464.58,5.558,2.752,6.692,5.288,1.43,3.184-1.444,9.484-4.034,9.606s.2-4.6-1.565-8.27c1.309,2.725-1,10.132-4.007,10.955-1.578.432-1.673-1.214-1.619-2.078.175-2.577,1.133-5.221.04-7.757.081,2.118-.378,7.973-1.916,9.741A2.3,2.3,0,0,1,197.462,134.616Z" transform="translate(-134.275 -117.241)" fill="#ffcfad"/>
            </g>
          </g>
        </g>
      </g>
      <g id="Login" transform="translate(71.029 376.613)">
        <g id="Group_3039" data-name="Group 3039" transform="translate(0 0)">
          <g id="Group_3037" data-name="Group 3037" transform="translate(0 12.079)">
            <path id="Path_5366" data-name="Path 5366" d="M359.349,524.87H145.929A13.6,13.6,0,0,1,132.5,512.105L113.407,141.445a12,12,0,0,1,12.112-12.765H338.939a13.616,13.616,0,0,1,13.434,12.765l19.105,370.644A12.03,12.03,0,0,1,359.349,524.87Z" transform="translate(-113.389 -128.68)" fill="#f2f2f2"/>
            <path id="Path_5367" data-name="Path 5367" d="M359.349,524.87H145.929A13.6,13.6,0,0,1,132.5,512.105L113.407,141.445a12,12,0,0,1,12.112-12.765H338.939a13.616,13.616,0,0,1,13.434,12.765l19.105,370.644A12.03,12.03,0,0,1,359.349,524.87Z" transform="translate(-113.389 -128.68)" fill="#f2f2f2" opacity="0.8"/>
          </g>
          <path id="Path_5368" data-name="Path 5368" d="M360.531,503.858H156.414a13.017,13.017,0,0,1-12.848-12.213L125.3,137.163a11.48,11.48,0,0,1,11.577-12.213H340.991a13.017,13.017,0,0,1,12.848,12.213l18.269,354.483A11.471,11.471,0,0,1,360.531,503.858Z" transform="translate(-105.388 -119.111)" fill="#01807b" opacity="0.15"/>
          <path id="Path_5369" data-name="Path 5369" d="M357.25,492.434H153.132a4.9,4.9,0,0,1-4.7-4.467l-18.269-354.5a3.439,3.439,0,0,1,.9-2.61,3.4,3.4,0,0,1,2.526-1.037H337.71a4.906,4.906,0,0,1,4.7,4.484l18.269,354.483a3.439,3.439,0,0,1-.9,2.61A3.369,3.369,0,0,1,357.25,492.434ZM133.609,130.255a2.917,2.917,0,0,0-2.225.9,2.949,2.949,0,0,0-.786,2.292l18.269,354.483a4.459,4.459,0,0,0,4.283,4.082h204.1a2.917,2.917,0,0,0,2.225-.9,2.949,2.949,0,0,0,.786-2.292L341.992,134.337a4.459,4.459,0,0,0-4.283-4.082Z" transform="translate(-102.106 -115.834)" fill="#fff"/>
          <ellipse id="Ellipse_85" data-name="Ellipse 85" cx="60.227" cy="63.405" rx="60.227" ry="63.405" transform="matrix(0.698, -0.716, 0.716, 0.698, 50.907, 97.811)" fill="#fff" opacity="0.3"/>
          <path id="Path_5370" data-name="Path 5370" d="M266.22,200.718a47.786,47.786,0,0,1-4.818,23.806,46.949,46.949,0,0,1-42.61,26.182,53.075,53.075,0,0,1-45.3-26.182,51.486,51.486,0,0,1-7.261-23.806c-1.422-27.621,19.808-49.988,47.412-49.988S264.8,173.114,266.22,200.718Z" transform="translate(-77.877 -101.763)" fill="#fff"/>
          <path id="Path_5371" data-name="Path 5371" d="M258.464,200.207a46.949,46.949,0,0,1-42.61,26.182,53.075,53.075,0,0,1-45.3-26.182,75.505,75.505,0,0,1,43.263-13.317A82.2,82.2,0,0,1,258.464,200.207Z" transform="translate(-74.923 -77.428)" fill="#c6c2c2"/>
          <ellipse id="Ellipse_86" data-name="Ellipse 86" cx="21.698" cy="22.853" rx="21.698" ry="22.853" transform="matrix(0.698, -0.716, 0.716, 0.698, 105.958, 81.428)" fill="#c6c2c2"/>
          <g id="Group_3038" data-name="Group 3038" transform="translate(59.417 184.829)">
            <path id="Path_5372" data-name="Path 5372" d="M315.372,282.627H155.555a5.5,5.5,0,0,1-5.437-5.169l-1.2-23.488a4.852,4.852,0,0,1,4.9-5.169H313.632a5.5,5.5,0,0,1,5.437,5.169l1.2,23.488A4.852,4.852,0,0,1,315.372,282.627Z" transform="translate(-148.906 -220.594)" fill="#fff"/>
            <path id="Path_5373" data-name="Path 5373" d="M248.3,247.264H181.551a5.5,5.5,0,0,1-5.437-5.169l-.251-4.985a4.852,4.852,0,0,1,4.9-5.169h66.751a5.5,5.5,0,0,1,5.437,5.169l.251,4.985A4.88,4.88,0,0,1,248.3,247.264Z" transform="translate(-130.769 -231.94)" fill="#d9d6d6" opacity="0.59" style="mix-blend-mode: multiply;isolation: isolate"/>
            <path id="Path_5374" data-name="Path 5374" d="M278.175,348.026H178.2a9.369,9.369,0,0,1-9.251-8.8l-.6-11.527a8.267,8.267,0,0,1,8.348-8.8h99.976a9.369,9.369,0,0,1,9.251,8.8l.6,11.527A8.276,8.276,0,0,1,278.175,348.026Z" transform="translate(-135.832 -173.42)" fill="#d9d6d6" opacity="0.59" style="mix-blend-mode: multiply;isolation: isolate"/>
            <path id="Path_5375" data-name="Path 5375" d="M317.122,316.467H157.3a5.5,5.5,0,0,1-5.437-5.169l-1.2-23.488a4.852,4.852,0,0,1,4.9-5.169H315.383a5.5,5.5,0,0,1,5.437,5.169l1.2,23.488A4.88,4.88,0,0,1,317.122,316.467Z" transform="translate(-147.728 -197.821)" fill="#fff"/>
            <path id="Path_5376" data-name="Path 5376" d="M169.636,261.212a5.37,5.37,0,0,1-5.42,5.722,6.1,6.1,0,0,1-6.023-5.722,5.371,5.371,0,0,1,5.42-5.722A6.1,6.1,0,0,1,169.636,261.212Z" transform="translate(-142.661 -216.092)" fill="#263238"/>
            <path id="Path_5377" data-name="Path 5377" d="M180.146,261.212a5.37,5.37,0,0,1-5.42,5.722,6.1,6.1,0,0,1-6.023-5.722,5.371,5.371,0,0,1,5.42-5.722A6.1,6.1,0,0,1,180.146,261.212Z" transform="translate(-135.588 -216.092)" fill="#263238"/>
            <path id="Path_5378" data-name="Path 5378" d="M190.646,261.212a5.37,5.37,0,0,1-5.42,5.722,6.1,6.1,0,0,1-6.023-5.722,5.371,5.371,0,0,1,5.42-5.722A6.1,6.1,0,0,1,190.646,261.212Z" transform="translate(-128.522 -216.092)" fill="#263238"/>
            <path id="Path_5379" data-name="Path 5379" d="M201.156,261.212a5.37,5.37,0,0,1-5.42,5.722,6.1,6.1,0,0,1-6.023-5.722,5.37,5.37,0,0,1,5.42-5.722A6.1,6.1,0,0,1,201.156,261.212Z" transform="translate(-121.449 -216.092)" fill="#263238"/>
            <path id="Path_5380" data-name="Path 5380" d="M171.376,295.052a5.37,5.37,0,0,1-5.42,5.722,6.1,6.1,0,0,1-6.023-5.722,5.37,5.37,0,0,1,5.42-5.722A6.1,6.1,0,0,1,171.376,295.052Z" transform="translate(-141.49 -193.319)" fill="#263238"/>
            <path id="Path_5381" data-name="Path 5381" d="M181.886,295.052a5.37,5.37,0,0,1-5.42,5.722,6.1,6.1,0,0,1-6.023-5.722,5.37,5.37,0,0,1,5.42-5.722A6.1,6.1,0,0,1,181.886,295.052Z" transform="translate(-134.417 -193.319)" fill="#263238"/>
            <path id="Path_5382" data-name="Path 5382" d="M192.4,295.052a5.37,5.37,0,0,1-5.42,5.722,6.1,6.1,0,0,1-6.023-5.722,5.371,5.371,0,0,1,5.42-5.722A6.1,6.1,0,0,1,192.4,295.052Z" transform="translate(-127.344 -193.319)" fill="#263238"/>
            <path id="Path_5383" data-name="Path 5383" d="M202.9,295.052a5.37,5.37,0,0,1-5.42,5.722,6.1,6.1,0,0,1-6.023-5.722,5.371,5.371,0,0,1,5.42-5.722A6.075,6.075,0,0,1,202.9,295.052Z" transform="translate(-120.278 -193.319)" fill="#263238"/>
            <path id="Path_5384" data-name="Path 5384" d="M213.406,295.052a5.37,5.37,0,0,1-5.42,5.722,6.1,6.1,0,0,1-6.023-5.722,5.371,5.371,0,0,1,5.42-5.722A6.1,6.1,0,0,1,213.406,295.052Z" transform="translate(-113.206 -193.319)" fill="#263238"/>
            <path id="Path_5385" data-name="Path 5385" d="M223.916,295.052a5.37,5.37,0,0,1-5.42,5.722,6.1,6.1,0,0,1-6.023-5.722,5.371,5.371,0,0,1,5.42-5.722A6.1,6.1,0,0,1,223.916,295.052Z" transform="translate(-106.133 -193.319)" fill="#263238"/>
          </g>
        </g>
      </g>
    </g>
  </g>
</svg>
