<svg xmlns="http://www.w3.org/2000/svg" width="21.093" height="21.093" viewBox="0 0 21.093 21.093">
  <g id="Layer_22" data-name="Layer 22" transform="translate(-2.001 -2)">
    <path id="Path_2273" data-name="Path 2273" d="M16.313,9.88l-2.7,2.667,2.7,2.667a.765.765,0,1,1-1.062,1.1l-2.7-2.7-2.667,2.7a.751.751,0,0,1-1.062-1.062l2.667-2.7L8.818,9.88A.753.753,0,0,1,9.88,8.817l2.667,2.667,2.667-2.667a.765.765,0,0,1,1.1,1.062ZM20,20A10.546,10.546,0,1,1,20,5.089,10.546,10.546,0,0,1,20,20ZM18.942,6.151a9.04,9.04,0,1,0,2.659,6.4,9.04,9.04,0,0,0-2.659-6.4Z" transform="translate(0)"/>
  </g>
</svg>
