<svg xmlns="http://www.w3.org/2000/svg" width="29.609" height="17.445" viewBox="0 0 29.609 17.445">
  <g id="noun_back_1227051" transform="translate(-7.275 -16.1)">
    <g id="Group_596" data-name="Group 596" transform="translate(7.275 16.1)">
      <path id="Path_2417" data-name="Path 2417" d="M15.985,16.1h0a1,1,0,0,0-.7.283l-7.725,7.75a.979.979,0,0,0,0,1.39l7.725,7.75a1.029,1.029,0,0,0,1.39,0,.979.979,0,0,0,0-1.39L10.6,25.807h25.3a.978.978,0,1,0,0-1.957H10.6l6.051-6.077a.979.979,0,0,0,0-1.39A.893.893,0,0,0,15.985,16.1Z" transform="translate(-7.275 -16.1)" fill="#707070"/>
    </g>
  </g>
</svg>
