<svg xmlns="http://www.w3.org/2000/svg" width="16.7" height="23.01" viewBox="0 0 16.7 23.01">
  <g id="noun_Location_2024994" transform="translate(-161 -62)">
    <g id="Group_324" data-name="Group 324" transform="translate(161 62)">
      <path id="Path_2207" data-name="Path 2207" d="M169.35,62a6.26,6.26,0,0,1,6.533,6.47c0,1.594-1.594,3.761-2.454,5.036a28.243,28.243,0,0,0-4.079,8.35,27.488,27.488,0,0,0-4.079-8.35c-.861-1.275-2.454-3.442-2.454-5.036A6.282,6.282,0,0,1,169.35,62ZM171.2,78.509c3.729.351,6.5,1.657,6.5,3.219,0,1.817-3.729,3.283-8.35,3.283-4.589,0-8.35-1.466-8.35-3.283,0-1.562,2.8-2.868,6.533-3.219.1.255.223.51.319.765-3.474.223-6.055,1.243-6.055,2.454,0,1.4,3.378,2.518,7.553,2.518,4.207,0,7.585-1.115,7.585-2.518,0-1.211-2.613-2.231-6.055-2.454A7.787,7.787,0,0,1,171.2,78.509Zm-1.848,1.243c1.625-5,5.9-8.86,5.9-11.282a5.88,5.88,0,0,0-11.76,0C163.486,70.892,167.725,74.748,169.35,79.752Zm-2.773-11.665a2.775,2.775,0,0,1,2.773-2.773,2.7,2.7,0,0,1,2.773,2.773,2.742,2.742,0,0,1-2.773,2.8A2.782,2.782,0,0,1,166.577,68.087Zm2.773-2.135a2.151,2.151,0,1,0,2.135,2.135A2.15,2.15,0,0,0,169.35,65.952Z" transform="translate(-161 -62)" fill="#989898" fill-rule="evenodd"/>
    </g>
  </g>
</svg>
