<svg xmlns="http://www.w3.org/2000/svg" width="23.482" height="22.288" viewBox="0 0 23.482 22.288">
  <g id="noun_Phone_2545576" transform="translate(23.482 19.371) rotate(172)">
    <g id="Group_455" data-name="Group 455" transform="translate(0 0)">
      <path id="Path_2236" data-name="Path 2236" d="M.969,15.808c.106-2.2,1.691-4.58,3.631-6.717a49.17,49.17,0,0,1,5.892-5.324A25.48,25.48,0,0,1,13.755,1.8a7.374,7.374,0,0,1,3.487-.83c.437.021,1.122.7,1.709,1.5A5.123,5.123,0,0,1,20,4.608a5.651,5.651,0,0,1-1.432,1.086A22.171,22.171,0,0,1,15.32,7.368a5.377,5.377,0,0,1-1.718-.9,3.9,3.9,0,0,0-.743-.431l-.12-.021c-.347-.017-1.879,1.2-3.325,2.5a19.4,19.4,0,0,0-2.952,3.041c-.109.282.073.622.32,1.083.356.664.912,1.7.678,2.123-.188.34-.84,1.282-1.5,2.175-.5.683-.995,1.327-1.276,1.637a1.755,1.755,0,0,1-.358.018,3.8,3.8,0,0,1-2.137-1.018A3.808,3.808,0,0,1,.986,15.948a.584.584,0,0,1-.017-.14ZM3.882,8.44C1.812,10.718.121,13.3,0,15.764a1.431,1.431,0,0,0,.045.416A4.794,4.794,0,0,0,1.562,18.3a4.761,4.761,0,0,0,2.724,1.253,2.654,2.654,0,0,0,.766-.071l.226-.127a20.679,20.679,0,0,0,1.47-1.85c.672-.918,1.351-1.9,1.559-2.278.49-.883-.218-2.2-.67-3.047-.126-.235-.322-.147-.27-.279a23.372,23.372,0,0,1,2.7-2.666c1.186-1.069,2.34-2.076,2.586-2.233.088.055.24.155.417.271.707.466,1.741,1.15,2.427,1.051l.089-.021A22.713,22.713,0,0,0,19.077,6.52c.956-.6,1.74-1.222,1.869-1.691l.017-.106A5.564,5.564,0,0,0,19.731,1.9C19,.9,18.044.044,17.286.007a8.277,8.277,0,0,0-3.946.921A26.508,26.508,0,0,0,9.934,2.977L9.905,3A49.879,49.879,0,0,0,3.882,8.44Z" transform="translate(0 0)" fill="#989898"/>
    </g>
  </g>
</svg>
