<svg xmlns="http://www.w3.org/2000/svg" id="prefix__camera" width="19.639" height="15.457" viewBox="0 0 19.639 15.457">
    <defs>
        <style>
            .prefix__cls-1{fill:#989898}
        </style>
    </defs>
    <g id="prefix__Group_17" data-name="Group 17">
        <g id="prefix__Group_16" data-name="Group 16">
            <path id="prefix__Path_9" d="M18.986 47.208a2.111 2.111 0 00-1.549-.653h-3.1v-.037a1.676 1.676 0 00-.5-1.213 1.708 1.708 0 00-1.213-.5h-5.6a1.721 1.721 0 00-1.736 1.717v.037H2.2a2.111 2.111 0 00-1.549.653A2.219 2.219 0 000 48.758v9.3A2.111 2.111 0 00.653 59.6a2.219 2.219 0 001.549.653h15.234a2.111 2.111 0 001.549-.653 2.219 2.219 0 00.653-1.549v-9.3a2.111 2.111 0 00-.652-1.543zm-.317 10.846h-.019a1.211 1.211 0 01-1.213 1.213H2.2a1.211 1.211 0 01-1.211-1.213v-9.3a1.211 1.211 0 011.211-1.21h3.6a.5.5 0 00.5-.5V46.5a.7.7 0 01.728-.728h5.592a.7.7 0 01.728.728v.541a.5.5 0 00.5.5h3.6a1.211 1.211 0 011.213 1.213z" class="prefix__cls-1" data-name="Path 9" transform="translate(0 -44.8)"/>
            <path id="prefix__Path_10" d="M116.592 130.8a4.589 4.589 0 103.248 1.344 4.6 4.6 0 00-3.248-1.344zm2.539 7.15a3.606 3.606 0 01-5.078 0 3.569 3.569 0 01-1.045-2.539 3.648 3.648 0 011.045-2.539 3.569 3.569 0 012.539-1.045 3.648 3.648 0 012.539 1.045 3.569 3.569 0 011.045 2.539 3.493 3.493 0 01-1.045 2.539z" class="prefix__cls-1" data-name="Path 10" transform="translate(-106.773 -126.786)"/>
            <circle id="prefix__Ellipse_1" cx=".915" cy=".915" r=".915" class="prefix__cls-1" data-name="Ellipse 1" transform="translate(15.551 3.995)"/>
        </g>
    </g>
</svg>
