<svg xmlns="http://www.w3.org/2000/svg" width="18.795" height="14.096" viewBox="0 0 18.795 14.096">
    <path id="prefix__envelope" d="M17.033 59.882H1.762A1.764 1.764 0 000 61.644v10.572a1.764 1.764 0 001.762 1.762h15.271a1.764 1.764 0 001.762-1.762V61.644a1.764 1.764 0 00-1.762-1.762zm0 1.175a.584.584 0 01.225.045L9.4 67.915 1.537 61.1a.585.585 0 01.225-.045zm0 11.747H1.762a.588.588 0 01-.587-.587v-9.874l7.838 6.793a.588.588 0 00.77 0l7.838-6.793v9.873a.588.588 0 01-.588.584z" transform="translate(0 -59.882)" style="fill:#989898"/>
</svg>
