<svg xmlns="http://www.w3.org/2000/svg" width="16.266" height="21.688" viewBox="0 0 16.266 21.688">
  <g id="Group_115" data-name="Group 115" transform="translate(0)">
    <path id="Path_43" data-name="Path 43" d="M214.073,280.594l-.285,2.563a.452.452,0,0,0,.449.5h1.807a.452.452,0,0,0,.449-.5l-.285-2.563a1.788,1.788,0,0,0,.74-1.453,1.807,1.807,0,1,0-3.615,0A1.788,1.788,0,0,0,214.073,280.594Zm1.068-2.357a.9.9,0,0,1,.39,1.714.452.452,0,0,0-.252.457l.261,2.348h-.8l.261-2.348a.452.452,0,0,0-.252-.457.9.9,0,0,1,.39-1.714Z" transform="translate(-207.007 -265.585)" fill="#989898"/>
    <path id="Path_44" data-name="Path 44" d="M79.814,8.133H78.459V6.326a6.326,6.326,0,0,0-12.652,0V8.133H64.452A.452.452,0,0,0,64,8.585v11.3a1.809,1.809,0,0,0,1.807,1.807H78.459a1.809,1.809,0,0,0,1.807-1.807V8.585A.452.452,0,0,0,79.814,8.133Zm-13.1-1.807a5.422,5.422,0,0,1,10.844,0V8.133h-.9V6.326a4.518,4.518,0,0,0-9.037,0V8.133h-.9Zm9.037,0V8.133H68.518V6.326a3.615,3.615,0,1,1,7.229,0Zm3.615,13.555a.9.9,0,0,1-.9.9H65.807a.9.9,0,0,1-.9-.9V9.037H79.363Z" transform="translate(-64)" fill="#989898"/>
  </g>
</svg>
