<svg xmlns="http://www.w3.org/2000/svg" width="1061.336" height="890.596" viewBox="0 0 1061.336 890.596">
  <g id="Group_3180" data-name="Group 3180" transform="translate(-189 -424)">
    <path id="Path_4007" data-name="Path 4007" d="M583.234,999.682S277.9,997.46,295.412,805.669c19.86-217.5,208.123-150.757,153.543-409.791-39.1-185.562,215.976-235.426,337.036-113.816,80.158,80.516,109.7,217.283,311.378,97.265,104.589-62.241,275.929-6.368,213.668,145.012-50.752,123.394-104.993,107.341-29.187,281.329,42.454,97.438-31.641,194.643-199.685,210.06S583.234,999.682,583.234,999.682Z" transform="translate(-73.968 294.615)" fill="#f9f5f1"/>
    <g id="Group_2227" data-name="Group 2227" transform="translate(189 424)">
      <g id="Group_2221" data-name="Group 2221">
        <g id="Group_2201" data-name="Group 2201" transform="translate(86.929 204.211)">
          <path id="Path_4008" data-name="Path 4008" d="M1784.471,1085.813a6,6,0,1,1-2.958,7.947A5.995,5.995,0,0,1,1784.471,1085.813Z" transform="translate(-850.27 -626.35)" fill="#ffc401"/>
          <path id="Path_4009" data-name="Path 4009" d="M1008.691,1145.4a6,6,0,1,1-2.958,7.947A5.995,5.995,0,0,1,1008.691,1145.4Z" transform="translate(-589.095 -646.411)" fill="#ffc401"/>
          <path id="Path_4010" data-name="Path 4010" d="M666.119,847.913a5.995,5.995,0,1,1-2.965,7.947A5.992,5.992,0,0,1,666.119,847.913Z" transform="translate(-473.762 -546.258)" fill="#ffc401"/>
          <path id="Path_4011" data-name="Path 4011" d="M381.421,393.983a6,6,0,1,1-2.958,7.947A5.995,5.995,0,0,1,381.421,393.983Z" transform="translate(-377.917 -393.437)" fill="#ffc401"/>
          <path id="Path_4012" data-name="Path 4012" d="M1076.6,848a6,6,0,1,1-2.958,7.947A5.995,5.995,0,0,1,1076.6,848Z" transform="translate(-611.957 -546.288)" fill="#ffc401"/>
          <g id="Group_2185" data-name="Group 2185" transform="translate(624.224 505.277)">
            <g id="Group_2183" data-name="Group 2183" transform="translate(0 4.105)">
              <path id="Path_4013" data-name="Path 4013" d="M1338.558,1162.721a2.355,2.355,0,0,1-1.161,3.118l-15.118,6.905a2.352,2.352,0,1,1-1.957-4.278l15.111-6.905A2.349,2.349,0,0,1,1338.558,1162.721Z" transform="translate(-1318.95 -1161.344)" fill="#ffc401"/>
            </g>
            <g id="Group_2184" data-name="Group 2184" transform="translate(4.106)">
              <path id="Path_4014" data-name="Path 4014" d="M1329.631,1156.532l6.905,15.118a2.352,2.352,0,0,1-4.279,1.957l-6.905-15.117a2.352,2.352,0,0,1,4.279-1.957Z" transform="translate(-1325.14 -1155.156)" fill="#ffc401"/>
            </g>
          </g>
          <g id="Group_2188" data-name="Group 2188" transform="translate(801.978 219.898)">
            <g id="Group_2186" data-name="Group 2186" transform="translate(0 4.103)">
              <path id="Path_4015" data-name="Path 4015" d="M1606.528,732.5a2.35,2.35,0,0,1-1.161,3.118l-15.118,6.905a2.352,2.352,0,1,1-1.957-4.279l15.118-6.905A2.351,2.351,0,0,1,1606.528,732.5Z" transform="translate(-1586.92 -731.126)" fill="#ffc401"/>
            </g>
            <g id="Group_2187" data-name="Group 2187" transform="translate(4.106)">
              <path id="Path_4016" data-name="Path 4016" d="M1597.6,726.313l6.905,15.117a2.352,2.352,0,1,1-4.278,1.957l-6.906-15.111a2.354,2.354,0,0,1,4.279-1.963Z" transform="translate(-1593.11 -724.94)" fill="#ffc401"/>
            </g>
          </g>
          <g id="Group_2191" data-name="Group 2191" transform="translate(616.758 49.76)">
            <g id="Group_2189" data-name="Group 2189" transform="translate(0 4.106)">
              <path id="Path_4017" data-name="Path 4017" d="M1327.307,476.02a2.364,2.364,0,0,1-1.161,3.124l-15.117,6.905a2.358,2.358,0,0,1-1.957-4.292l15.118-6.905A2.358,2.358,0,0,1,1327.307,476.02Z" transform="translate(-1307.696 -474.642)" fill="#ffc401"/>
            </g>
            <g id="Group_2190" data-name="Group 2190" transform="translate(4.102)">
              <path id="Path_4018" data-name="Path 4018" d="M1318.377,469.83l6.912,15.117A2.355,2.355,0,1,1,1321,486.9l-6.912-15.117a2.355,2.355,0,1,1,4.285-1.957Z" transform="translate(-1313.88 -468.452)" fill="#ffc401"/>
            </g>
          </g>
          <g id="Group_2194" data-name="Group 2194" transform="translate(232.639 41.23)">
            <g id="Group_2192" data-name="Group 2192" transform="translate(0 4.106)">
              <path id="Path_4019" data-name="Path 4019" d="M748.243,463.16a2.365,2.365,0,0,1-1.161,3.124l-15.117,6.905A2.36,2.36,0,0,1,730,468.9l15.117-6.905A2.365,2.365,0,0,1,748.243,463.16Z" transform="translate(-728.626 -461.782)" fill="#ffc401"/>
            </g>
            <g id="Group_2193" data-name="Group 2193" transform="translate(4.109)">
              <path id="Path_4020" data-name="Path 4020" d="M739.317,456.97l6.912,15.117a2.355,2.355,0,1,1-4.285,1.957l-6.912-15.117a2.355,2.355,0,1,1,4.285-1.957Z" transform="translate(-734.82 -455.592)" fill="#ffc401"/>
            </g>
          </g>
          <g id="Group_2197" data-name="Group 2197" transform="translate(903.851 24.804)">
            <g id="Group_2195" data-name="Group 2195" transform="translate(0 4.1)">
              <path id="Path_4021" data-name="Path 4021" d="M1760.113,438.39a2.364,2.364,0,0,1-1.161,3.124l-15.118,6.905a2.36,2.36,0,0,1-1.963-4.292l15.117-6.905A2.367,2.367,0,0,1,1760.113,438.39Z" transform="translate(-1740.496 -437.012)" fill="#ffc401"/>
            </g>
            <g id="Group_2196" data-name="Group 2196" transform="translate(4.102)">
              <path id="Path_4022" data-name="Path 4022" d="M1751.184,432.21l6.905,15.111a2.358,2.358,0,1,1-4.292,1.957l-6.905-15.111a2.358,2.358,0,1,1,4.292-1.957Z" transform="translate(-1746.68 -430.83)" fill="#ffc401"/>
            </g>
          </g>
          <g id="Group_2200" data-name="Group 2200" transform="translate(367.449 106.489)">
            <g id="Group_2198" data-name="Group 2198" transform="translate(0 4.106)">
              <path id="Path_4023" data-name="Path 4023" d="M951.467,561.54a2.364,2.364,0,0,1-1.161,3.124l-15.117,6.905a2.358,2.358,0,0,1-1.957-4.292l15.118-6.905A2.362,2.362,0,0,1,951.467,561.54Z" transform="translate(-931.856 -560.162)" fill="#ffc401"/>
            </g>
            <g id="Group_2199" data-name="Group 2199" transform="translate(4.102)">
              <path id="Path_4024" data-name="Path 4024" d="M942.537,555.35l6.912,15.117a2.355,2.355,0,1,1-4.285,1.957l-6.912-15.118a2.355,2.355,0,1,1,4.285-1.957Z" transform="translate(-938.04 -553.972)" fill="#ffc401"/>
            </g>
          </g>
        </g>
        <g id="Group_2220" data-name="Group 2220">
          <path id="Path_4025" data-name="Path 4025" d="M258.405,665.633a6,6,0,1,1-3.244-7.827A6,6,0,0,1,258.405,665.633Z" transform="translate(-246.87 -278.074)" fill="#ffc401"/>
          <path id="Path_4026" data-name="Path 4026" d="M786.127,93.88a5.994,5.994,0,1,1-3.237-7.834A5.989,5.989,0,0,1,786.127,93.88Z" transform="translate(-424.534 -85.584)" fill="#ffc401"/>
          <path id="Path_4027" data-name="Path 4027" d="M1239.573,240.17a6,6,0,1,1-3.244-7.834A6,6,0,0,1,1239.573,240.17Z" transform="translate(-577.19 -134.834)" fill="#ffc401"/>
          <path id="Path_4028" data-name="Path 4028" d="M1534.485,208.272a6,6,0,1,1-3.244-7.834A6,6,0,0,1,1534.485,208.272Z" transform="translate(-676.476 -124.097)" fill="#ffc401"/>
          <path id="Path_4029" data-name="Path 4029" d="M938.827,357.958a5.994,5.994,0,1,1-3.237-7.841A5.988,5.988,0,0,1,938.827,357.958Z" transform="translate(-475.942 -174.488)" fill="#ffc401"/>
          <g id="Group_2204" data-name="Group 2204" transform="translate(183.379 132.439)">
            <g id="Group_2202" data-name="Group 2202" transform="translate(4.491)">
              <path id="Path_4030" data-name="Path 4030" d="M531.542,305.12a2.357,2.357,0,0,1-1.274-3.078l6.368-15.35a2.355,2.355,0,1,1,4.352,1.8l-6.368,15.35A2.357,2.357,0,0,1,531.542,305.12Z" transform="translate(-530.089 -285.239)" fill="#ffc401"/>
            </g>
            <g id="Group_2203" data-name="Group 2203" transform="translate(0 4.491)">
              <path id="Path_4031" data-name="Path 4031" d="M540.122,302.908l-15.35-6.368a2.355,2.355,0,0,1,1.8-4.352l15.35,6.368a2.355,2.355,0,1,1-1.8,4.352Z" transform="translate(-523.319 -292.009)" fill="#ffc401"/>
            </g>
          </g>
          <g id="Group_2207" data-name="Group 2207" transform="translate(247.438 462.49)">
            <g id="Group_2205" data-name="Group 2205" transform="translate(4.491)">
              <path id="Path_4032" data-name="Path 4032" d="M628.112,802.68a2.357,2.357,0,0,1-1.274-3.078l6.368-15.35a2.355,2.355,0,0,1,4.352,1.8l-6.368,15.35A2.357,2.357,0,0,1,628.112,802.68Z" transform="translate(-626.659 -782.799)" fill="#ffc401"/>
            </g>
            <g id="Group_2206" data-name="Group 2206" transform="translate(0 4.491)">
              <path id="Path_4033" data-name="Path 4033" d="M636.692,800.468l-15.35-6.368a2.355,2.355,0,0,1,1.8-4.351l15.35,6.368a2.355,2.355,0,1,1-1.8,4.351Z" transform="translate(-619.889 -789.569)" fill="#ffc401"/>
            </g>
          </g>
          <g id="Group_2210" data-name="Group 2210" transform="translate(498.936 461.037)">
            <g id="Group_2208" data-name="Group 2208" transform="translate(4.484)">
              <path id="Path_4034" data-name="Path 4034" d="M1007.242,800.49a2.357,2.357,0,0,1-1.274-3.078l6.368-15.35a2.355,2.355,0,1,1,4.352,1.8l-6.368,15.35A2.357,2.357,0,0,1,1007.242,800.49Z" transform="translate(-1005.789 -780.609)" fill="#ffc401"/>
            </g>
            <g id="Group_2209" data-name="Group 2209" transform="translate(0 4.491)">
              <path id="Path_4035" data-name="Path 4035" d="M1015.832,798.278l-15.35-6.368a2.355,2.355,0,0,1,1.8-4.352l15.35,6.368a2.355,2.355,0,1,1-1.8,4.352Z" transform="translate(-999.029 -787.379)" fill="#ffc401"/>
            </g>
          </g>
          <g id="Group_2213" data-name="Group 2213" transform="translate(786.116 205.804)">
            <g id="Group_2211" data-name="Group 2211" transform="translate(4.484)">
              <path id="Path_4036" data-name="Path 4036" d="M1440.172,415.72a2.357,2.357,0,0,1-1.274-3.078l6.368-15.35a2.355,2.355,0,0,1,4.352,1.8l-6.368,15.35A2.357,2.357,0,0,1,1440.172,415.72Z" transform="translate(-1438.719 -395.839)" fill="#ffc401"/>
            </g>
            <g id="Group_2212" data-name="Group 2212" transform="translate(0 4.491)">
              <path id="Path_4037" data-name="Path 4037" d="M1448.762,413.508l-15.35-6.368a2.355,2.355,0,1,1,1.8-4.352l15.35,6.368a2.355,2.355,0,0,1-1.8,4.352Z" transform="translate(-1431.959 -402.609)" fill="#ffc401"/>
            </g>
          </g>
          <g id="Group_2216" data-name="Group 2216" transform="translate(305.613 674.758)">
            <g id="Group_2214" data-name="Group 2214" transform="translate(4.491)">
              <path id="Path_4038" data-name="Path 4038" d="M715.812,1122.68a2.357,2.357,0,0,1-1.274-3.078l6.368-15.35a2.355,2.355,0,1,1,4.352,1.8l-6.368,15.35A2.357,2.357,0,0,1,715.812,1122.68Z" transform="translate(-714.359 -1102.799)" fill="#ffc401"/>
            </g>
            <g id="Group_2215" data-name="Group 2215" transform="translate(0 4.491)">
              <path id="Path_4039" data-name="Path 4039" d="M724.392,1120.468l-15.35-6.368a2.355,2.355,0,0,1,1.8-4.352l15.35,6.368a2.355,2.355,0,0,1-1.8,4.352Z" transform="translate(-707.589 -1109.569)" fill="#ffc401"/>
            </g>
          </g>
          <g id="Group_2219" data-name="Group 2219" transform="translate(642.94 249.764)">
            <g id="Group_2217" data-name="Group 2217" transform="translate(4.491)">
              <path id="Path_4040" data-name="Path 4040" d="M1224.342,481.99a2.357,2.357,0,0,1-1.274-3.078l6.368-15.35a2.355,2.355,0,0,1,4.352,1.8l-6.368,15.35A2.357,2.357,0,0,1,1224.342,481.99Z" transform="translate(-1222.889 -462.109)" fill="#ffc401"/>
            </g>
            <g id="Group_2218" data-name="Group 2218" transform="translate(0 4.497)">
              <path id="Path_4041" data-name="Path 4041" d="M1232.922,479.788l-15.35-6.368a2.355,2.355,0,0,1,1.8-4.352l15.35,6.368a2.355,2.355,0,1,1-1.8,4.352Z" transform="translate(-1216.119 -468.889)" fill="#ffc401"/>
            </g>
          </g>
        </g>
      </g>
      <g id="Group_2226" data-name="Group 2226" transform="translate(64.291 155.079)">
        <g id="Group_2224" data-name="Group 2224" transform="translate(623.81 56.397)">
          <path id="Path_4046" data-name="Path 4046" d="M1490.55,503.3c42.281-7.118,115.507,19.376,93.173,75.216a67.465,67.465,0,0,1-38.374,38.056c-14.063,5.347-34.693,7.536-41.445-13.552-12.431-38.805,92.522-66.506,121.5,10.872,20.789,55.508-60.689,93-60.689,93" transform="translate(-1353.67 -437.308)" fill="none" stroke="#000" stroke-miterlimit="10" stroke-width="1"/>
          <g id="Group_2223" data-name="Group 2223">
            <path id="Path_4047" data-name="Path 4047" d="M1361.283,449.827c-.5-.259,31.2-4.677,31.2-4.677l23.854,39.767-32.172-17.837-31.316,17.307-68.636-4.219Z" transform="translate(-1284.203 -418.112)" fill="#01807b"/>
            <path id="Path_4048" data-name="Path 4048" d="M1284.2,491.3l132.13,4.75-32.172-17.837Z" transform="translate(-1284.2 -429.242)" fill="#2a636d"/>
            <path id="Path_4049" data-name="Path 4049" d="M1284.2,466.445l118.021-62.055-9.744,27.038L1284.2,466.445l99.958-13.088-15.781,46.931Z" transform="translate(-1284.2 -404.39)" fill="#05a19c"/>
          </g>
        </g>
        <g id="Group_2225" data-name="Group 2225" transform="translate(122.729)">
          <path id="Path_4050" data-name="Path 4050" d="M529.313,452.893c-.352-3.887-.524-7.834-.5-11.728l1.944.007c-.02,3.834.146,7.721.5,11.542Zm.119-23.456c.391-3.881.982-7.788,1.745-11.608l1.9.385c-.756,3.761-1.333,7.608-1.718,11.423Zm4.6-23c1.128-3.728,2.454-7.449,3.94-11.058l1.8.743c-1.459,3.549-2.766,7.21-3.874,10.879Zm8.922-21.685c.783-1.479,1.592-2.952,2.441-4.4,1.121-1.93,2.3-3.847,3.522-5.7l1.625,1.068c-1.194,1.824-2.361,3.715-3.463,5.618-.836,1.433-1.632,2.879-2.4,4.338Zm14.361-18.394-1.519-1.214c2.434-3.045,5.055-6,7.768-8.8l1.393,1.353C562.295,360.451,559.721,363.363,557.32,366.361Zm16.093-16.544-1.254-1.486c2.972-2.521,6.109-4.922,9.313-7.151l1.108,1.6C579.422,344.975,576.337,347.336,573.412,349.817Zm18.965-13.154-.949-1.7c3.4-1.9,6.932-3.662,10.507-5.234l.783,1.778C599.2,333.061,595.72,334.793,592.377,336.663Zm21.134-9.293-.61-1.844c3.7-1.221,7.509-2.282,11.31-3.144l.431,1.891C620.9,325.121,617.153,326.163,613.511,327.37Zm22.5-5.128-.245-1.924c3.867-.5,7.807-.816,11.7-.949l.066,1.944C643.7,321.44,639.819,321.751,636.011,322.242Zm123.01,65.173c-1.446-2.866-3.031-5.711-4.7-8.458l1.658-1.008c1.7,2.786,3.31,5.678,4.783,8.59Zm-99.939-65.929.126-1.937c3.887.245,7.814.683,11.668,1.3l-.305,1.917C666.777,322.156,662.91,321.732,659.082,321.486Zm88.748,47.906c-2.308-3.071-4.789-6.063-7.376-8.9l1.433-1.307c2.627,2.872,5.154,5.917,7.5,9.041Zm-65.962-44.245.491-1.877c3.774.988,7.542,2.169,11.2,3.516l-.67,1.824C689.291,327.284,685.583,326.123,681.868,325.148Zm50.381,27.21c-2.846-2.567-5.857-5.028-8.948-7.317l1.154-1.559c3.144,2.328,6.2,4.829,9.094,7.436Zm-28.723-19.243.842-1.751c2.892,1.386,5.725,2.859,8.55,4.531.6.345,1.187.7,1.778,1.055l-1,1.665c-.59-.358-1.161-.71-1.784-1.055C709.184,335.967,706.365,334.474,703.526,333.114Z" transform="translate(-528.808 -319.37)" fill="#7e789a"/>
          <path id="Path_4051" data-name="Path 4051" d="M864.21,415.292l.71-1.811,7.8,3.065,1.8-8.146,1.9.418-2.3,10.368Z" transform="translate(-641.725 -349.343)" fill="#7e789a"/>
        </g>
      </g>
    </g>
    <g id="Group_2245" data-name="Group 2245" transform="translate(300.165 757.34)">
      <g id="Group_2239" data-name="Group 2239" transform="translate(92.175)">
        <g id="Group_2229" data-name="Group 2229" transform="translate(0 3.927)">
          <path id="Path_4052" data-name="Path 4052" d="M1155.881,607.59H579.605a26.272,26.272,0,0,0-26.2,26.2v390.3a26.272,26.272,0,0,0,26.2,26.2h576.275a26.272,26.272,0,0,0,26.2-26.2v-390.3A26.272,26.272,0,0,0,1155.881,607.59Z" transform="translate(-553.41 -607.59)" fill="#212121"/>
          <rect id="Rectangle_630" data-name="Rectangle 630" width="550.08" height="362.793" transform="translate(39.296 39.296)" fill="#fff"/>
          <rect id="Rectangle_631" data-name="Rectangle 631" width="239.678" height="70.725" transform="translate(193.841 442.686)" fill="#d9d6d6"/>
          <rect id="Rectangle_632" data-name="Rectangle 632" width="385.055" height="17.028" transform="translate(121.809 513.411)" fill="#212121"/>
          <rect id="Rectangle_633" data-name="Rectangle 633" width="239.678" height="19.648" transform="translate(193.841 442.686)" fill="#989898"/>
        </g>
        <g id="Group_2238" data-name="Group 2238" transform="translate(65.491)">
          <g id="Group_2234" data-name="Group 2234">
            <g id="Group_2233" data-name="Group 2233">
              <path id="Path_4055" data-name="Path 4055" d="M751.674,654.06H652.14l20.955-52.391h90.367Z" transform="translate(-652.14 -601.67)" fill="#05a19c"/>
              <path id="Path_4056" data-name="Path 4056" d="M901.731,654.06H802.19l11.787-52.391h91.68Z" transform="translate(-702.656 -601.67)" fill="#ffc401"/>
              <path id="Path_4057" data-name="Path 4057" d="M1051.791,654.06H952.25l3.927-52.391h91.68Z" transform="translate(-753.175 -601.67)" fill="#05a19c"/>
              <path id="Path_4058" data-name="Path 4058" d="M1199.848,654.06h-99.534l-3.934-52.391h91.68Z" transform="translate(-801.698 -601.67)" fill="#ffc401"/>
              <path id="Path_4059" data-name="Path 4059" d="M1345.918,654.06h-99.541L1234.59,601.67h90.373Z" transform="translate(-848.228 -601.67)" fill="#05a19c"/>
              <g id="Group_2232" data-name="Group 2232" transform="translate(0 52.39)">
                <g id="Group_2230" data-name="Group 2230" transform="translate(99.534)">
                  <path id="Path_4060" data-name="Path 4060" d="M802.19,702.912a49.77,49.77,0,1,0,99.541,0V680.65H802.19v22.262Z" transform="translate(-802.19 -680.65)" fill="#f2bb06"/>
                  <path id="Path_4061" data-name="Path 4061" d="M1102.31,680.65v22.262a49.77,49.77,0,1,0,99.541,0V680.65Z" transform="translate(-903.229 -680.65)" fill="#f2bb06"/>
                </g>
                <g id="Group_2231" data-name="Group 2231">
                  <path id="Path_4062" data-name="Path 4062" d="M652.14,702.912a49.77,49.77,0,0,0,99.541,0V680.65H652.14Z" transform="translate(-652.14 -680.65)" fill="#01807b"/>
                  <path id="Path_4063" data-name="Path 4063" d="M952.25,702.912a49.77,49.77,0,0,0,99.541,0V680.65H952.25v22.262Z" transform="translate(-753.175 -680.65)" fill="#01807b"/>
                  <path id="Path_4064" data-name="Path 4064" d="M1252.36,680.65v22.262a49.77,49.77,0,1,0,99.541,0V680.65Z" transform="translate(-854.211 -680.65)" fill="#01807b"/>
                </g>
              </g>
            </g>
          </g>
          <g id="Group_2237" data-name="Group 2237" transform="translate(129.663 145.377)">
            <g id="Group_2235" data-name="Group 2235">
              <path id="Path_4065" data-name="Path 4065" d="M1028.57,820.83V870.6h-5.24V820.83Z" transform="translate(-906.768 -820.83)" fill="#05a19c"/>
              <path id="Path_4066" data-name="Path 4066" d="M1028.57,1109.1v49.77h-5.24V1109.1h5.24Z" transform="translate(-906.768 -917.879)" fill="#05a19c"/>
              <path id="Path_4067" data-name="Path 4067" d="M1137.65,874.117l-35.363,35.363-3.927-3.927,35.363-35.363Z" transform="translate(-932.028 -837.448)" fill="#05a19c"/>
              <path id="Path_4068" data-name="Path 4068" d="M934.28,1079.467l-35.363,35.363-3.927-3.927,35.363-35.363C931.659,1076.847,932.973,1078.153,934.28,1079.467Z" transform="translate(-863.561 -906.581)" fill="#05a19c"/>
              <path id="Path_4069" data-name="Path 4069" d="M1184.327,998.53v5.24H1135.87v-5.24Z" transform="translate(-944.656 -880.655)" fill="#05a19c"/>
              <path id="Path_4070" data-name="Path 4070" d="M896.067,1001.15v2.62H847.61v-5.24h48.457Z" transform="translate(-847.61 -880.655)" fill="#05a19c"/>
              <path id="Path_4071" data-name="Path 4071" d="M1138.316,1109.589l-3.927,3.927-34.049-34.049,3.927-3.927Z" transform="translate(-932.694 -906.581)" fill="#05a19c"/>
              <path id="Path_4072" data-name="Path 4072" d="M934.28,905.553l-3.927,3.927L894.99,874.117l3.927-3.927Z" transform="translate(-863.561 -837.448)" fill="#05a19c"/>
              <path id="Path_4073" data-name="Path 4073" d="M981.118,887.822c-1.307,0-2.62,1.307-5.24,2.62l-11.787-27.5,5.24-2.62Z" transform="translate(-886.824 -834.125)" fill="#05a19c"/>
              <path id="Path_4074" data-name="Path 4074" d="M1079.838,1128.7l-5.24,2.62-11.787-27.5c1.307,0,2.62-1.307,5.24-2.62Z" transform="translate(-920.059 -915.22)" fill="#05a19c"/>
              <path id="Path_4075" data-name="Path 4075" d="M915.242,951.088c-1.307,1.307-1.307,2.62-2.62,5.24l-27.5-11.787,2.62-5.24Z" transform="translate(-860.238 -860.714)" fill="#05a19c"/>
              <path id="Path_4076" data-name="Path 4076" d="M1154.152,1051.778l-2.62,5.24-27.5-11.788c1.307-1.307,1.307-2.62,2.62-5.24Z" transform="translate(-940.67 -894.613)" fill="#05a19c"/>
              <path id="Path_4077" data-name="Path 4077" d="M915.242,1043.26l-27.5,11.788-2.62-5.24,27.5-11.788C913.935,1040.64,913.935,1041.947,915.242,1043.26Z" transform="translate(-860.238 -893.949)" fill="#05a19c"/>
              <path id="Path_4078" data-name="Path 4078" d="M1154.152,944.54l-27.5,11.787c0-1.307-1.307-2.62-2.62-5.24l27.5-11.788Z" transform="translate(-940.67 -860.714)" fill="#05a19c"/>
              <path id="Path_4079" data-name="Path 4079" d="M981.118,1101.85l-11.788,27.5-5.24-2.62,11.787-27.5C978.5,1100.537,979.811,1100.537,981.118,1101.85Z" transform="translate(-886.824 -914.557)" fill="#05a19c"/>
              <path id="Path_4080" data-name="Path 4080" d="M1080.5,860.96l-10.481,27.5c-1.307-1.307-2.62-1.307-5.24-2.62l11.787-27.5Z" transform="translate(-920.723 -833.458)" fill="#05a19c"/>
            </g>
            <path id="Path_4081" data-name="Path 4081" d="M1167.46,976.81l24.888,89.06,22.262-22.262,20.955,22.262,19.648-19.641-20.955-22.268,20.955-22.262Z" transform="translate(-955.291 -873.342)" fill="#f2f2f2"/>
            <g id="Group_2236" data-name="Group 2236" transform="translate(63.216 79.568)">
              <path id="Path_4082" data-name="Path 4082" d="M1047.934,1011.918h-71.66L966.29,959.76H1056.9v43.19A8.983,8.983,0,0,1,1047.934,1011.918Zm-68.689-3.6h68.682a5.376,5.376,0,0,0,5.373-5.373V963.355H970.641Z" transform="translate(-950.781 -947.17)" fill="#212121"/>
              <path id="Path_4083" data-name="Path 4083" d="M997.083,1065.4a10.793,10.793,0,1,1,10.792-10.793A10.806,10.806,0,0,1,997.083,1065.4Zm0-17.99a7.2,7.2,0,1,0,7.2,7.2A7.2,7.2,0,0,0,997.083,1047.405Z" transform="translate(-957.514 -975.466)" fill="#212121"/>
              <path id="Path_4084" data-name="Path 4084" d="M1059.453,1065.4a10.793,10.793,0,1,1,10.792-10.793A10.806,10.806,0,0,1,1059.453,1065.4Zm0-17.99a7.2,7.2,0,1,0,7.2,7.2A7.2,7.2,0,0,0,1059.453,1047.405Z" transform="translate(-978.512 -975.466)" fill="#212121"/>
              <path id="Path_4085" data-name="Path 4085" d="M1086.472,1058.255H1077.3a1.8,1.8,0,0,1,0-3.6h9.174a1.8,1.8,0,0,1,0,3.6Z" transform="translate(-987.548 -979.119)" fill="#212121"/>
              <path id="Path_4086" data-name="Path 4086" d="M1038.675,1058.255h-23.748a1.8,1.8,0,0,1,0-3.6h23.741a1.8,1.8,0,0,1,.007,3.6Z" transform="translate(-966.55 -979.119)" fill="#212121"/>
              <path id="Path_4087" data-name="Path 4087" d="M965.16,958.79a1.8,1.8,0,0,1-1.771-1.506l-1.247-7.489h-3.874a1.8,1.8,0,0,1,0-3.6h6.919l1.751,10.494a1.8,1.8,0,0,1-1.479,2.07A1.56,1.56,0,0,1,965.16,958.79Z" transform="translate(-947.475 -942.605)" fill="#212121"/>
              <path id="Path_4088" data-name="Path 4088" d="M1058.474,975.945h-16.186V959.76H1022.5v16.185h-12.59V959.76H990.124v16.185H970.96l3.788,19.787h15.376v16.185l19.787-.007V995.733h12.59v16.172l19.787-.007V995.733h16.186Zm-32.378-12.59h12.59v12.59H1026.1Zm12.59,16.185v12.59H1026.1v-12.59Zm-44.968-16.185h12.59v12.59h-12.59Zm12.6,16.185v12.59h-12.59v-12.59Zm-28.6,12.59-2.408-12.59h14.812v12.59Zm28.6,16.179-12.59.007v-12.59h12.59Zm3.6-16.179v-12.59h12.59v12.59Zm28.776,16.172-12.59.007V995.733h12.59Zm16.192-16.172h-12.59v-12.59h12.59Z" transform="translate(-952.353 -947.17)" fill="#212121"/>
              <path id="Path_4089" data-name="Path 4089" d="M981.885,1050.953h-5.579a9.017,9.017,0,0,1-8.948-9.91,9.262,9.262,0,0,1,9.287-8.073,1.8,1.8,0,0,1,0,3.6,5.638,5.638,0,0,0-5.7,4.836,5.335,5.335,0,0,0,1.366,4.166,5.417,5.417,0,0,0,4,1.784h5.579a1.8,1.8,0,0,1,0,3.6Z" transform="translate(-951.126 -971.817)" fill="#212121"/>
              <circle id="Ellipse_63" data-name="Ellipse 63" cx="5.393" cy="5.393" r="5.393" fill="#ffc401"/>
            </g>
          </g>
        </g>
      </g>
      <g id="Group_2242" data-name="Group 2242" transform="translate(0 253.72)">
        <g id="Group_2240" data-name="Group 2240" transform="translate(90.517 135.985)">
          <path id="Path_4090" data-name="Path 4090" d="M606.027,1290.213l-3.675-12.862h84.516v-64.3H585.815L580.3,1189.16H550.91v11.025h22.049l25.724,101.046h91.866v-11.025H606.027Zm69.816-67.979v42.255H600.514l-11.025-42.255Z" transform="translate(-550.91 -1189.16)" fill="#989898"/>
          <circle id="Ellipse_64" data-name="Ellipse 64" cx="12.862" cy="12.862" r="12.862" transform="translate(57.215 143.341) rotate(-82.525)" fill="#989898"/>
          <circle id="Ellipse_65" data-name="Ellipse 65" cx="12.862" cy="12.862" r="12.862" transform="translate(103.986 141.908) rotate(-76.827)" fill="#989898"/>
        </g>
        <g id="Group_2241" data-name="Group 2241">
          <path id="Path_4091" data-name="Path 4091" d="M520.848,1377.61s.391,10.069-.133,12.378c-.411,1.818-6.056,2-6.74,1.035s-1.565-12.65-1.565-12.65" transform="translate(-447.432 -1116.619)" fill="#ffcfad"/>
          <path id="Path_4092" data-name="Path 4092" d="M512.345,1398.118c0,1.28-.637,5.094.929,5.094h16.471c4.212,0,2.534-1.572,2.64-2.308.438-3.025-10.2-7.091-11.608-7.084a.581.581,0,0,0-.179.04,2.038,2.038,0,0,0-1.035.916,3.87,3.87,0,0,1-4.909,1.6,3.324,3.324,0,0,1-.988-.7A2.437,2.437,0,0,0,512.345,1398.118Z" transform="translate(-447.367 -1122.076)" fill="#ffc401"/>
          <path id="Path_4093" data-name="Path 4093" d="M428.786,1378.8s-1.771,4.776-2.554,6.368-6.056-.372-6.328-1.466,4.02-9.3,4.02-9.3" transform="translate(-416.284 -1115.538)" fill="#ffcfad"/>
          <path id="Path_4094" data-name="Path 4094" d="M415.645,1389.014c-1.658,3.323-1.26,4.882-.736,5.194l4.411,2.653a.225.225,0,0,1,.033.02c.146.073,2.023,1.028,3.463,1.917a19.56,19.56,0,0,0,4.909,2.063c4.517,1.042,4.962-.69,5.32-1.313,1.453-2.521-6.68-10.958-7.953-11.469a.42.42,0,0,0-.179-.027,1.937,1.937,0,0,0-1.287.491,3.293,3.293,0,0,1-3.834.458,3.935,3.935,0,0,1-1.638-1.791A3.335,3.335,0,0,0,415.645,1389.014Z" transform="translate(-414.454 -1119.85)" fill="#ffc401"/>
          <path id="Path_4095" data-name="Path 4095" d="M423.465,1304.545a.687.687,0,0,0,.239.816c4.02,2.885,6.839,3.171,6.839,3.171s.013-.02.02-.033c.935-1.473,30.235-47.747,35.86-56.722.113-.192.226-.378.332-.537.02-.033.06-.046.06-.093a10.929,10.929,0,0,0,.915-1.791c.046-.113.1-.225.139-.318a4.986,4.986,0,0,0,.3-.955c.046-.192.08-.378.113-.584,0-.02.02-.06.02-.093.789-3.993,2.66-10.832,4.929-18.806,1.287-4.517,2.693-9.386,4.093-14.3,1.121-3.854,2.222-7.688,3.237-11.323l8.179-31.814a.68.68,0,0,0-.617-.849l-6.56-.438c-8.332-.57-18.494-4.763-20.663-5.691a.685.685,0,0,0-.756.152c-9.552,9.552-7.735,21.519-6.574,27.522,0,.013.013.02.013.046a32.378,32.378,0,0,1,.471,8.358c-.663,8.617-1.937,24.709-2.063,35.9v.026c-.02.312-.484,6.978-6.846,14.879a34.456,34.456,0,0,0-3.39,4.278C432.254,1269.686,428.745,1291.981,423.465,1304.545Z" transform="translate(-417.47 -1044.747)" fill="#d9d6d6"/>
          <path id="Path_4096" data-name="Path 4096" d="M482.623,1266.368c.113-.192.226-.378.332-.537.02-.033.06-.046.06-.093a10.929,10.929,0,0,0,.915-1.791c.046-.113.1-.226.139-.318a4.986,4.986,0,0,0,.3-.955c.046-.192.08-.378.113-.584,0-.02.02-.06.02-.093.783-3.953,2.627-10.713,4.862-18.593a.712.712,0,0,0-.013-.425l-13.081-35.084a.682.682,0,0,0-.637-.444H472.2a.679.679,0,0,0-.65.889c1.161,3.529,5.479,16.65,7.4,23.064,2.222,7.416,2.839,19.038,3.031,23.29C482.418,1264.039,477,1275.343,482.623,1266.368Z" transform="translate(-433.665 -1059.332)" fill="#989898"/>
          <path id="Path_4097" data-name="Path 4097" d="M475.679,1202.049c-.982-.458-4.929-2.68-7.429-9.731a.7.7,0,0,1,.272-.816c3.808-2.415,30.354-19.011,36.709-16.988,1.95.63,5.638,62.38,5.612,63.694-.013.65.027,7.343,0,8.119-.418,10.521-4.106,62.878-4.517,68.682a.67.67,0,0,1-.557.617,44.563,44.563,0,0,1-7.21.478c-.259-.225-.425-.365-.683-.59-1.658-14.05-8.9-40.5-5.254-57.067.046-.206.066-.4.106-.61.02-.332.06-.75.133-1.313.882-7.33.909-5.194-1.1-14.434a.583.583,0,0,0-.033-.1c-4.484-11.549-12.935-32.61-15.721-39.582A.583.583,0,0,0,475.679,1202.049Z" transform="translate(-432.551 -1048.187)" fill="#d9d6d6"/>
          <path id="Path_4098" data-name="Path 4098" d="M462.835,1087.77c.033,3.522.245,7.031.517,10.408.371,4.139.876,8.086,1.4,11.661,1.234,8.524,2.6,14.859,2.468,16.385a8.323,8.323,0,0,1-.862,2.726,1.815,1.815,0,0,0,.4,2.109c.57.245,1.154.471,1.751.7,14.872,5.439,36.762.809,36.762.809.909.066,1.818-.65,1.459-2.368-.279-1.3-1.638-7.615-1.592-8.948.046-1.234-.312-5.426-1.008-11.217-.245-2.063-.537-4.305-.876-6.706-.279-2.03-.6-4.172-.942-6.381-.4-2.567-.75-5.081-1.088-7.536-.371-2.779-.73-5.473-1.121-8.132a106.928,106.928,0,0,0-2.759-13.28,55.154,55.154,0,0,0-4.046-10.341c-4.139-7.973-14.176-9.22-15.914-9.386a.66.66,0,0,0-.458.113c-7.482,5-11.3,13.6-12.988,23.349A89.626,89.626,0,0,0,462.835,1087.77Z" transform="translate(-430.739 -1005.741)" fill="#05a19c"/>
          <path id="Path_4099" data-name="Path 4099" d="M488.861,1078.179a31.459,31.459,0,0,1-.776-5.91c.65-6.043,7.031-4.935,8.186-4.205,1.333.809,4.677,3.423,8.424,14.547,2.58,7.662,4.126,13.572,5.081,17.26.312,1.1.73,2.434,1.075,3.556l-7.681,11.031C496.848,1110.5,490.931,1089.018,488.861,1078.179Z" transform="translate(-439.239 -1012.21)" fill="#ffcfad"/>
          <path id="Path_4100" data-name="Path 4100" d="M519.94,1129.16c3.37,4.9,17.207,23.456,22.766,30.354l-6.945,4.5c-.179-.292-9.214-10.375-15.184-16.444-6.182-6.3-11.88-12.9-14.189-16.962-.265-.471-3.642-5.884-3.688-6.514l12.312-6.189C514.832,1118.169,517.5,1125.611,519.94,1129.16Z" transform="translate(-444.163 -1029.188)" fill="#ffcfad"/>
          <path id="Path_4101" data-name="Path 4101" d="M557.505,1178.12s2.713,3.695,4.5,4.623,4.431,2.872,6.229,3.615,5.333,9.267,4.219,10.315-7.973,2.839-12.093.816c-3.934-1.93-2.468-4.571-3.429-6.162a84.246,84.246,0,0,0-6.355-8.657l1.353-2.68Z" transform="translate(-460.282 -1049.458)" fill="#ffcfad"/>
          <path id="Path_4102" data-name="Path 4102" d="M483.86,1031.777a5.929,5.929,0,0,0,1.114,1.446l.033.033c2.667,2.587,7.416,3.065,9.446,3.151a.671.671,0,0,0,.69-.823,9.9,9.9,0,0,1,.491-4.743.685.685,0,0,1,.9-.431c3.443,1.28,6.713,1.9,8.789,1.088a.792.792,0,0,0,.285-.2,23.525,23.525,0,0,0,3.735-5.552.659.659,0,0,1,.683-.371c.962.133,2.335.172,2.633-.637.378-1.035-.332-4.677-.617-6.043.013-.046.033-.1.046-.153a10.749,10.749,0,0,1-.033-3.463c.086-.332.8-.716.982-.982,1.506-2.355,2.892-7.715,3.085-8.836.046-.259-8.365-3.768-8.836-3.861-.551-.119-14.089-2.614-14.547-2.428s-7.317,8.232-8.212,16.995a12.558,12.558,0,0,0,1.446,7.761h-.013S486.089,1029.88,483.86,1031.777Z" transform="translate(-437.82 -989.144)" fill="#ffcfad"/>
          <path id="Path_4103" data-name="Path 4103" d="M505.27,1081.488c-2.408,2.919-11.993,6.169-15.986,6.441-2.222-5.784-9.506-24.51-1.406-27.761C496.819,1056.586,502.192,1070.47,505.27,1081.488Z" transform="translate(-437.917 -1009.555)" fill="#05a19c"/>
          <path id="Path_4104" data-name="Path 4104" d="M482.157,1018.746s-10.594-2.594-9.526-12.749,4.716-16.8,8.166-16.8,16.464-11.33,29.3,0,11.409,20.709,11.409,20.709-4.438-11.33-14.209-10.156-13.068,1.7-13.068,1.7l-3.237,8.451s-6.421-10.341-8.146-6.541.624,9.393,2.965,9.333-.391,6.05-.391,6.05Z" transform="translate(-434.014 -984.159)" fill="#212121"/>
          <path id="Path_4105" data-name="Path 4105" d="M490.319,1094.9s-5.068-11.608-5.512-14.169-1.453,6.76,0,9.1S490.319,1094.9,490.319,1094.9Z" transform="translate(-437.885 -1016.521)" fill="#01807b"/>
        </g>
      </g>
      <g id="Group_2243" data-name="Group 2243" transform="translate(605.579 303.889)">
        <path id="XMLID_139_" d="M1469.884,1297.7c-57.485,0-104.084-53.26-104.084-118.956s46.6-118.957,104.084-118.957,104.085,53.26,104.085,118.957-46.6,118.956-104.085,118.956" transform="translate(-1340.314 -1059.79)" fill="#ffc401"/>
        <path id="XMLID_138_" d="M1352.865,1178.747c0-60.762,39.873-110.851,91.342-118.035a92.051,92.051,0,0,0-12.743-.922c-57.485,0-104.084,53.259-104.084,118.956s46.6,118.957,104.084,118.957a93.025,93.025,0,0,0,12.743-.915c-51.475-7.191-91.342-57.279-91.342-118.041" transform="translate(-1327.38 -1059.79)" fill="#f2bb06"/>
        <g id="Group_2246" data-name="Group 2246">
          <path id="XMLID_137_" d="M1352.859,1245.53H1327.38q.119,4.289.5,8.5h25.505q-.408-4.2-.531-8.5" transform="translate(-1327.38 -1122.321)" fill="#fbdb7b"/>
          <path id="XMLID_136_" d="M1353.925,1213.51h-25.472c-.352,2.8-.6,5.638-.783,8.5h25.492c.172-2.859.411-5.691.763-8.5" transform="translate(-1327.478 -1111.542)" fill="#fbdb7b"/>
          <path id="XMLID_135_" d="M1356.372,1277.55H1330.88q.826,4.308,1.917,8.5h25.486c-.73-2.786-1.36-5.618-1.91-8.5" transform="translate(-1328.558 -1133.101)" fill="#fbdb7b"/>
          <path id="XMLID_134_" d="M1365.325,1309.58H1339.82c1.081,2.9,2.282,5.725,3.555,8.5h25.5q-1.92-4.149-3.549-8.5" transform="translate(-1331.568 -1143.885)" fill="#fbdb7b"/>
          <path id="XMLID_133_" d="M1359.878,1181.49h-25.466c-.823,2.793-1.6,5.618-2.242,8.5h25.519c.644-2.872,1.367-5.711,2.189-8.5" transform="translate(-1328.993 -1100.762)" fill="#fbdb7b"/>
          <path id="XMLID_132_" d="M1371.769,1149.47h-25.492c-1.4,2.766-2.72,5.592-3.927,8.5h25.505q1.811-4.358,3.914-8.5" transform="translate(-1332.42 -1089.982)" fill="#fbdb7b"/>
          <path id="XMLID_131_" d="M1396.391,1111.04h-25.519q-3.622,4.05-6.892,8.5h25.512q3.264-4.438,6.9-8.5" transform="translate(-1339.702 -1077.044)" fill="#fbdb7b"/>
          <path id="XMLID_130_" d="M1432.7,1079.01h-25.552a103.109,103.109,0,0,0-12.471,8.5h25.532a103.288,103.288,0,0,1,12.491-8.5" transform="translate(-1350.037 -1066.261)" fill="#fbdb7b"/>
          <path id="XMLID_129_" d="M1385,1348.01h-25.5c1.977,2.945,4.053,5.778,6.255,8.5h25.519q-3.3-4.08-6.275-8.5" transform="translate(-1338.194 -1156.823)" fill="#fbdb7b"/>
          <path id="XMLID_128_" d="M1387.15,1380.03a104.847,104.847,0,0,0,10.726,8.5h25.552a104.788,104.788,0,0,1-10.8-8.5Z" transform="translate(-1347.502 -1167.602)" fill="#fbdb7b"/>
        </g>
        <path id="XMLID_111_" d="M1480.3,1286.253h-.358a76.541,76.541,0,0,1-8.9-.524,4.249,4.249,0,1,1,1.008-8.438,66.417,66.417,0,0,0,7.887.464,4.4,4.4,0,0,1,4.424,4.245,4.084,4.084,0,0,1-4.06,4.252m24.709-4.577a4.25,4.25,0,0,1-1.506-8.225,71.182,71.182,0,0,0,7.25-3.217,4.247,4.247,0,1,1,3.88,7.555,77.779,77.779,0,0,1-8.133,3.609,4.072,4.072,0,0,1-1.493.279m-57.5-3.244a4.127,4.127,0,0,1-1.917-.464,80.818,80.818,0,0,1-7.688-4.451,4.244,4.244,0,1,1,4.657-7.1,72.461,72.461,0,0,0,6.872,3.98,4.246,4.246,0,0,1-1.924,8.033m85.438-15.117a4.245,4.245,0,0,1-3.025-7.23c1.857-1.871,3.648-3.88,5.347-5.963a4.249,4.249,0,0,1,6.594,5.36c-1.871,2.3-3.854,4.511-5.89,6.574a4.244,4.244,0,0,1-3.025,1.26m-111.395-5.977a4.225,4.225,0,0,1-3.283-1.552c-1.838-2.229-3.6-4.61-5.26-7.071a4.247,4.247,0,1,1,7.038-4.756c1.512,2.242,3.124,4.411,4.8,6.441a4.249,4.249,0,0,1-3.29,6.939m130.054-21.83a4.307,4.307,0,0,1-1.7-.352,4.253,4.253,0,0,1-2.2-5.592c1.068-2.448,2.036-4.982,2.9-7.516a4.248,4.248,0,1,1,8.053,2.706c-.942,2.773-2,5.526-3.157,8.2a4.26,4.26,0,0,1-3.9,2.554M1405.365,1228a4.265,4.265,0,0,1-4.026-2.879c-.942-2.753-1.778-5.592-2.488-8.418a4.252,4.252,0,0,1,8.252-2.056c.643,2.594,1.413,5.2,2.275,7.734a4.241,4.241,0,0,1-4.013,5.618m154.286-25.054c-.1,0-.219-.007-.332-.013a4.241,4.241,0,0,1-3.907-4.564c.206-2.561.3-5.187.3-7.807a4.372,4.372,0,0,1,4.245-4.391,4.13,4.13,0,0,1,4.245,4.113v.279c0,2.839-.106,5.691-.325,8.464a4.244,4.244,0,0,1-4.225,3.92m-159.725-8.086a4.2,4.2,0,0,1-4.245-4.2v-.1c0-2.866.119-5.778.345-8.65a4.248,4.248,0,0,1,8.471.663c-.206,2.653-.318,5.333-.318,7.98a4.289,4.289,0,0,1-4.252,4.305m156.926-25.34a4.251,4.251,0,0,1-4.119-3.21c-.643-2.594-1.426-5.194-2.3-7.728a4.253,4.253,0,0,1,8.046-2.76c.942,2.76,1.784,5.592,2.494,8.418a4.246,4.246,0,0,1-4.126,5.28M1405.3,1161.8a4.268,4.268,0,0,1-4.02-5.618c.942-2.779,2.01-5.539,3.177-8.192a4.248,4.248,0,0,1,7.781,3.41c-1.068,2.441-2.05,4.968-2.919,7.509a4.248,4.248,0,0,1-4.02,2.892m137.955-22.918a4.244,4.244,0,0,1-3.522-1.864c-1.5-2.209-3.111-4.371-4.8-6.428a4.251,4.251,0,0,1,6.567-5.4c1.857,2.262,3.628,4.637,5.273,7.058a4.252,4.252,0,0,1-3.516,6.633m-121.829-6.454a4.241,4.241,0,0,1-3.284-6.932c1.864-2.289,3.854-4.5,5.9-6.561a4.25,4.25,0,1,1,6.036,5.983c-1.857,1.871-3.655,3.88-5.36,5.95a4.237,4.237,0,0,1-3.3,1.559m98.068-17.121a4.283,4.283,0,0,1-2.322-.69,71.267,71.267,0,0,0-6.879-3.967,4.248,4.248,0,0,1,3.821-7.589,79.717,79.717,0,0,1,7.7,4.438,4.248,4.248,0,0,1-2.322,7.807m-72.151-4.033a4.249,4.249,0,0,1-1.944-8.033,76.888,76.888,0,0,1,8.146-3.589,4.248,4.248,0,1,1,2.985,7.953,68.884,68.884,0,0,0-7.257,3.2,4.207,4.207,0,0,1-1.93.471m40.815-7.436a4.133,4.133,0,0,1-.491-.027,67,67,0,0,0-7.728-.444,4.325,4.325,0,0,1-4.338-4.245,4.163,4.163,0,0,1,4.152-4.245h.186a76.365,76.365,0,0,1,8.7.5,4.243,4.243,0,0,1-.484,8.458" transform="translate(-1350.374 -1071.603)" fill="#fbdb7b"/>
        <path id="XMLID_105_" d="M1504.119,1264.867a3.928,3.928,0,0,1-4.192-4.192v-5.97c-8.716-1.2-14.1-2.633-21.439-8.517v5.592a4.192,4.192,0,1,1-8.385,0v-26.208a4.192,4.192,0,0,1,8.385,0v9.532c4.484,4.869,7.834,6.647,15.356,9.519a32.8,32.8,0,0,0,6.083,1.612V1205.6c-8.132-2.262-14.295-4.411-18.335-6.408a28.333,28.333,0,0,1-10.421-8.292,19.259,19.259,0,0,1-3.8-11.754c0-8.312,2.786-15.058,8.285-20.059,5.227-4.756,13.393-7.25,24.271-7.436v-5.473a4.189,4.189,0,1,1,8.378,0v6.069a48.72,48.72,0,0,1,19.668,7.927c1.386.995.736,1.871,1.7,2.627l-.007-5.585a4.192,4.192,0,1,1,8.385,0v26.209a4.192,4.192,0,0,1-8.385,0v-8.842c-4.73-5.234-8.855-9.346-15.887-12.225a27.2,27.2,0,0,0-5.486-1.685v37.963q1.96.527,6.481,1.7a75.812,75.812,0,0,1,14.341,5.254,28.3,28.3,0,0,1,10.414,8.292,19.932,19.932,0,0,1,3.8,12.166c0,8.9-3.177,16.079-9.446,21.346-6,5.048-14.607,7.675-25.592,7.807v5.473a3.919,3.919,0,0,1-4.179,4.186m-16.537-18.3c.7.338,1.406.657,2.116.962-.716-.312-1.426-.637-2.116-.962m20.723-38.686v38.938c8.6-.126,15.257-2.03,19.787-5.665a17.3,17.3,0,0,0,6.859-14.275,11.914,11.914,0,0,0-2.879-8.007,21.173,21.173,0,0,0-7.522-5.638,67.443,67.443,0,0,0-9.559-3.483Zm24.384,34.872a24.158,24.158,0,0,1-1.93,1.711,23.67,23.67,0,0,1-3.31,2.229,22.943,22.943,0,0,0,3.715-2.547c.537-.451,1.041-.916,1.526-1.393m-32.769-82.712c-8.159.172-14.262,1.937-18.149,5.267a15.86,15.86,0,0,0-6.016,12.6,11.891,11.891,0,0,0,2.879,8.007,20.976,20.976,0,0,0,7.522,5.645,65.475,65.475,0,0,0,8.955,3.343c1.745.5,3.35.968,4.809,1.4V1160.04Z" transform="translate(-1374.509 -1087.464)" fill="#fbdb7b"/>
      </g>
      <g id="Group_2244" data-name="Group 2244" transform="translate(438.57 206.71)">
        <path id="Path_4106" data-name="Path 4106" d="M1508.746,993.342a70.813,70.813,0,0,1-6.514,14.1c5.745-.093,58.579-1.91,94.333-37.976,0,0-35.489,25.89-71.389,29.439,0,0,2.892-31.482,27.1-36.039s52.318-1,68.065-19.1c0,0-20.464,95.8-92.695,64.457,0,0-16.6,4.053-27.661,3.012l.756-1.678c-.4.517-.8,1.015-1.214,1.473l-2.3-3.1s24.225-32.543,18.335-70.188c0,0-.04,31.084-13.094,53.061,0,0-14.938-14.162-9.147-30.633,5.406-15.37,21.426-30.295,17.711-46.878C1511.047,913.277,1556.97,965.282,1508.746,993.342Z" transform="translate(-1215.789 -913.29)" fill="#01807b"/>
        <path id="Path_4107" data-name="Path 4107" d="M1198.221,1303.78c-4.438,9.7-18.109,11.078-26.64,16.7-9.147,6.03-7.058,18.779-7.058,18.779,14.865-6.03,26.679-21.545,26.679-21.545-9.167,17.008-26.885,24.882-33.353,27.283,2.468-9.585,1.645-23.124,1.645-23.124,38.467-56.855-40.218-89.955-40.218-89.955,12.975,16.4,5.386,39.94,5.406,61.418s26.5,29.068,26.5,29.068c2.733-31.329-13.817-65.81-13.817-65.81,24.451,35.409,18.487,79.587,17.346,86.606a62.032,62.032,0,0,0-10.865-7.688c-16.292-45.837-68.238-14.839-68.238-14.839,14.812-.517,25.028,15.608,37.333,22.713,13.187,7.608,27.721-2.912,27.721-2.912-16.736-14.719-43.363-19.748-43.363-19.748,33.2.995,57.2,26.985,57.2,26.985l.431-.212-.146.5c4.975-.929,11.907-5.074,11.907-5.074C1201.432,1347.2,1198.221,1303.78,1198.221,1303.78Z" transform="translate(-1075.61 -1020.56)" fill="#01807b"/>
      </g>
    </g>
  </g>
</svg>
