<svg id="Group_3175" data-name="Group 3175" xmlns="http://www.w3.org/2000/svg" width="1570.766" height="784.683" viewBox="0 0 1570.766 784.683">
  <path id="Path_5246" data-name="Path 5246" d="M0,0H1458V745H0Z" fill="#f9f5f1"/>
  <g id="Group_884" data-name="Group 884" transform="translate(701.5 185.492)">
    <path id="Path_2655" data-name="Path 2655" d="M876.389,678.49C828.918,645.252,747.715,562.782,854.64,433.3c132.23-160.1-26.12-225.79-177.923-218.93-122.129,5.511-259.566-135.94-396.668-110.66C98.068,137.273,216.224,281.653,92.84,359.46c-105.232,66.342-60.061,268.489,76.9,319.05H876.389Z" transform="translate(-34.812 -79.318)" fill="#fff"/>
  </g>
  <g id="_2895124-01" data-name="2895124-01" transform="translate(725.189 61.491)">
    <g id="Background_Complete" transform="translate(336.144 95.13)">
      <g id="Group_1337" data-name="Group 1337" transform="translate(209.426 461.41)">
        <g id="Group_1336" data-name="Group 1336">
          <g id="Group_1331" data-name="Group 1331" transform="translate(5.665 12.288)">
            <path id="Path_3059" data-name="Path 3059" d="M382.27,412.02v43.933H517.388V412.02Z" transform="translate(-382.27 -412.02)" fill="#ebebeb"/>
          </g>
          <g id="Group_1332" data-name="Group 1332">
            <path id="Path_3060" data-name="Path 3060" d="M378.48,403.8v12.288H523.987V403.8H378.48Z" transform="translate(-378.48 -403.8)" fill="#e0e0e0"/>
          </g>
          <g id="Group_1333" data-name="Group 1333" transform="translate(69.913)">
            <path id="Path_3061" data-name="Path 3061" d="M428.09,460.021h68.03V416.088h4.724V403.8H425.25v11.152Z" transform="translate(-425.25 -403.8)" fill="#e0e0e0"/>
          </g>
          <g id="Group_1334" data-name="Group 1334" transform="translate(24.575 19.373)">
            <rect id="Rectangle_320" data-name="Rectangle 320" width="27.4" height="6.607" fill="#e0e0e0"/>
          </g>
          <g id="Group_1335" data-name="Group 1335" transform="translate(21.047 34.247)">
            <rect id="Rectangle_321" data-name="Rectangle 321" width="35.188" height="13.962" fill="#f5f5f5"/>
          </g>
        </g>
      </g>
      <g id="Group_1360" data-name="Group 1360" transform="translate(241.356 380.704)">
        <g id="Group_1343" data-name="Group 1343">
          <g id="Group_1338" data-name="Group 1338" transform="translate(6.921 15.696)">
            <path id="Path_3062" data-name="Path 3062" d="M404.664,376.813l-.194-16.5,57.865,4.948,1.809,16.339Z" transform="translate(-404.47 -360.31)" fill="#ebebeb"/>
            <rect id="Rectangle_322" data-name="Rectangle 322" width="2.975" height="36.324" transform="translate(12.427 10.419) rotate(-85.113)" fill="#e0e0e0"/>
          </g>
          <g id="Group_1342" data-name="Group 1342">
            <g id="Group_1341" data-name="Group 1341">
              <path id="Path_3063" data-name="Path 3063" d="M400,366.328l-.03-16.518,57.82,5.576,1.465,14.769Z" transform="translate(-399.776 -349.81)" fill="#e0e0e0"/>
              <path id="Path_3064" data-name="Path 3064" d="M399.975,351.32l-.015,11.136,56.34,4.156-.942-10.284Z" transform="translate(-399.781 -349.063)" fill="#fff"/>
              <g id="Group_1339" data-name="Group 1339" transform="translate(0.643 6.292)">
                <path id="Path_3065" data-name="Path 3065" d="M451.857,359.282a9.7,9.7,0,0,1-2.048-.06c-1.465-.12-3.319-.254-5.546-.434-4.679-.4-11.122-1.016-18.237-1.734s-13.558-1.42-18.222-1.958c-2.212-.269-4.066-.508-5.516-.688a9.89,9.89,0,0,1-2.018-.359,9.568,9.568,0,0,1,2.033.06c1.465.12,3.319.254,5.531.433,4.679.4,11.122,1.016,18.252,1.734s13.573,1.42,18.222,1.958c2.212.269,4.066.508,5.516.688A9.628,9.628,0,0,1,451.857,359.282Z" transform="translate(-400.27 -354.019)" fill="#f5f5f5"/>
              </g>
              <g id="Group_1340" data-name="Group 1340" transform="translate(0 9.281)">
                <path id="Path_3066" data-name="Path 3066" d="M451.95,359.683a9.544,9.544,0,0,1-2.063.015c-1.465-.075-3.348-.164-5.591-.269-4.724-.254-11.226-.673-18.431-1.166s-13.708-1-18.416-1.39c-2.242-.209-4.111-.374-5.576-.508a9.268,9.268,0,0,1-2.033-.3,9.544,9.544,0,0,1,2.063-.015c1.465.075,3.348.164,5.591.269,4.724.254,11.226.673,18.431,1.166s13.693,1,18.4,1.39c2.242.209,4.111.374,5.576.508A12.388,12.388,0,0,1,451.95,359.683Z" transform="translate(-399.84 -356.019)" fill="#f5f5f5"/>
              </g>
            </g>
          </g>
        </g>
        <g id="Group_1354" data-name="Group 1354" transform="translate(7.564 30.913)">
          <g id="Group_1345" data-name="Group 1345">
            <g id="Group_1344" data-name="Group 1344">
              <path id="Path_3067" data-name="Path 3067" d="M405.124,387.008,404.9,370.49l57.88,4.9,1.644,14.754Z" transform="translate(-404.9 -370.49)" fill="#e0e0e0"/>
            </g>
          </g>
          <g id="Group_1346" data-name="Group 1346" transform="translate(5.773 0.568)">
            <path id="Path_3068" data-name="Path 3068" d="M409.581,387.164c-.209,0-.538-3.632-.7-8.132s-.15-8.147.075-8.162.538,3.632.7,8.132S409.805,387.164,409.581,387.164Z" transform="translate(-408.762 -370.87)" fill="#f5f5f5"/>
          </g>
          <g id="Group_1347" data-name="Group 1347" transform="translate(8.524 0.747)">
            <path id="Path_3069" data-name="Path 3069" d="M410.853,370.99c.209,0,.463,3.632.568,8.117s0,8.132-.209,8.132-.463-3.632-.568-8.117S410.644,370.99,410.853,370.99Z" transform="translate(-410.603 -370.99)" fill="#f5f5f5"/>
          </g>
          <g id="Group_1349" data-name="Group 1349" transform="translate(14.036 7.971)">
            <path id="Path_3070" data-name="Path 3070" d="M414.29,375.85c10.09,1.106,21.944,1.749,32.2,2.661" transform="translate(-414.29 -375.809)" fill="#fff"/>
            <g id="Group_1348" data-name="Group 1348">
              <path id="Path_3071" data-name="Path 3071" d="M446.5,378.524a30.214,30.214,0,0,1-4.739-.12c-2.915-.164-6.951-.419-11.406-.747s-8.476-.7-11.391-1.046a26.4,26.4,0,0,1-4.679-.747,32.9,32.9,0,0,1,4.739.194c3.154.224,7.056.508,11.391.822,4.455.329,8.476.673,11.391.972A29.043,29.043,0,0,1,446.5,378.524Z" transform="translate(-414.29 -375.822)" fill="#f5f5f5"/>
            </g>
          </g>
          <g id="Group_1350" data-name="Group 1350" transform="translate(49.576 4.395)">
            <path id="Path_3072" data-name="Path 3072" d="M438.954,388.214c-.209.015-.553-3.289-.747-7.37s-.194-7.4.03-7.414.553,3.289.747,7.37C439.194,384.88,439.179,388.2,438.954,388.214Z" transform="translate(-438.065 -373.43)" fill="#f5f5f5"/>
          </g>
          <g id="Group_1351" data-name="Group 1351" transform="translate(52.479 4.544)">
            <path id="Path_3073" data-name="Path 3073" d="M441.566,388.344c-.209.015-.717-3.274-1.121-7.37s-.553-7.414-.344-7.444.718,3.274,1.121,7.37S441.775,388.329,441.566,388.344Z" transform="translate(-440.007 -373.53)" fill="#f5f5f5"/>
          </g>
          <g id="Group_1353" data-name="Group 1353" transform="translate(22.617 11.573)">
            <path id="Path_3074" data-name="Path 3074" d="M420.04,378.33c6.383.434,11.241.762,16.324.867" transform="translate(-420.025 -378.184)" fill="#fff"/>
            <g id="Group_1352" data-name="Group 1352">
              <path id="Path_3075" data-name="Path 3075" d="M436.354,379.245c0,.209-3.662.194-8.177-.045s-8.162-.613-8.147-.822,3.677-.194,8.177.045S436.368,379.036,436.354,379.245Z" transform="translate(-420.03 -378.232)" fill="#f5f5f5"/>
            </g>
          </g>
        </g>
        <g id="Group_1356" data-name="Group 1356" transform="translate(10.583 63.202)">
          <g id="Group_1355" data-name="Group 1355">
            <path id="Path_3076" data-name="Path 3076" d="M408,408.578,406.92,392.09l58.044,1.839,2.422,14.634Z" transform="translate(-406.92 -392.09)" fill="#ebebeb"/>
            <path id="Path_3077" data-name="Path 3077" d="M409.531,405.733l56.49-.807-1.57-10.255L408.47,393.64Z" transform="translate(-406.153 -391.323)" fill="#fff"/>
          </g>
        </g>
        <g id="Group_1357" data-name="Group 1357" transform="translate(12.706 47.013)">
          <path id="Path_3078" data-name="Path 3078" d="M408.878,397.778l-.538-16.518,57.97,3.782,1.928,14.709Z" transform="translate(-408.34 -381.26)" fill="#f5f5f5"/>
          <rect id="Rectangle_323" data-name="Rectangle 323" width="2.975" height="36.324" transform="translate(12.628 10.186) rotate(-86.279)" fill="#e0e0e0"/>
        </g>
        <g id="Group_1358" data-name="Group 1358" transform="translate(13.08 70.466)">
          <path id="Path_3079" data-name="Path 3079" d="M464.975,397.249a12.043,12.043,0,0,1-2.212.164c-1.57.045-3.6.09-6.039.15-5.1.09-12.153.164-19.941.194s-14.844.015-19.941-.03c-2.437-.045-4.47-.075-6.039-.1a11.273,11.273,0,0,1-2.212-.15,12.044,12.044,0,0,1,2.212-.164c1.57-.045,3.6-.09,6.039-.149,5.1-.09,12.153-.164,19.941-.194s14.844-.015,19.941.03c2.437.045,4.47.075,6.039.1A13.211,13.211,0,0,1,464.975,397.249Z" transform="translate(-408.59 -396.95)" fill="#ebebeb"/>
        </g>
        <g id="Group_1359" data-name="Group 1359" transform="translate(13.334 73.023)">
          <path id="Path_3080" data-name="Path 3080" d="M465.549,399.6a12.056,12.056,0,0,1-2.242.12c-1.585.015-3.632.03-6.084.045-5.142,0-12.243-.06-20.076-.164-7.848-.1-14.933-.254-20.076-.389-2.452-.09-4.5-.149-6.084-.209a12.785,12.785,0,0,1-2.227-.179,13.905,13.905,0,0,1,2.227-.12c1.585-.015,3.632-.03,6.084-.045,5.142,0,12.243.06,20.091.164s14.948.254,20.076.389c2.451.09,4.5.15,6.084.209A15.021,15.021,0,0,1,465.549,399.6Z" transform="translate(-408.76 -398.66)" fill="#ebebeb"/>
        </g>
      </g>
    </g>
    <g id="Plant" transform="translate(40.811 427.07)">
      <g id="Group_1371" data-name="Group 1371">
        <g id="Group_1369" data-name="Group 1369">
          <g id="Group_1362" data-name="Group 1362" transform="translate(23.199)">
            <path id="Path_3082" data-name="Path 3082" d="M73.73,317.28c-7.908,1.271-11.45,10.987-10.763,18.969S66.943,352.035,66.061,360c-1.121,10.12-8.76,18.655-9.642,28.79-1.046,11.959,7.4,22.557,9.926,34.291,1.226,5.71,1.061,11.749,3.184,17.176a22.174,22.174,0,0,0,23.783,13.319,22.189,22.189,0,0,0,17.7-20.733c.179-9.178-5.486-17.818-4.8-26.982.508-6.772,4.47-13.184,3.632-19.911-1.016-8.012-8.431-13.693-11.047-21.331s-.1-16.055-1-24.082c-1.644-14.38-9.627-24.426-24.067-23.26" transform="translate(-56.33 -317.188)" fill="#05a19c"/>
          </g>
          <g id="Group_1363" data-name="Group 1363" transform="translate(0 69.796)">
            <path id="Path_3083" data-name="Path 3083" d="M41,363.88c-1.345,13.334,4.559,29.03,11.406,40.555a63.538,63.538,0,0,0,29.867,25.92c1.39.583,3.139,1.076,4.305.12.957-.777,1.076-2.182,1.091-3.423a66.059,66.059,0,0,0-12.811-39.359A65.958,65.958,0,0,0,41,363.88" transform="translate(-40.811 -363.88)" fill="#05a19c"/>
          </g>
          <g id="Group_1366" data-name="Group 1366" transform="translate(17.218 93.832)">
            <g id="Group_1365" data-name="Group 1365">
              <path id="Path_3085" data-name="Path 3085" d="M93.423,450.277a3.342,3.342,0,0,1-.374-.747c-.254-.583-.568-1.3-.957-2.182-.807-1.9-2-4.649-3.528-8.012A284.84,284.84,0,0,0,75.321,413.7a284.089,284.089,0,0,0-15.845-24.127c-2.182-2.99-3.991-5.366-5.247-7.011-.583-.777-1.061-1.405-1.435-1.9a3.567,3.567,0,0,1-.463-.7,3.882,3.882,0,0,1,.583.6c.4.478.927,1.076,1.555,1.809,1.345,1.585,3.214,3.916,5.456,6.876A244.613,244.613,0,0,1,75.994,413.31a244.907,244.907,0,0,1,13.08,25.8c1.465,3.408,2.586,6.174,3.3,8.117.329.912.6,1.644.822,2.242A5.4,5.4,0,0,1,93.423,450.277Z" transform="translate(-52.329 -379.96)" fill="#01807b"/>
            </g>
          </g>
          <g id="Group_1368" data-name="Group 1368" transform="translate(49.699 36.984)">
            <g id="Group_1367" data-name="Group 1367">
              <path id="Path_3086" data-name="Path 3086" d="M74.076,341.93a7.858,7.858,0,0,1,.149,1.286q.09,1.368.269,3.677c.209,3.259.508,7.863.867,13.513.718,11.421,1.734,27.176,2.96,44.591s2.437,33.17,3.319,44.561c.434,5.65.777,10.24,1.031,13.5.1,1.54.194,2.766.254,3.677a7.605,7.605,0,0,1,.03,1.286,7.969,7.969,0,0,1-.194-1.271c-.09-.9-.224-2.123-.389-3.662-.314-3.259-.747-7.848-1.271-13.483-1.016-11.391-2.317-27.146-3.543-44.561s-2.153-33.185-2.736-44.606c-.269-5.665-.478-10.269-.628-13.528-.06-1.54-.09-2.78-.12-3.677A9.553,9.553,0,0,1,74.076,341.93Z" transform="translate(-74.058 -341.93)" fill="#01807b"/>
            </g>
          </g>
        </g>
        <g id="Group_1370" data-name="Group 1370" transform="translate(37.444 145.136)">
          <path id="Path_3087" data-name="Path 3087" d="M65.86,414.28H99.27v24.53a16.032,16.032,0,0,1-16.04,16.04h0a16.031,16.031,0,0,1-16.01-15.187Z" transform="translate(-65.86 -414.28)" fill="#212121"/>
        </g>
      </g>
    </g>
    <g id="Coffee" transform="translate(471.562 326.485)">
      <g id="Group_1375" data-name="Group 1375">
        <g id="Group_1373" data-name="Group 1373" transform="translate(0 40.047)">
          <g id="Group_1372" data-name="Group 1372">
            <path id="Path_3088" data-name="Path 3088" d="M370.75,280.577a9.709,9.709,0,0,0-6.458-1.869c.015-1.241-.045-2.018-.045-2.018H328.984s-1.106,23.275,16.712,24.1c7.982.374,12.542-3.214,15.158-7.713a17.3,17.3,0,0,0,4.006.493,9.3,9.3,0,0,0,5.561-1.57,6.993,6.993,0,0,0,2.646-5.964A6.789,6.789,0,0,0,370.75,280.577Zm-2.422,8.655c-1.51,1.136-4.2.957-5.964.643a31.179,31.179,0,0,0,1.719-7.654c1.211-.075,3.244.03,4.41,1.016a3.493,3.493,0,0,1,1.076,2.825A3.611,3.611,0,0,1,368.328,289.232Z" transform="translate(-328.971 -276.69)" fill="#ffc401"/>
          </g>
        </g>
        <g id="Group_1374" data-name="Group 1374" transform="translate(6.027)">
          <path id="Path_3089" data-name="Path 3089" d="M351.938,287.839a1.879,1.879,0,0,0,.284-.882,2.754,2.754,0,0,0-1.45-2.123,8.506,8.506,0,0,0-1.868-.643,5.7,5.7,0,0,1-2.257-1.017,3.426,3.426,0,0,1-1.166-2.631,6.053,6.053,0,0,1,.9-3.079c1.211-1.958,3.393-3.2,4.918-5.142a8.569,8.569,0,0,0,1.271-7.459,8.4,8.4,0,0,0-2.078-3.632,14.342,14.342,0,0,0-3.767-2.392,10.9,10.9,0,0,1-3.991-2.855,5.883,5.883,0,0,1-1.046-2.377,4.041,4.041,0,0,1,.329-2.661,3.442,3.442,0,0,1,.972-1.046l.4.673a7.513,7.513,0,0,0-3.393,7.743,6.563,6.563,0,0,0,1.928,3.707,16.084,16.084,0,0,1,3.064,3.139,4.139,4.139,0,0,1,.523,2.182,5.028,5.028,0,0,1-.613,2.063,8.516,8.516,0,0,1-2.721,2.915c-2.168,1.375-4.395,2.063-6.054,3.319a6.34,6.34,0,0,0-2.646,4.619,7.363,7.363,0,0,0,2.975,6.816c0,.015-.075-.03-.224-.1a5.4,5.4,0,0,1-.6-.389,6.465,6.465,0,0,1-1.749-2.108,7.759,7.759,0,0,1-.852-4.26,6.982,6.982,0,0,1,.732-2.661,7.162,7.162,0,0,1,2.018-2.362c1.719-1.345,3.991-2.093,6.009-3.408a7.947,7.947,0,0,0,2.481-2.691,3.625,3.625,0,0,0,.075-3.573,15.291,15.291,0,0,0-2.945-2.96,7.263,7.263,0,0,1-2.168-4.111A8.252,8.252,0,0,1,343,249.9l.4.673a2.509,2.509,0,0,0-.718.762,4.206,4.206,0,0,0,.658,4.2,10.267,10.267,0,0,0,3.707,2.631A14.49,14.49,0,0,1,351,260.708a9.01,9.01,0,0,1,2.242,3.961,9.246,9.246,0,0,1-1.45,8.042c-1.674,2.048-3.842,3.244-4.963,5.023-1.121,1.719-1.211,4.021.075,5.082,1.271,1.031,2.93,1.031,4.006,1.719a2.842,2.842,0,0,1,1.45,2.392,1.3,1.3,0,0,1-.254.7C352.013,287.794,351.953,287.839,351.938,287.839Z" transform="translate(-333.003 -249.9)" fill="#263238"/>
        </g>
      </g>
    </g>
    <g id="Tasks" transform="translate(142.781 179.872)">
      <g id="Group_1388" data-name="Group 1388">
        <path id="Path_3090" data-name="Path 3090" d="M257.114,202.749H85.088a4.836,4.836,0,0,1-4.828-4.828V156.648a4.836,4.836,0,0,1,4.828-4.828H257.1a4.836,4.836,0,0,1,4.828,4.828v41.272A4.8,4.8,0,0,1,257.114,202.749Z" transform="translate(-80.26 -151.82)" fill="none" stroke="#ffc401" stroke-width="3"/>
        <path id="Path_3091" data-name="Path 3091" d="M112.4,180.5a11.069,11.069,0,1,1-1.7-15.561A11.068,11.068,0,0,1,112.4,180.5Z" transform="translate(-74.104 -146.535)" fill="#f2f2f2"/>
        <g id="Group_1377" data-name="Group 1377" transform="translate(60.795 21.346)">
          <path id="Path_3093" data-name="Path 3093" d="M224.088,166.489c0,.209-23.1.389-51.572.389s-51.587-.179-51.587-.389,23.1-.389,51.587-.389S224.088,166.264,224.088,166.489Z" transform="translate(-120.93 -166.1)" fill="#d9d6d6"/>
        </g>
        <g id="Group_1378" data-name="Group 1378" transform="translate(61.991 31.421)">
          <path id="Path_3094" data-name="Path 3094" d="M181.374,173.229c0,.209-13.349.389-29.822.389s-29.822-.179-29.822-.389,13.349-.389,29.822-.389S181.374,173,181.374,173.229Z" transform="translate(-121.73 -172.84)" fill="#d9d6d6"/>
        </g>
        <path id="Path_3095" data-name="Path 3095" d="M257.114,241.729H85.088A4.836,4.836,0,0,1,80.26,236.9V195.628a4.836,4.836,0,0,1,4.828-4.828H257.1a4.836,4.836,0,0,1,4.828,4.828V236.9A4.813,4.813,0,0,1,257.114,241.729Z" transform="translate(-80.26 -132.531)" fill="none" stroke="#ffc401" stroke-width="3"/>
        <path id="Path_3096" data-name="Path 3096" d="M112.4,219.468a11.069,11.069,0,1,1-1.7-15.561A11.068,11.068,0,0,1,112.4,219.468Z" transform="translate(-74.104 -127.252)" fill="#f2f2f2"/>
        <g id="Group_1381" data-name="Group 1381" transform="translate(60.795 79.6)">
          <path id="Path_3098" data-name="Path 3098" d="M224.088,205.459c0,.209-23.1.389-51.572.389s-51.587-.179-51.587-.389,23.1-.389,51.587-.389S224.088,205.249,224.088,205.459Z" transform="translate(-120.93 -205.07)" fill="#d9d6d6"/>
        </g>
        <g id="Group_1382" data-name="Group 1382" transform="translate(61.991 89.675)">
          <path id="Path_3099" data-name="Path 3099" d="M181.374,212.2c0,.209-13.349.389-29.822.389s-29.822-.179-29.822-.389,13.349-.389,29.822-.389S181.374,211.989,181.374,212.2Z" transform="translate(-121.73 -211.81)" fill="#d9d6d6"/>
        </g>
        <path id="Path_3100" data-name="Path 3100" d="M257.114,280.7H85.088a4.836,4.836,0,0,1-4.828-4.828V234.6a4.836,4.836,0,0,1,4.828-4.828H257.1a4.836,4.836,0,0,1,4.828,4.828v41.272A4.8,4.8,0,0,1,257.114,280.7Z" transform="translate(-80.26 -113.248)" fill="none" stroke="#ffc401" stroke-width="3"/>
        <path id="Path_3101" data-name="Path 3101" d="M112.4,258.448a11.069,11.069,0,1,1-1.7-15.561A11.068,11.068,0,0,1,112.4,258.448Z" transform="translate(-74.104 -107.963)" fill="#f2f2f2"/>
        <g id="Group_1385" data-name="Group 1385" transform="translate(60.795 137.868)">
          <path id="Path_3103" data-name="Path 3103" d="M224.088,244.439c0,.209-23.1.389-51.572.389s-51.587-.179-51.587-.389,23.1-.389,51.587-.389S224.088,244.229,224.088,244.439Z" transform="translate(-120.93 -244.05)" fill="#d9d6d6"/>
        </g>
        <g id="Group_1386" data-name="Group 1386" transform="translate(61.991 147.944)">
          <path id="Path_3104" data-name="Path 3104" d="M181.374,251.179c0,.209-13.349.389-29.822.389s-29.822-.179-29.822-.389,13.349-.389,29.822-.389S181.374,250.969,181.374,251.179Z" transform="translate(-121.73 -250.79)" fill="#d9d6d6"/>
        </g>
        <g id="noun_cart_3112451" transform="translate(19.311 16.266)">
          <path id="Path_3205" data-name="Path 3205" d="M16.062,6.988a1.724,1.724,0,0,0-1.32-.616H6.976a1.677,1.677,0,0,0-.89.264l-.124-.854a1.719,1.719,0,0,0-1.7-1.512h-.74a.518.518,0,0,0,0,1.035h.74a.689.689,0,0,1,.678.6l.518,4.333.233,2.071A1.724,1.724,0,0,0,7.406,14h6.57a1.719,1.719,0,0,0,1.693-1.413L16.46,8.4A1.74,1.74,0,0,0,16.062,6.988Zm-.637,1.227-.777,4.2a.683.683,0,0,1-.673.564H7.421a.683.683,0,0,1-.683-.683.192.192,0,0,0,0-.057L6.282,8.168a.683.683,0,0,1,.678-.761h7.766a.668.668,0,0,1,.518.248.683.683,0,0,1,.181.559Z" fill="#05a19c"/>
          <path id="Path_3206" data-name="Path 3206" d="M11.078,24.41A1.118,1.118,0,1,0,12.2,25.528,1.118,1.118,0,0,0,11.078,24.41Zm-.062,1.118a.083.083,0,0,1,.166,0C11.161,25.616,11.016,25.616,11.016,25.528Z" transform="translate(-3.357 -9.713)" fill="#05a19c"/>
          <path id="Path_3207" data-name="Path 3207" d="M22.788,24.41a1.118,1.118,0,1,0,.8.324A1.118,1.118,0,0,0,22.788,24.41Zm-.083,1.118a.083.083,0,1,1,.166,0C22.881,25.616,22.705,25.616,22.705,25.528Z" transform="translate(-9.009 -9.713)" fill="#05a19c"/>
          <path id="Path_3208" data-name="Path 3208" d="M17.391,12.77,15.626,14.5l-.564-.564a.518.518,0,1,0-.73.73l.927.932a.518.518,0,0,0,.735,0l2.123-2.128a.518.518,0,1,0-.725-.7Z" transform="translate(-5.378 -3.981)" fill="#05a19c"/>
        </g>
        <g id="noun_cart_3112451-2" data-name="noun_cart_3112451" transform="translate(19.311 75.266)">
          <path id="Path_3205-2" data-name="Path 3205" d="M16.062,6.988a1.724,1.724,0,0,0-1.32-.616H6.976a1.677,1.677,0,0,0-.89.264l-.124-.854a1.719,1.719,0,0,0-1.7-1.512h-.74a.518.518,0,0,0,0,1.035h.74a.689.689,0,0,1,.678.6l.518,4.333.233,2.071A1.724,1.724,0,0,0,7.406,14h6.57a1.719,1.719,0,0,0,1.693-1.413L16.46,8.4A1.74,1.74,0,0,0,16.062,6.988Zm-.637,1.227-.777,4.2a.683.683,0,0,1-.673.564H7.421a.683.683,0,0,1-.683-.683.192.192,0,0,0,0-.057L6.282,8.168a.683.683,0,0,1,.678-.761h7.766a.668.668,0,0,1,.518.248.683.683,0,0,1,.181.559Z" fill="#05a19c"/>
          <path id="Path_3206-2" data-name="Path 3206" d="M11.078,24.41A1.118,1.118,0,1,0,12.2,25.528,1.118,1.118,0,0,0,11.078,24.41Zm-.062,1.118a.083.083,0,0,1,.166,0C11.161,25.616,11.016,25.616,11.016,25.528Z" transform="translate(-3.357 -9.713)" fill="#05a19c"/>
          <path id="Path_3207-2" data-name="Path 3207" d="M22.788,24.41a1.118,1.118,0,1,0,.8.324A1.118,1.118,0,0,0,22.788,24.41Zm-.083,1.118a.083.083,0,1,1,.166,0C22.881,25.616,22.705,25.616,22.705,25.528Z" transform="translate(-9.009 -9.713)" fill="#05a19c"/>
          <path id="Path_3208-2" data-name="Path 3208" d="M17.391,12.77,15.626,14.5l-.564-.564a.518.518,0,1,0-.73.73l.927.932a.518.518,0,0,0,.735,0l2.123-2.128a.518.518,0,1,0-.725-.7Z" transform="translate(-5.378 -3.981)" fill="#05a19c"/>
        </g>
        <g id="noun_cart_3112451-3" data-name="noun_cart_3112451" transform="translate(19.311 133.266)">
          <path id="Path_3205-3" data-name="Path 3205" d="M16.062,6.988a1.724,1.724,0,0,0-1.32-.616H6.976a1.677,1.677,0,0,0-.89.264l-.124-.854a1.719,1.719,0,0,0-1.7-1.512h-.74a.518.518,0,0,0,0,1.035h.74a.689.689,0,0,1,.678.6l.518,4.333.233,2.071A1.724,1.724,0,0,0,7.406,14h6.57a1.719,1.719,0,0,0,1.693-1.413L16.46,8.4A1.74,1.74,0,0,0,16.062,6.988Zm-.637,1.227-.777,4.2a.683.683,0,0,1-.673.564H7.421a.683.683,0,0,1-.683-.683.192.192,0,0,0,0-.057L6.282,8.168a.683.683,0,0,1,.678-.761h7.766a.668.668,0,0,1,.518.248.683.683,0,0,1,.181.559Z" fill="#05a19c"/>
          <path id="Path_3206-3" data-name="Path 3206" d="M11.078,24.41A1.118,1.118,0,1,0,12.2,25.528,1.118,1.118,0,0,0,11.078,24.41Zm-.062,1.118a.083.083,0,0,1,.166,0C11.161,25.616,11.016,25.616,11.016,25.528Z" transform="translate(-3.357 -9.713)" fill="#05a19c"/>
          <path id="Path_3207-3" data-name="Path 3207" d="M22.788,24.41a1.118,1.118,0,1,0,.8.324A1.118,1.118,0,0,0,22.788,24.41Zm-.083,1.118a.083.083,0,1,1,.166,0C22.881,25.616,22.705,25.616,22.705,25.528Z" transform="translate(-9.009 -9.713)" fill="#05a19c"/>
          <path id="Path_3208-3" data-name="Path 3208" d="M17.391,12.77,15.626,14.5l-.564-.564a.518.518,0,1,0-.73.73l.927.932a.518.518,0,0,0,.735,0l2.123-2.128a.518.518,0,1,0-.725-.7Z" transform="translate(-5.378 -3.981)" fill="#05a19c"/>
        </g>
      </g>
    </g>
    <g id="Character" transform="translate(129.842 225.058)">
      <g id="Group_1561" data-name="Group 1561" transform="translate(0 0)">
        <g id="Group_1396" data-name="Group 1396" transform="translate(170.209 128.352)">
          <g id="Group_1389" data-name="Group 1389" transform="translate(19.007 134.457)">
            <path id="Path_3105" data-name="Path 3105" d="M273.416,358.78,270.561,482.3H265.12l.344-123.2Z" transform="translate(-208.062 -357.405)" fill="#263238"/>
            <path id="Path_3106" data-name="Path 3106" d="M283.84,357.86l26.488,124.893H316.4L294.349,357.86Z" transform="translate(-198.799 -357.86)" fill="#263238"/>
            <path id="Path_3107" data-name="Path 3107" d="M262.333,358.948,233.019,482.466H226.95L253.543,358.44Z" transform="translate(-226.95 -357.573)" fill="#263238"/>
          </g>
          <g id="Group_1395" data-name="Group 1395">
            <g id="Group_1394" data-name="Group 1394">
              <g id="Group_1393" data-name="Group 1393">
                <g id="Group_1392" data-name="Group 1392">
                  <g id="Group_1390" data-name="Group 1390">
                    <path id="Path_3108" data-name="Path 3108" d="M352.679,267.954s33.589-1.913,30.226,36.937c-3.363,38.866-5.277,78.195-17.759,91.633s-138.167,13.917-148.721,2.885,20.15-10.554,25.905-10.554,41.257,3.363,52.768-26.862S303.738,266.025,352.679,267.954Z" transform="translate(-214.235 -267.912)" fill="#263238"/>
                  </g>
                  <g id="Group_1391" data-name="Group 1391" transform="translate(0.179 0.056)">
                    <path id="Path_3109" data-name="Path 3109" d="M354.773,267.95s25.666,5.262,23.275,32.124-9.118,73.875-21.585,85.878-61.348,14.6-87.792,12.96c-30.7-1.913-50.092-7.758-50.092-7.758s-5.606,3.6-3.9,5.92,16.667,11.66,89.242,10.105,67.522-12.258,70.541-23.962,9.328-74.054,8.461-87.762C382.023,281.732,375.117,270.357,354.773,267.95Z" transform="translate(-214.354 -267.95)" fill="#455a64"/>
                  </g>
                </g>
              </g>
            </g>
          </g>
        </g>
        <g id="Group_1556" data-name="Group 1556" transform="translate(118.949)">
          <g id="Group_1407" data-name="Group 1407" transform="translate(96.738)">
            <g id="Group_1406" data-name="Group 1406" transform="translate(0)">
              <path id="Path_2796" data-name="Path 2796" d="M384.059,272.438s-9.252-15.824-1.448-28.027c7.8-12.221,24.37-11.062,28.679-10.1,4.291.96,29,12.547,14.068,40.664Z" transform="translate(-376.517 -211.82)" fill="#212121"/>
              <g id="Group_1403" data-name="Group 1403" transform="translate(6.585 24.581)">
                <path id="Path_3111" data-name="Path 3111" d="M262.094,253.431c.532-2.418-.391-12.595-.391-12.595s-10.689-1.137-11.143-10.348.626-30.409.626-30.409l19.672-7.969,17.168,16.52.329,44.656Z" transform="translate(-250.449 -192.11)" fill="#ffcfad"/>
              </g>
              <path id="Path_2806" data-name="Path 2806" d="M390.86,239.606s23.591,37.84,26.832,23.953C422.309,243.9,408.223,231.73,390.86,239.606Z" transform="translate(-370.915 -212.664)" fill="#212121"/>
              <path id="Path_2807" data-name="Path 2807" d="M398.811,238.51c-15.7.109-23.5,17.942-16.222,20.061,10.121,2.933,18.92-11.406,21.618-16.367C402.4,241.009,400.568,239.814,398.811,238.51Z" transform="translate(-379.844 -211.586)" fill="#212121"/>
              <ellipse id="Ellipse_30" data-name="Ellipse 30" cx="15.516" cy="15.516" rx="15.516" ry="15.516" transform="translate(13.598 11.814) rotate(-22.377)" fill="#212121"/>
              <path id="Path_2808" data-name="Path 2808" d="M384.627,248.838s1.213,4.744-.453,7.93-.76,8.654,0,14.81a19,19,0,0,1-2.806-9.741c-.163-6.011.833-10.99,0-13.4Z" transform="translate(-378.623 -203.537)" fill="#212121"/>
              <path id="Path_2809" data-name="Path 2809" d="M403.821,248.838s-1.213,4.744.453,7.93.76,8.654,0,14.81a19,19,0,0,0,2.806-9.741c.163-6.011-.833-10.99,0-13.4Z" transform="translate(-360.755 -203.537)" fill="#212121"/>
            </g>
          </g>
          <g id="Group_1461" data-name="Group 1461" transform="translate(61.868 366.192)">
            <g id="Group_1460" data-name="Group 1460">
              <g id="Group_1412" data-name="Group 1412" transform="translate(0.081)">
                <g id="Group_1409" data-name="Group 1409">
                  <g id="Group_1408" data-name="Group 1408">
                    <path id="Path_3124" data-name="Path 3124" d="M238.239,441.131l-.269-13.439,25.173-.673.613,19.657-1.555.149c-6.936.568-35.308,2.422-39.987,1.136C216.982,446.513,238.239,441.131,238.239,441.131Z" transform="translate(-221.386 -427.02)" fill="#ffc401"/>
                  </g>
                </g>
                <g id="Group_1411" data-name="Group 1411" transform="translate(33.222 12.245)" opacity="0.5">
                  <g id="Group_1410" data-name="Group 1410">
                    <path id="Path_3125" data-name="Path 3125" d="M243.61,442.668a8.77,8.77,0,0,1,3.064-5.456,8.424,8.424,0,0,1,5.83-1.988l.194,7.041Z" transform="translate(-243.61 -435.212)" fill="#ffc401"/>
                  </g>
                </g>
              </g>
              <g id="Group_1414" data-name="Group 1414" transform="translate(0 17.116)" opacity="0.4">
                <g id="Group_1413" data-name="Group 1413">
                  <path id="Path_3126" data-name="Path 3126" d="M227.892,438.47s-7.444,2.362-6.473,3.573,29.7.419,42.349-1.046l-.06-.568-33.514,1.211C230.194,441.654,229.357,438.485,227.892,438.47Z" transform="translate(-221.331 -438.47)" fill="#fff"/>
                </g>
              </g>
              <g id="Group_1417" data-name="Group 1417" transform="translate(0.073 19.049)">
                <g id="Group_1416" data-name="Group 1416">
                  <g id="Group_1415" data-name="Group 1415">
                    <path id="Path_3127" data-name="Path 3127" d="M264.087,439.773a2.049,2.049,0,0,1-.433.06c-.374.03-.777.075-1.241.1-1.241.09-2.765.194-4.574.329-3.857.239-9.193.508-15.1.688-5.9.164-11.241.194-15.113.179-1.809-.03-3.333-.045-4.574-.06-.463-.015-.867-.03-1.241-.045-.284-.015-.433-.03-.433-.03a2.441,2.441,0,0,1,.433-.03c.374,0,.777-.015,1.241-.015,1.241-.015,2.78-.015,4.574-.03,3.872-.03,9.208-.09,15.113-.269s11.226-.4,15.1-.6q2.713-.134,4.574-.224c.463-.015.867-.03,1.241-.045A1.368,1.368,0,0,1,264.087,439.773Z" transform="translate(-221.38 -439.763)" fill="#263238"/>
                  </g>
                </g>
              </g>
              <g id="Group_1420" data-name="Group 1420" transform="translate(6.364 16.809)">
                <g id="Group_1419" data-name="Group 1419">
                  <g id="Group_1418" data-name="Group 1418">
                    <path id="Path_3128" data-name="Path 3128" d="M228.117,442.144a10.352,10.352,0,0,0-.912-2.167,9.9,9.9,0,0,0-1.614-1.7,4.054,4.054,0,0,1,2.526,3.872Z" transform="translate(-225.589 -438.265)" fill="#263238"/>
                  </g>
                </g>
              </g>
              <g id="Group_1423" data-name="Group 1423" transform="translate(14.813 14.646)">
                <g id="Group_1422" data-name="Group 1422">
                  <g id="Group_1421" data-name="Group 1421">
                    <path id="Path_3129" data-name="Path 3129" d="M232.644,438.884c-.075.045-.433-.374-.822-.942s-.643-1.061-.568-1.121.433.374.822.942A3.109,3.109,0,0,1,232.644,438.884Z" transform="translate(-231.241 -436.818)" fill="#263238"/>
                  </g>
                </g>
              </g>
              <g id="Group_1426" data-name="Group 1426" transform="translate(16.613 14.192)">
                <g id="Group_1425" data-name="Group 1425">
                  <g id="Group_1424" data-name="Group 1424">
                    <path id="Path_3130" data-name="Path 3130" d="M234.052,437.9c-.06.06-.463-.194-.9-.568s-.762-.732-.7-.807.463.194.9.568C233.783,437.48,234.112,437.838,234.052,437.9Z" transform="translate(-232.445 -436.514)" fill="#263238"/>
                  </g>
                </g>
              </g>
              <g id="Group_1429" data-name="Group 1429" transform="translate(16.815 13.056)">
                <g id="Group_1428" data-name="Group 1428">
                  <g id="Group_1427" data-name="Group 1427">
                    <path id="Path_3131" data-name="Path 3131" d="M235.211,435.868a2.892,2.892,0,0,1-1.315.209c-.732.03-1.315-.015-1.315-.1a2.893,2.893,0,0,1,1.315-.209A2.813,2.813,0,0,1,235.211,435.868Z" transform="translate(-232.58 -435.754)" fill="#263238"/>
                  </g>
                </g>
              </g>
              <g id="Group_1432" data-name="Group 1432" transform="translate(16.859 11.461)">
                <g id="Group_1431" data-name="Group 1431">
                  <g id="Group_1430" data-name="Group 1430">
                    <path id="Path_3132" data-name="Path 3132" d="M235.585,434.706a2.579,2.579,0,0,1-1.45.463,2.47,2.47,0,0,1-1.525-.164,7.88,7.88,0,0,1,1.495-.15A11.152,11.152,0,0,1,235.585,434.706Z" transform="translate(-232.61 -434.687)" fill="#263238"/>
                  </g>
                </g>
              </g>
              <g id="Group_1435" data-name="Group 1435" transform="translate(10.499 12.37)">
                <g id="Group_1434" data-name="Group 1434">
                  <g id="Group_1433" data-name="Group 1433">
                    <path id="Path_3133" data-name="Path 3133" d="M233.146,437.47a4.5,4.5,0,0,1-1.614.03,9.926,9.926,0,0,1-1.734-.329,5.188,5.188,0,0,1-1-.374.924.924,0,0,1-.419-.493.638.638,0,0,1,.224-.658,2.983,2.983,0,0,1,3.692.762,2.893,2.893,0,0,1,.553,1.061.96.96,0,0,1,.06.433,4.862,4.862,0,0,0-.777-1.36,2.867,2.867,0,0,0-1.405-.867,2.546,2.546,0,0,0-1.928.179c-.254.194-.15.493.149.658a4.584,4.584,0,0,0,.927.359,11.4,11.4,0,0,0,1.674.389C232.533,437.44,233.146,437.41,233.146,437.47Z" transform="translate(-228.355 -435.295)" fill="#263238"/>
                  </g>
                </g>
              </g>
              <g id="Group_1438" data-name="Group 1438" transform="translate(14.657 11.45)">
                <g id="Group_1437" data-name="Group 1437">
                  <g id="Group_1436" data-name="Group 1436">
                    <path id="Path_3134" data-name="Path 3134" d="M231.366,437.864a1.606,1.606,0,0,1-.224-1.121,2.705,2.705,0,0,1,.4-1.2,1.624,1.624,0,0,1,1.33-.867.661.661,0,0,1,.523.732,1.772,1.772,0,0,1-.254.732,5.112,5.112,0,0,1-.733,1,2.329,2.329,0,0,1-.912.688c-.03-.045.314-.3.747-.822a7.048,7.048,0,0,0,.658-.987c.209-.344.344-.972-.06-1.031-.4-.03-.807.389-1.046.717a2.85,2.85,0,0,0-.434,1.061A4.3,4.3,0,0,0,231.366,437.864Z" transform="translate(-231.136 -434.68)" fill="#263238"/>
                  </g>
                </g>
              </g>
              <g id="Group_1441" data-name="Group 1441" transform="translate(33.326 12.039)">
                <g id="Group_1440" data-name="Group 1440">
                  <g id="Group_1439" data-name="Group 1439">
                    <path id="Path_3135" data-name="Path 3135" d="M252.377,435.218c0,.06-.717-.045-1.854.12a8.049,8.049,0,0,0-4.006,1.779,8.135,8.135,0,0,0-2.437,3.647c-.359,1.091-.374,1.809-.433,1.809a1.68,1.68,0,0,1-.015-.508,5.911,5.911,0,0,1,.239-1.36,7.66,7.66,0,0,1,6.637-5.591,6.059,6.059,0,0,1,1.39,0A1.832,1.832,0,0,1,252.377,435.218Z" transform="translate(-243.626 -435.074)" fill="#263238"/>
                  </g>
                </g>
              </g>
              <g id="Group_1444" data-name="Group 1444" transform="translate(39.132 1.779)">
                <g id="Group_1443" data-name="Group 1443">
                  <g id="Group_1442" data-name="Group 1442">
                    <path id="Path_3136" data-name="Path 3136" d="M247.555,428.21a43.924,43.924,0,0,1,.359,5.157,45.825,45.825,0,0,1,.06,5.172,44.011,44.011,0,0,1-.359-5.172A45.71,45.71,0,0,1,247.555,428.21Z" transform="translate(-247.509 -428.21)" fill="#263238"/>
                  </g>
                </g>
              </g>
              <g id="Group_1447" data-name="Group 1447" transform="translate(22.719 17.301)">
                <g id="Group_1446" data-name="Group 1446">
                  <g id="Group_1445" data-name="Group 1445">
                    <path id="Path_3137" data-name="Path 3137" d="M243.885,438.618a14.58,14.58,0,0,1-3.662.463,14.776,14.776,0,0,1-3.692-.194c0-.09,1.659-.03,3.677-.1S243.87,438.528,243.885,438.618Z" transform="translate(-236.53 -438.594)" fill="#263238"/>
                  </g>
                </g>
              </g>
              <g id="Group_1450" data-name="Group 1450" transform="translate(34.321 17.181)">
                <g id="Group_1449" data-name="Group 1449">
                  <g id="Group_1448" data-name="Group 1448">
                    <path id="Path_3138" data-name="Path 3138" d="M244.977,438.523c.06.06-.12.359-.284.732s-.239.718-.329.718-.135-.389.045-.837S244.917,438.463,244.977,438.523Z" transform="translate(-244.291 -438.514)" fill="#263238"/>
                  </g>
                </g>
              </g>
              <g id="Group_1453" data-name="Group 1453" transform="translate(35.876 14.817)">
                <g id="Group_1452" data-name="Group 1452">
                  <g id="Group_1451" data-name="Group 1451">
                    <path id="Path_3139" data-name="Path 3139" d="M246.256,436.944c.06.06-.09.329-.344.6s-.508.448-.568.389.09-.329.344-.6S246.2,436.884,246.256,436.944Z" transform="translate(-245.331 -436.932)" fill="#263238"/>
                  </g>
                </g>
              </g>
              <g id="Group_1456" data-name="Group 1456" transform="translate(38.012 13.563)">
                <g id="Group_1455" data-name="Group 1455">
                  <g id="Group_1454" data-name="Group 1454">
                    <path id="Path_3140" data-name="Path 3140" d="M248.18,436.223c-.015.09-.344.09-.717.239s-.628.344-.688.284.135-.4.583-.568S248.21,436.148,248.18,436.223Z" transform="translate(-246.76 -436.093)" fill="#263238"/>
                  </g>
                </g>
              </g>
              <g id="Group_1459" data-name="Group 1459" transform="translate(40.563 13.085)">
                <g id="Group_1458" data-name="Group 1458">
                  <g id="Group_1457" data-name="Group 1457">
                    <path id="Path_3141" data-name="Path 3141" d="M249.219,435.828c.03.075-.1.209-.314.3s-.4.09-.434.015.1-.209.314-.3S249.189,435.753,249.219,435.828Z" transform="translate(-248.467 -435.774)" fill="#263238"/>
                  </g>
                </g>
              </g>
            </g>
          </g>
          <g id="Group_1515" data-name="Group 1515" transform="translate(0 296.279)">
            <g id="Group_1514" data-name="Group 1514">
              <g id="Group_1466" data-name="Group 1466" transform="translate(0.111)">
                <g id="Group_1463" data-name="Group 1463">
                  <g id="Group_1462" data-name="Group 1462">
                    <path id="Path_3142" data-name="Path 3142" d="M197.914,392.358l5.83-12.108L226.5,391.043l-8.356,17.8-1.45-.583c-6.443-2.631-32.587-13.812-36.175-17.071C176.523,387.56,197.914,392.358,197.914,392.358Z" transform="translate(-180.018 -380.25)" fill="#ffc401"/>
                  </g>
                </g>
                <g id="Group_1465" data-name="Group 1465" transform="translate(29.974 20.814)" opacity="0.5">
                  <g id="Group_1464" data-name="Group 1464">
                    <path id="Path_3143" data-name="Path 3143" d="M200.07,397.86a8.672,8.672,0,0,1,5.2-3.468,8.486,8.486,0,0,1,6.1.867l-3,6.368Z" transform="translate(-200.07 -394.174)" fill="#ffc401"/>
                  </g>
                </g>
              </g>
              <g id="Group_1468" data-name="Group 1468" transform="translate(0 9.615)" opacity="0.4">
                <g id="Group_1467" data-name="Group 1467">
                  <path id="Path_3144" data-name="Path 3144" d="M187.338,387.172s-7.7-1.256-7.384.254,26.309,13.812,38.238,18.237l.209-.523-30.435-14.081C187.965,391.044,188.638,387.845,187.338,387.172Z" transform="translate(-179.944 -386.682)" fill="#fff"/>
                </g>
              </g>
              <g id="Group_1471" data-name="Group 1471" transform="translate(0.189 9.983)">
                <g id="Group_1470" data-name="Group 1470">
                  <g id="Group_1469" data-name="Group 1469">
                    <path id="Path_3145" data-name="Path 3145" d="M218.7,405.168a2.252,2.252,0,0,1-.419-.15c-.344-.134-.732-.3-1.151-.463-1.151-.478-2.556-1.076-4.215-1.779-3.558-1.525-8.431-3.707-13.767-6.219-5.337-2.526-10.12-4.918-13.558-6.682-1.6-.837-2.96-1.555-4.051-2.123-.4-.224-.762-.419-1.091-.6a3.113,3.113,0,0,1-.374-.224,1.476,1.476,0,0,1,.4.179c.329.164.7.344,1.121.553,1.121.553,2.481,1.241,4.1,2.048,3.468,1.719,8.251,4.081,13.588,6.607s10.195,4.724,13.723,6.308c1.644.732,3.049,1.36,4.186,1.869.419.194.792.359,1.136.523A2.183,2.183,0,0,1,218.7,405.168Z" transform="translate(-180.07 -386.928)" fill="#263238"/>
                  </g>
                </g>
              </g>
              <g id="Group_1474" data-name="Group 1474" transform="translate(7.355 9.729)">
                <g id="Group_1473" data-name="Group 1473">
                  <g id="Group_1472" data-name="Group 1472">
                    <path id="Path_3146" data-name="Path 3146" d="M185.366,391.365a10.448,10.448,0,0,0,.164-2.347,11.774,11.774,0,0,0-.658-2.257,3.455,3.455,0,0,1,.972,2.212A3.418,3.418,0,0,1,185.366,391.365Z" transform="translate(-184.864 -386.758)" fill="#263238"/>
                  </g>
                </g>
              </g>
              <g id="Group_1477" data-name="Group 1477" transform="translate(15.817 11.644)">
                <g id="Group_1476" data-name="Group 1476">
                  <g id="Group_1475" data-name="Group 1475">
                    <path id="Path_3147" data-name="Path 3147" d="M190.891,390.507c-.09.015-.224-.538-.3-1.211s-.09-1.241,0-1.256.224.538.3,1.211S190.981,390.492,190.891,390.507Z" transform="translate(-190.525 -388.04)" fill="#263238"/>
                  </g>
                </g>
              </g>
              <g id="Group_1480" data-name="Group 1480" transform="translate(17.641 12.062)">
                <g id="Group_1479" data-name="Group 1479">
                  <g id="Group_1478" data-name="Group 1478">
                    <path id="Path_3148" data-name="Path 3148" d="M192.59,390.264c-.075.03-.329-.374-.553-.912s-.344-1-.269-1.031.329.374.553.912S192.664,390.234,192.59,390.264Z" transform="translate(-191.745 -388.319)" fill="#263238"/>
                  </g>
                </g>
              </g>
              <g id="Group_1483" data-name="Group 1483" transform="translate(18.275 11.299)">
                <g id="Group_1482" data-name="Group 1482">
                  <g id="Group_1481" data-name="Group 1481">
                    <path id="Path_3149" data-name="Path 3149" d="M194.562,388.917a3.006,3.006,0,0,1-1.256-.4,3.054,3.054,0,0,1-1.136-.688,3.006,3.006,0,0,1,1.256.4C194.1,388.543,194.607,388.842,194.562,388.917Z" transform="translate(-192.169 -387.809)" fill="#263238"/>
                  </g>
                </g>
              </g>
              <g id="Group_1486" data-name="Group 1486" transform="translate(18.991 10.005)">
                <g id="Group_1485" data-name="Group 1485">
                  <g id="Group_1484" data-name="Group 1484">
                    <path id="Path_3150" data-name="Path 3150" d="M195.446,388.03a2.557,2.557,0,0,1-1.51-.239c-.807-.3-1.33-.762-1.286-.837a8.247,8.247,0,0,1,1.39.538A7.7,7.7,0,0,1,195.446,388.03Z" transform="translate(-192.648 -386.943)" fill="#263238"/>
                  </g>
                </g>
              </g>
              <g id="Group_1489" data-name="Group 1489" transform="translate(12.614 8.085)">
                <g id="Group_1488" data-name="Group 1488">
                  <g id="Group_1487" data-name="Group 1487">
                    <path id="Path_3151" data-name="Path 3151" d="M192.116,389.338a4.652,4.652,0,0,1-1.465-.7,9.766,9.766,0,0,1-1.39-1.076,4.686,4.686,0,0,1-.718-.792.864.864,0,0,1-.15-.628.644.644,0,0,1,.493-.478,2.982,2.982,0,0,1,2.945,2.347,2.917,2.917,0,0,1,.015,1.2.97.97,0,0,1-.149.419,4.421,4.421,0,0,0-.075-1.57,2.812,2.812,0,0,0-.867-1.405,2.456,2.456,0,0,0-1.794-.7c-.314.06-.359.374-.164.658a5.121,5.121,0,0,0,.658.747,12.62,12.62,0,0,0,1.315,1.106C191.578,389.024,192.146,389.293,192.116,389.338Z" transform="translate(-188.382 -385.659)" fill="#263238"/>
                  </g>
                </g>
              </g>
              <g id="Group_1492" data-name="Group 1492" transform="translate(15.925 9.372)">
                <g id="Group_1491" data-name="Group 1491">
                  <g id="Group_1490" data-name="Group 1490">
                    <path id="Path_3152" data-name="Path 3152" d="M190.616,388.807a1.522,1.522,0,0,1,.314-1.091,2.87,2.87,0,0,1,.912-.882,1.593,1.593,0,0,1,1.57-.164.648.648,0,0,1,.135.882,2.083,2.083,0,0,1-.553.538,4.237,4.237,0,0,1-1.106.553,2.536,2.536,0,0,1-1.121.194c-.015-.045.419-.12,1.031-.4a5.7,5.7,0,0,0,1.031-.583c.344-.209.747-.7.419-.942-.344-.209-.9-.015-1.256.164a2.74,2.74,0,0,0-.867.762A3.959,3.959,0,0,0,190.616,388.807Z" transform="translate(-190.597 -386.52)" fill="#263238"/>
                  </g>
                </g>
              </g>
              <g id="Group_1495" data-name="Group 1495" transform="translate(30.188 20.323)">
                <g id="Group_1494" data-name="Group 1494">
                  <g id="Group_1493" data-name="Group 1493">
                    <path id="Path_3153" data-name="Path 3153" d="M211.247,395.3c-.03.045-.628-.374-1.7-.732a8.016,8.016,0,0,0-4.38-.224,8.113,8.113,0,0,0-3.827,2.153c-.807.807-1.151,1.45-1.2,1.42a1.574,1.574,0,0,1,.224-.463,6.856,6.856,0,0,1,.822-1.106,7.677,7.677,0,0,1,8.446-1.988,6.236,6.236,0,0,1,1.241.628C211.128,395.168,211.262,395.287,211.247,395.3Z" transform="translate(-200.139 -393.846)" fill="#263238"/>
                  </g>
                </g>
              </g>
              <g id="Group_1498" data-name="Group 1498" transform="translate(39.11 11.196)">
                <g id="Group_1497" data-name="Group 1497">
                  <g id="Group_1496" data-name="Group 1496">
                    <path id="Path_3154" data-name="Path 3154" d="M210.417,387.74a44.077,44.077,0,0,1-2.018,4.768,47.789,47.789,0,0,1-2.287,4.649,44.071,44.071,0,0,1,2.018-4.769A40.7,40.7,0,0,1,210.417,387.74Z" transform="translate(-206.107 -387.74)" fill="#263238"/>
                  </g>
                </g>
              </g>
              <g id="Group_1501" data-name="Group 1501" transform="translate(21.579 17.843)">
                <g id="Group_1500" data-name="Group 1500">
                  <g id="Group_1499" data-name="Group 1499">
                    <path id="Path_3155" data-name="Path 3155" d="M201.062,395.271a20.609,20.609,0,0,1-6.682-3.079c.045-.075,1.495.718,3.333,1.57S201.092,395.2,201.062,395.271Z" transform="translate(-194.379 -392.187)" fill="#263238"/>
                  </g>
                </g>
              </g>
              <g id="Group_1504" data-name="Group 1504" transform="translate(31.515 23.006)">
                <g id="Group_1503" data-name="Group 1503">
                  <g id="Group_1502" data-name="Group 1502">
                    <path id="Path_3156" data-name="Path 3156" d="M202.242,395.67c.03.075-.269.254-.583.523s-.538.538-.613.493c-.075-.03.06-.419.419-.717S202.228,395.595,202.242,395.67Z" transform="translate(-201.027 -395.641)" fill="#263238"/>
                  </g>
                </g>
              </g>
              <g id="Group_1507" data-name="Group 1507" transform="translate(34.134 21.698)">
                <g id="Group_1506" data-name="Group 1506">
                  <g id="Group_1505" data-name="Group 1505">
                    <path id="Path_3157" data-name="Path 3157" d="M204.051,394.8c.03.075-.224.254-.583.374s-.658.164-.688.09.224-.239.583-.374S204.021,394.727,204.051,394.8Z" transform="translate(-202.778 -394.766)" fill="#263238"/>
                  </g>
                </g>
              </g>
              <g id="Group_1510" data-name="Group 1510" transform="translate(36.763 21.49)">
                <g id="Group_1509" data-name="Group 1509">
                  <g id="Group_1508" data-name="Group 1508">
                    <path id="Path_3158" data-name="Path 3158" d="M206.036,395.065c-.06.075-.359-.075-.747-.12s-.718.03-.747-.06.3-.3.792-.254S206.1,395.006,206.036,395.065Z" transform="translate(-204.537 -394.626)" fill="#263238"/>
                  </g>
                </g>
              </g>
              <g id="Group_1513" data-name="Group 1513" transform="translate(39.382 22.106)">
                <g id="Group_1512" data-name="Group 1512">
                  <g id="Group_1511" data-name="Group 1511">
                    <path id="Path_3159" data-name="Path 3159" d="M207.1,395.22c0,.09-.194.134-.419.12s-.4-.1-.389-.179.194-.134.419-.12S207.1,395.131,207.1,395.22Z" transform="translate(-206.289 -395.038)" fill="#263238"/>
                  </g>
                </g>
              </g>
            </g>
          </g>
          <g id="Group_1548" data-name="Group 1548" transform="translate(58.994 81.553)">
            <g id="Group_1516" data-name="Group 1516" transform="translate(6.235)">
              <path id="Path_3160" data-name="Path 3160" d="M342.359,287.511l-5.351-26.847c-3.946-21.974-34.755-23.484-34.755-23.484l-24.171-.389s-17.923-2.407-28.985,10.06c-11.45,12.9-25.517,28.163-25.517,28.163l10.748,27.012,25.427-20.987a26.037,26.037,0,0,0-3.408,12.213c0,7.16,7.474,10.464,7.474,10.464l2.287,21.78-7.594,35.173,78.942-3.169a78.277,78.277,0,0,0-11.645-33.17l1.465-36.8h15.083Z" transform="translate(-223.58 -236.605)" fill="#05a19c"/>
            </g>
            <g id="Group_1517" data-name="Group 1517" transform="translate(91.109 20.815)">
              <path id="Path_3161" data-name="Path 3161" d="M280.376,250.53a7.36,7.36,0,0,1,.419,1.719c.254,1.271.553,2.84.927,4.709.807,4.156,1.854,9.567,3,15.546,1.151,6.084,2.153,11.6,2.78,15.606.314,2,.553,3.632.688,4.754a9.159,9.159,0,0,1,.12,1.764,7.36,7.36,0,0,1-.419-1.719c-.254-1.271-.553-2.84-.927-4.709-.807-4.156-1.854-9.567-3-15.546-1.151-6.084-2.153-11.585-2.78-15.591-.314-2-.553-3.632-.688-4.754A9.257,9.257,0,0,1,280.376,250.53Z" transform="translate(-280.359 -250.53)" fill="#263238"/>
            </g>
            <g id="Group_1518" data-name="Group 1518" transform="translate(96.239 49.156)">
              <path id="Path_3162" data-name="Path 3162" d="M312.969,269.834c0,.209-6.532.419-14.59.434s-14.59-.12-14.59-.344,6.532-.419,14.59-.434S312.969,269.625,312.969,269.834Z" transform="translate(-283.79 -269.489)" fill="#263238"/>
            </g>
            <path id="Path_3163" data-name="Path 3163" d="M347.832,293.9C346.277,281,344.2,270.01,344.2,270.01H316.246s3.468,16.353,2.691,20.15c-.673,3.3-54.845,5.5-68.957,5.71-.837-.628-2.063.434-3.154-.523a11.553,11.553,0,0,1-2.407-2.96,17.612,17.612,0,0,1-1.928-4.38,1.441,1.441,0,0,0-2.676-.613c-.568,1.211.075,5.232,2.75,9.118s-4.35,1.869-6.921,1.181S225,295.258,224.179,295.9c-1.226.942-.448,2.466,2.138,3.094,2.616.628,10.21,3.064,9.806,4.44s-13.468-2.332-13.468-2.332-2.676-1.256-3.2.329c-.957,2.84,13.2,5.71,14.56,5.949.942.164.538,1.674-.463,1.45-1.031-.239-12.945-3.991-13.947-1.106-.777,2.212,11.63,2.481,13.678,4.664s-9.388-1.181-10.045.957c-.239.792,4.514,1.166,11.361,2.123,6.4.9,18.3.822,21.152.747,15.86.867,71.946,2.033,83.92,1.181C353.617,316.44,348.37,298.337,347.832,293.9Z" transform="translate(-219.409 -220.075)" fill="#ffcfad"/>
            <g id="Group_1519" data-name="Group 1519" transform="translate(39.583 27.064)">
              <path id="Path_3164" data-name="Path 3164" d="M245.906,279.315a19.817,19.817,0,0,1,.942-3.632c.329-1.106.733-2.422,1.241-3.872.254-.732.538-1.48.852-2.257.179-.419.4-.777.508-1.121a3.633,3.633,0,0,0,.15-1.151,17.776,17.776,0,0,0-.374-2.481c-.15-.807-.3-1.6-.434-2.362-.254-1.435-.478-2.765-.7-4.006a18.183,18.183,0,0,1-.448-3.722,17.789,17.789,0,0,1,.987,3.617c.269,1.226.553,2.541.867,3.976.15.762.314,1.54.478,2.347a16.645,16.645,0,0,1,.4,2.6,4.171,4.171,0,0,1-.179,1.42c-.164.463-.389.837-.538,1.181-.329.762-.613,1.495-.882,2.212-.493,1.36-.972,2.631-1.39,3.8A15.14,15.14,0,0,1,245.906,279.315Z" transform="translate(-245.889 -254.71)" fill="#263238"/>
            </g>
            <g id="Group_1520" data-name="Group 1520" transform="translate(92.053 28.095)" opacity="0.3">
              <path id="Path_3166" data-name="Path 3166" d="M280.99,255.4c.987,14.978,1.57,28.776,1.854,43.769a11.228,11.228,0,0,0,5.636-1.779C289.241,291.007,284.4,271.529,280.99,255.4Z" transform="translate(-280.99 -255.4)"/>
            </g>
            <g id="Group_1521" data-name="Group 1521" transform="translate(55.503 14.742)">
              <path id="Path_3167" data-name="Path 3167" d="M256.66,252.929c-.209-.03-.179-1.57.344-3.393s1.315-3.154,1.495-3.064-.254,1.525-.747,3.274S256.869,252.959,256.66,252.929Z" transform="translate(-256.539 -246.467)" fill="#fafafa"/>
            </g>
            <g id="Group_1522" data-name="Group 1522" transform="translate(36.01 17.661)">
              <path id="Path_3168" data-name="Path 3168" d="M247.208,251.918c-.12.179-1.181-.344-2.227-1.33s-1.629-2.018-1.45-2.153.987.643,1.988,1.585S247.342,251.739,247.208,251.918Z" transform="translate(-243.498 -248.42)" fill="#fafafa"/>
            </g>
            <g id="Group_1523" data-name="Group 1523" transform="translate(23.116 33.118)">
              <path id="Path_3169" data-name="Path 3169" d="M236.334,259.208c-.06,0-.135-.135-.209-.4l.344-.03a9.828,9.828,0,0,1,0,3.692c-.389,2.287-1.375,3.9-1.555,3.812-.209-.09.433-1.779.792-3.946.269-1.54.329-2.9.419-3.543l.344-.03C236.423,259.044,236.393,259.193,236.334,259.208Z" transform="translate(-234.873 -258.76)" fill="#fafafa"/>
            </g>
            <g id="Group_1524" data-name="Group 1524" transform="translate(17.636 46.595)">
              <path id="Path_3170" data-name="Path 3170" d="M237.475,270.264c-.075.194-1.54-.179-3.274-.852s-3.079-1.375-2.99-1.585,1.54.179,3.274.852S237.549,270.054,237.475,270.264Z" transform="translate(-231.207 -267.776)" fill="#fafafa"/>
            </g>
            <g id="Group_1525" data-name="Group 1525" transform="translate(36.581 35.041)">
              <path id="Path_3171" data-name="Path 3171" d="M244,265.493c-.209-.03-.164-1.345.314-2.885s1.2-2.646,1.375-2.556-.179,1.3-.643,2.78S244.209,265.523,244,265.493Z" transform="translate(-243.88 -260.047)" fill="#fafafa"/>
            </g>
            <g id="Group_1526" data-name="Group 1526" transform="translate(45.115 6.174)">
              <path id="Path_3172" data-name="Path 3172" d="M254.673,241.026c.015.209-1.121.448-2.526.508s-2.541-.06-2.556-.269,1.121-.448,2.526-.508S254.658,240.8,254.673,241.026Z" transform="translate(-249.59 -240.735)" fill="#fafafa"/>
            </g>
            <g id="Group_1527" data-name="Group 1527" transform="translate(50.088 30.098)">
              <path id="Path_3173" data-name="Path 3173" d="M255.777,262.3c-.135.164-1.345-.747-2.153-2.392s-.792-3.154-.583-3.169.538,1.33,1.286,2.825C255.044,261.06,255.941,262.137,255.777,262.3Z" transform="translate(-252.916 -256.74)" fill="#fafafa"/>
            </g>
            <g id="Group_1528" data-name="Group 1528" transform="translate(74.388 29.38)">
              <path id="Path_3174" data-name="Path 3174" d="M274.281,256.275c.15.149-.807,1.345-2.227,2.556s-2.736,1.973-2.87,1.809.972-1.2,2.362-2.392C272.951,257.053,274.132,256.126,274.281,256.275Z" transform="translate(-269.173 -256.259)" fill="#fafafa"/>
            </g>
            <g id="Group_1529" data-name="Group 1529" transform="translate(62.187 25.241)">
              <path id="Path_3175" data-name="Path 3175" d="M265.2,253.52c.135.179-.7,1-1.854,1.854s-2.2,1.405-2.317,1.241c-.135-.179.7-1,1.854-1.854S265.061,253.355,265.2,253.52Z" transform="translate(-261.011 -253.49)" fill="#fafafa"/>
            </g>
            <g id="Group_1530" data-name="Group 1530" transform="translate(67.383 9.893)">
              <path id="Path_3176" data-name="Path 3176" d="M269.918,247.867c-.09.179-1.644-.434-3.184-1.764s-2.392-2.75-2.227-2.87,1.256,1.031,2.735,2.287S270.023,247.673,269.918,247.867Z" transform="translate(-264.487 -243.223)" fill="#fafafa"/>
            </g>
            <g id="Group_1531" data-name="Group 1531" transform="translate(83.638 10.319)">
              <path id="Path_3177" data-name="Path 3177" d="M279.65,243.541c.135.164-.718,1.031-1.9,1.928s-2.242,1.48-2.377,1.3c-.135-.164.717-1.031,1.9-1.928S279.515,243.361,279.65,243.541Z" transform="translate(-275.361 -243.508)" fill="#fafafa"/>
            </g>
            <g id="Group_1532" data-name="Group 1532" transform="translate(100.48 10.023)">
              <path id="Path_3178" data-name="Path 3178" d="M286.691,249.618c-.209-.075.135-1.465.478-3.184s.568-3.139.792-3.124.344,1.495-.03,3.274C287.588,248.378,286.885,249.693,286.691,249.618Z" transform="translate(-286.627 -243.31)" fill="#fafafa"/>
            </g>
            <g id="Group_1533" data-name="Group 1533" transform="translate(97.215 25.641)">
              <path id="Path_3179" data-name="Path 3179" d="M290,258.843c-.149.164-1.51-.852-3.035-2.242s-2.646-2.661-2.511-2.825c.15-.164,1.51.852,3.035,2.242C289.028,257.423,290.149,258.679,290,258.843Z" transform="translate(-284.443 -253.758)" fill="#fafafa"/>
            </g>
            <g id="Group_1534" data-name="Group 1534" transform="translate(112.931 18.912)">
              <path id="Path_3180" data-name="Path 3180" d="M295.007,255.017c-.194-.09.194-1.435.867-3.034s1.39-2.81,1.585-2.721-.194,1.435-.867,3.034S295.2,255.106,295.007,255.017Z" transform="translate(-294.956 -249.257)" fill="#fafafa"/>
            </g>
            <g id="Group_1535" data-name="Group 1535" transform="translate(113.485 35.399)">
              <path id="Path_3181" data-name="Path 3181" d="M295.361,266.854c-.194-.1.463-1.659,1.465-3.468.987-1.809,1.958-3.2,2.138-3.094s-.463,1.659-1.465,3.468S295.541,266.959,295.361,266.854Z" transform="translate(-295.327 -260.286)" fill="#fafafa"/>
            </g>
            <g id="Group_1536" data-name="Group 1536" transform="translate(99.445 39.325)">
              <path id="Path_3182" data-name="Path 3182" d="M289.934,268.2c-.164.135-1.2-.942-2.3-2.407s-1.839-2.736-1.674-2.87,1.2.942,2.3,2.407C289.351,266.78,290.1,268.066,289.934,268.2Z" transform="translate(-285.935 -262.912)" fill="#fafafa"/>
            </g>
            <g id="Group_1537" data-name="Group 1537" transform="translate(84.4 44.156)">
              <path id="Path_3183" data-name="Path 3183" d="M275.9,274c-.194-.09.583-2.093,2.048-4.29s3-3.692,3.169-3.558-1.091,1.839-2.511,3.976C277.17,272.282,276.094,274.09,275.9,274Z" transform="translate(-275.87 -266.144)" fill="#fafafa"/>
            </g>
            <g id="Group_1538" data-name="Group 1538" transform="translate(67.219 43.384)">
              <path id="Path_3184" data-name="Path 3184" d="M267.925,272.881c-.194.09-1.136-1.45-2.108-3.453s-1.6-3.692-1.405-3.8c.194-.09,1.136,1.45,2.108,3.453S268.119,272.777,267.925,272.881Z" transform="translate(-264.376 -265.628)" fill="#fafafa"/>
            </g>
            <g id="Group_1539" data-name="Group 1539" transform="translate(46.781 46.616)">
              <path id="Path_3185" data-name="Path 3185" d="M257.485,267.8c.134.164-1.256,1.614-3.124,3.259s-3.5,2.825-3.647,2.676,1.256-1.614,3.124-3.259S257.335,267.641,257.485,267.8Z" transform="translate(-250.704 -267.79)" fill="#fafafa"/>
            </g>
            <g id="Group_1540" data-name="Group 1540" transform="translate(54.21 59.379)">
              <path id="Path_3186" data-name="Path 3186" d="M261.558,282.265c-.179.135-1.42-1.256-3.02-2.87s-2.99-2.87-2.855-3.049,1.764.822,3.408,2.5S261.722,282.146,261.558,282.265Z" transform="translate(-255.674 -276.328)" fill="#fafafa"/>
            </g>
            <g id="Group_1541" data-name="Group 1541" transform="translate(72.095 58.999)">
              <path id="Path_3187" data-name="Path 3187" d="M267.685,282.959c-.194-.06.209-1.854,1.33-3.812s2.481-3.2,2.631-3.064-.882,1.57-1.958,3.453C268.612,281.4,267.895,283.034,267.685,282.959Z" transform="translate(-267.639 -276.073)" fill="#fafafa"/>
            </g>
            <g id="Group_1542" data-name="Group 1542" transform="translate(82.104 61.995)">
              <path id="Path_3188" data-name="Path 3188" d="M281.249,283.866c-.149.149-1.809-1-3.707-2.586s-3.334-3-3.2-3.184,1.779.987,3.707,2.586S281.4,283.717,281.249,283.866Z" transform="translate(-274.334 -278.078)" fill="#fafafa"/>
            </g>
            <g id="Group_1543" data-name="Group 1543" transform="translate(81.963 19.216)">
              <path id="Path_3189" data-name="Path 3189" d="M279.816,253.586c-.09.194-1.585-.374-3.154-1.54s-2.556-2.422-2.407-2.571,1.345.822,2.87,1.943C278.635,252.539,279.92,253.392,279.816,253.586Z" transform="translate(-274.24 -249.46)" fill="#fafafa"/>
            </g>
            <g id="Group_1544" data-name="Group 1544" transform="translate(58.099 99.901)">
              <path id="Path_3190" data-name="Path 3190" d="M263.29,303.487c.09.209-1.136.867-2.481,1.854s-2.347,1.943-2.511,1.809.613-1.375,2.048-2.437C261.8,303.651,263.23,303.292,263.29,303.487Z" transform="translate(-258.275 -303.436)" fill="#fafafa"/>
            </g>
            <g id="Group_1545" data-name="Group 1545" transform="translate(78.683 100.637)">
              <path id="Path_3191" data-name="Path 3191" d="M274.563,310.628c-.194.075-.912-1.36-1.6-3.214s-1.061-3.408-.867-3.483.912,1.36,1.6,3.214C274.369,309,274.758,310.553,274.563,310.628Z" transform="translate(-272.046 -303.928)" fill="#fafafa"/>
            </g>
            <g id="Group_1546" data-name="Group 1546" transform="translate(94.698 100.864)">
              <path id="Path_3192" data-name="Path 3192" d="M287.5,304.095c.149.15-.777,1.375-2.078,2.736s-2.481,2.347-2.646,2.2.777-1.375,2.078-2.736S287.349,303.945,287.5,304.095Z" transform="translate(-282.759 -304.08)" fill="#fafafa"/>
            </g>
            <g id="Group_1547" data-name="Group 1547" transform="translate(106.429 108.697)">
              <path id="Path_3193" data-name="Path 3193" d="M297.114,311.338c-.149.164-1.36-.792-3.154-1.136-1.779-.389-3.274.015-3.348-.194-.1-.179,1.465-.987,3.5-.568S297.279,311.218,297.114,311.338Z" transform="translate(-290.607 -309.32)" fill="#fafafa"/>
            </g>
          </g>
          <g id="Group_1555" data-name="Group 1555" transform="translate(10.04 181.35)">
            <g id="Group_1553" data-name="Group 1553">
              <path id="Path_3194" data-name="Path 3194" d="M355.98,320.936s-103.233-21.63-113.234-16.892S186.66,422.7,186.66,422.7l37.1,15.965L263.7,341.864s72.275,26.4,84.906,23.783S355.98,320.936,355.98,320.936Z" transform="translate(-186.66 -303.366)" fill="#d9d6d6"/>
              <path id="Path_3195" data-name="Path 3195" d="M291.078,319.18c-1.585.523-61.288,25.068-65.5,32.961S231.7,491.056,231.7,491.056h33.963l-2.108-116.448,66.3-16.787Z" transform="translate(-167.904 -295.541)" fill="#d9d6d6"/>
              <g id="Group_1549" data-name="Group 1549" transform="translate(69.913 34.472)">
                <path id="Path_3196" data-name="Path 3196" d="M325.811,354.5a4.294,4.294,0,0,1-.972-.12c-.718-.12-1.629-.284-2.78-.493-2.407-.448-5.89-1.121-10.18-2.033-8.565-1.809-20.375-4.544-33.23-8.237-6.428-1.854-12.5-3.8-17.983-5.68-5.456-1.943-10.359-3.767-14.4-5.486-2.033-.822-3.842-1.644-5.426-2.362s-2.945-1.345-4.036-1.9c-1.031-.523-1.869-.942-2.526-1.271a4.181,4.181,0,0,1-.852-.493,3.917,3.917,0,0,1,.927.344c.658.3,1.525.673,2.586,1.136,1.106.508,2.481,1.106,4.1,1.779s3.423,1.465,5.456,2.242c4.051,1.659,8.954,3.423,14.41,5.322,5.486,1.839,11.555,3.752,17.968,5.621,12.841,3.677,24.6,6.5,33.14,8.446,4.2.942,7.639,1.719,10.12,2.287,1.136.254,2.048.478,2.75.643A3.881,3.881,0,0,1,325.811,354.5Z" transform="translate(-233.43 -326.427)" fill="#263238"/>
              </g>
              <g id="Group_1550" data-name="Group 1550" transform="translate(55.693 46.067)">
                <path id="Path_3197" data-name="Path 3197" d="M225.909,374.823a9.005,9.005,0,0,1-.314-1.958c-.15-1.42-.344-3.229-.568-5.366-.209-2.317-.463-5.023-.747-7.982-.239-2.99-.673-6.353-.015-9.881a15.328,15.328,0,0,1,4.963-8.535,26.175,26.175,0,0,1,6.787-4.365c2.093-.957,3.842-1.57,5.038-1.988a8.76,8.76,0,0,1,1.913-.553c.06.135-2.631,1.076-6.712,3.034a27.276,27.276,0,0,0-6.547,4.395,14.986,14.986,0,0,0-4.679,8.162c-.628,3.348-.239,6.682-.03,9.672.209,2.96.4,5.665.568,8,.135,2.153.239,3.961.314,5.4A8.708,8.708,0,0,1,225.909,374.823Z" transform="translate(-223.917 -334.183)" fill="#263238"/>
              </g>
              <g id="Group_1551" data-name="Group 1551" transform="translate(87.474 75.415)">
                <path id="Path_3198" data-name="Path 3198" d="M245.181,353.852c.09-.194,1.958.434,4.171,1.405,2.227.972,3.946,1.928,3.857,2.123s-1.958-.434-4.171-1.42C246.825,355,245.091,354.046,245.181,353.852Z" transform="translate(-245.178 -353.816)" fill="#263238"/>
              </g>
              <g id="Group_1552" data-name="Group 1552" transform="translate(90.449 71.86)">
                <path id="Path_3199" data-name="Path 3199" d="M247.2,351.441c.209-.09,1.151,1.794,2.706,3.827s3.094,3.468,2.945,3.647c-.12.164-1.958-1.031-3.573-3.184C247.65,353.609,247.007,351.516,247.2,351.441Z" transform="translate(-247.167 -351.438)" fill="#263238"/>
              </g>
            </g>
            <g id="Group_1554" data-name="Group 1554" transform="translate(95.726 77.236)">
              <path id="Path_3200" data-name="Path 3200" d="M258.489,355.043c.03.015-.1.284-.523.538a3.948,3.948,0,0,1-1.973.464,23.009,23.009,0,0,0-2.825.075,1.98,1.98,0,0,0-1.689,2.167c-.045,4.978-.194,9.074-.419,9.059s-.389-4.051-.359-9.1a3.119,3.119,0,0,1,.643-1.928,2.665,2.665,0,0,1,1.7-.9,16.354,16.354,0,0,1,2.945.09A5.045,5.045,0,0,0,258.489,355.043Z" transform="translate(-250.698 -355.035)" fill="#263238"/>
            </g>
          </g>
          <path id="Path_3201" data-name="Path 3201" d="M250.46,304.424l70.362,5.65-3-7.878-66.67-.957Z" transform="translate(-145.05 -123.068)" opacity="0.3"/>
        </g>
        <g id="Group_1560" data-name="Group 1560" transform="translate(0 100.456)">
          <path id="Path_3202" data-name="Path 3202" d="M515.171,293.03H100.37v11.077h22.183L111.118,514.49l6.308.344,11.465-210.727H492.555L502.3,514.669h6.338l-9.761-210.562h16.294Z" transform="translate(-100.37 -227.586)" fill="#263238"/>
          <g id="Group_1559" data-name="Group 1559" transform="translate(120.977)">
            <g id="Group_1557" data-name="Group 1557">
              <path id="Path_3203" data-name="Path 3203" d="M181.3,249.28,204.305,316.5h104.16l-.777-3.468-42.109-1.3-19.4-62.484Z" transform="translate(-181.3 -249.25)" fill="#263238"/>
            </g>
            <g id="Group_1558" data-name="Group 1558" transform="translate(38.206 27.548)">
              <path id="Path_3204" data-name="Path 3204" d="M214.813,271.732c.688,2.751-.493,5.456-2.631,6.024s-4.44-1.2-5.127-3.946.493-5.456,2.631-6.024S214.125,268.981,214.813,271.732Z" transform="translate(-206.859 -267.679)" fill="#fff"/>
            </g>
          </g>
        </g>
      </g>
    </g>
  </g>
</svg>
