<svg xmlns="http://www.w3.org/2000/svg" width="182.643" height="41.671" viewBox="0 0 182.643 41.671">
  <g id="Group_741" data-name="Group 741" transform="translate(-1706.115 -311.561)">
    <g id="Group_738" data-name="Group 738" transform="translate(1706.115 311.561)">
      <path id="Path_2549" data-name="Path 2549" d="M814.681,864.743H828.43a49.351,49.351,0,0,0-6.37,13.33c.627,4.963,5.876,8.956,10.973,11.98H799.526a1.806,1.806,0,0,1,0-3.612h13.882a1.83,1.83,0,0,0,1.806-1.806,1.8,1.8,0,0,0-1.826-1.806h-3.651a1.816,1.816,0,1,1-.02-3.632h2.777a1.79,1.79,0,0,0,1.787-1.806,1.818,1.818,0,0,0-1.806-1.806h-5.058a1.8,1.8,0,0,1-1.826-1.806,1.818,1.818,0,0,1,1.806-1.806h9.927a1.806,1.806,0,1,0-.02-3.612H814.68a1.809,1.809,0,0,1,0-3.618Zm7.474,19.891a1.792,1.792,0,0,0-1.806-1.806h-.589a1.782,1.782,0,0,0-1.806,1.806,1.806,1.806,0,0,0,1.806,1.806h.589a1.806,1.806,0,0,0,1.806-1.806Zm-7.339-23.5h0Zm-6.428,3.613h1.179a1.806,1.806,0,0,1,0,3.612h-1.179a1.806,1.806,0,0,1,0-3.612ZM803.33,879.2h1.179a1.816,1.816,0,1,1,.02,3.632H803.35a1.816,1.816,0,0,1-.02-3.632Z" transform="translate(-797.72 -848.448)" fill="#4db0ab"/>
      <g id="Group_737" data-name="Group 737" transform="translate(22.66 0)">
        <path id="Path_2550" data-name="Path 2550" d="M1011.981,768.707a11.749,11.749,0,0,0-21.507-2.833l-10.5,18.2-.058.1v.019a11.708,11.708,0,0,0,4.354,15.917l.1.056h.019A11.7,11.7,0,0,0,1000.3,795.8l10.516-18.179.056-.1v-.019A11.672,11.672,0,0,0,1011.981,768.707Zm-18.459-.262-4.488,7.777-1.6-.932,4.621-8.005a9.145,9.145,0,0,1,5.629-4.317,9.249,9.249,0,0,1,8.881,2.339C1001.68,762.8,995.956,764.242,993.522,768.445Z" transform="translate(-978.398 -760.008)" fill="#4db0ab"/>
        <g id="Group_736" data-name="Group 736" transform="translate(0.069 15.039)">
          <path id="Path_2551" data-name="Path 2551" d="M997.17,915.6a10.659,10.659,0,0,1-5.26-1.39l-.216-.123h-.011a10.709,10.709,0,0,1-3.867-14.488l.123-.216v-.013l4.589-7.955a12.741,12.741,0,0,0,1.326.892l17.23,9.938-4.615,7.979a10.651,10.651,0,0,1-6.507,5.012,10.946,10.946,0,0,1-2.792.364Z" transform="translate(-985.486 -889.978)" fill="#fff"/>
          <path id="Path_2552" data-name="Path 2552" d="M986.289,882.726c.181.118.365.231.551.34l.005,0,0,0,16.408,9.465-4.146,7.169a9.717,9.717,0,0,1-5.931,4.569,9.98,9.98,0,0,1-2.55.333,9.722,9.722,0,0,1-4.8-1.267l-.386-.22a9.769,9.769,0,0,1-3.354-13.109l.246-.433v-.009l3.948-6.844m-.554-2.806-5.219,9.046-.057.094v.019a11.65,11.65,0,0,0,4.333,15.837l.094.056h.019a11.543,11.543,0,0,0,5.725,1.513,11.883,11.883,0,0,0,3.035-.4,11.625,11.625,0,0,0,7.076-5.449l5.087-8.794-18.04-10.406a11.752,11.752,0,0,1-2.054-1.519Z" transform="translate(-978.947 -879.92)" fill="#4db0ab"/>
        </g>
      </g>
    </g>
    <text id="PHARMEDICA" transform="translate(1765.758 343.078)" fill="#212121" font-size="19" font-family="AlHadari-Medium, AlHadari" font-weight="500"><tspan x="0" y="0">PHARMEDICA</tspan></text>
  </g>
</svg>
