<?xml version="1.0" encoding="UTF-8" standalone="no"?>
<svg
   xmlns:dc="http://purl.org/dc/elements/1.1/"
   xmlns:cc="http://creativecommons.org/ns#"
   xmlns:rdf="http://www.w3.org/1999/02/22-rdf-syntax-ns#"
   xmlns:svg="http://www.w3.org/2000/svg"
   xmlns="http://www.w3.org/2000/svg"
   xmlns:sodipodi="http://sodipodi.sourceforge.net/DTD/sodipodi-0.dtd"
   xmlns:inkscape="http://www.inkscape.org/namespaces/inkscape"
   width="115.802"
   height="64.955"
   viewBox="0 0 115.802 64.955"
   version="1.1"
   id="svg5"
   sodipodi:docname="abovePharmName.svg"
   inkscape:version="0.92.3 (2405546, 2018-03-11)">
  <metadata
     id="metadata11">
    <rdf:RDF>
      <cc:Work
         rdf:about="">
        <dc:format>image/svg+xml</dc:format>
        <dc:type
           rdf:resource="http://purl.org/dc/dcmitype/StillImage" />
        <dc:title></dc:title>
      </cc:Work>
    </rdf:RDF>
  </metadata>
  <defs
     id="defs9" />
  <sodipodi:namedview
     pagecolor="#ffffff"
     bordercolor="#666666"
     borderopacity="1"
     objecttolerance="10"
     gridtolerance="10"
     guidetolerance="10"
     inkscape:pageopacity="0"
     inkscape:pageshadow="2"
     inkscape:window-width="1366"
     inkscape:window-height="706"
     id="namedview7"
     showgrid="false"
     inkscape:zoom="2.5301808"
     inkscape:cx="57.901001"
     inkscape:cy="32.477501"
     inkscape:window-x="-8"
     inkscape:window-y="-8"
     inkscape:window-maximized="1"
     inkscape:current-layer="svg5" />
  <path
     inkscape:connector-curvature="0"
     style="fill:#01807b;fill-rule:evenodd"
     data-name="Path 3995"
     d="m 40.785,36.521174 10.574,6.1 -1.511,2.62 -10.574,-6.1 z m 30.027,6.939 a 1.511,1.511 0 0 0 0,-2.136 l -6.927,-6.927 2.136,-2.136 6.927,6.927 a 4.532,4.532 0 0 1 0,6.408 z m 9.246,-0.551 a 10.056,10.056 0 0 1 -17.166,7.112 l -3.538,-3.54 2.136,-2.136 3.542,3.538 a 7.0342983,7.0342983 0 1 0 9.949,-9.947 l -10.028,-10.024 -6.485,6.485 -2.136,-2.136 6.485,-6.485 -10.024,-10.024 a 7.035,7.035 0 0 0 -9.948,9.949 l -2.136,2.136 a 10.056473,10.056473 0 1 1 14.223,-14.221 l 22.181,22.183 a 9.991,9.991 0 0 1 2.945,7.11 z m -34.742,7.036 a 9.063,9.063 0 1 1 9.063,-9.063 9.063,9.063 0 0 1 -9.063,9.063 z m 0,-21.147 a 12.084,12.084 0 1 0 12.084,12.084 12.084,12.084 0 0 0 -12.084,-12.085 z"
     id="prefix__Path_3995" />
</svg>
