<?xml version="1.0" encoding="UTF-8" standalone="no"?>
<svg
   xmlns:dc="http://purl.org/dc/elements/1.1/"
   xmlns:cc="http://creativecommons.org/ns#"
   xmlns:rdf="http://www.w3.org/1999/02/22-rdf-syntax-ns#"
   xmlns:svg="http://www.w3.org/2000/svg"
   xmlns="http://www.w3.org/2000/svg"
   xmlns:sodipodi="http://sodipodi.sourceforge.net/DTD/sodipodi-0.dtd"
   xmlns:inkscape="http://www.inkscape.org/namespaces/inkscape"
   width="20.901"
   height="20.91"
   viewBox="0 0 20.901 20.91"
   version="1.1"
   id="svg30"
   sodipodi:docname="dateIcon.svg"
   inkscape:version="0.92.3 (2405546, 2018-03-11)">
  <metadata
     id="metadata34">
    <rdf:RDF>
      <cc:Work
         rdf:about="">
        <dc:format>image/svg+xml</dc:format>
        <dc:type
           rdf:resource="http://purl.org/dc/dcmitype/StillImage" />
        <dc:title></dc:title>
      </cc:Work>
    </rdf:RDF>
  </metadata>
  <sodipodi:namedview
     pagecolor="#ffffff"
     bordercolor="#666666"
     borderopacity="1"
     objecttolerance="10"
     gridtolerance="10"
     guidetolerance="10"
     inkscape:pageopacity="0"
     inkscape:pageshadow="2"
     inkscape:window-width="1366"
     inkscape:window-height="706"
     id="namedview32"
     showgrid="false"
     inkscape:zoom="11.286466"
     inkscape:cx="10.4505"
     inkscape:cy="10.455"
     inkscape:window-x="-8"
     inkscape:window-y="-8"
     inkscape:window-maximized="1"
     inkscape:current-layer="svg30" />
  <defs
     id="defs4">
    <style
       id="style2">
            .prefix__cls-2,.prefix__cls-3{fill:#ffc401}.prefix__cls-2{opacity:.15}
        </style>
  </defs>
  <g
     id="prefix__Schedue">
    <path
       id="prefix__Path_113"
       d="M.546 0A.546.546 0 110 .546.546.546 0 01.546 0z"
       data-name="Path 113"
       transform="translate(15.915 15.912)"
       style="opacity:.2;fill:#ffc401" />
    <rect
       id="prefix__Rectangle_74"
       width="1.756"
       height="1.756"
       class="prefix__cls-2"
       data-name="Rectangle 74"
       rx=".878"
       transform="translate(6.939 8.687)" />
    <rect
       id="prefix__Rectangle_75"
       width="1.756"
       height="1.756"
       class="prefix__cls-2"
       data-name="Rectangle 75"
       rx=".878"
       transform="translate(11.328 8.687)" />
    <rect
       id="prefix__Rectangle_76"
       width="1.756"
       height="1.756"
       class="prefix__cls-2"
       data-name="Rectangle 76"
       rx=".878"
       transform="translate(11.328 12.199)" />
    <rect
       id="prefix__Rectangle_77"
       width="2.634"
       height="1.756"
       class="prefix__cls-2"
       data-name="Rectangle 77"
       rx=".878"
       transform="translate(2.55 8.687)" />
    <rect
       id="prefix__Rectangle_78"
       width="1.756"
       height="1.756"
       class="prefix__cls-2"
       data-name="Rectangle 78"
       rx=".878"
       transform="translate(15.717 8.687)" />
    <rect
       id="prefix__Rectangle_79"
       width="1.756"
       height="1.756"
       class="prefix__cls-2"
       data-name="Rectangle 79"
       rx=".878"
       transform="translate(6.939 12.199)" />
    <rect
       id="prefix__Rectangle_80"
       width="2.634"
       height="1.756"
       class="prefix__cls-2"
       data-name="Rectangle 80"
       rx=".878"
       transform="translate(2.55 12.199)" />
    <rect
       id="prefix__Rectangle_81"
       width="1.756"
       height="1.756"
       class="prefix__cls-2"
       data-name="Rectangle 81"
       rx=".878"
       transform="translate(6.939 16.588)" />
    <rect
       id="prefix__Rectangle_82"
       width="2.634"
       height="1.756"
       class="prefix__cls-2"
       data-name="Rectangle 82"
       rx=".878"
       transform="translate(2.55 16.588)" />
    <g
       id="prefix__Group_67"
       data-name="Group 67">
      <path
         id="prefix__Path_101"
         d="M20.462 4.09h-1.393v-.7a1.393 1.393 0 10-2.787 0v.7H13.5v-.7a1.393 1.393 0 10-2.787 0v.7H7.922v-.7a1.393 1.393 0 10-2.787 0v.7H3.742A1.744 1.744 0 002 5.832v14.63A1.744 1.744 0 003.742 22.2h10.45a.348.348 0 000-.7H3.742A1.045 1.045 0 012.7 20.462V8.967h18.807v4.877a.348.348 0 00.7 0V5.832a1.744 1.744 0 00-1.745-1.742zm-3.483-.7a.7.7 0 111.393 0v2.09a.7.7 0 01-1.393 0zm-5.574 0a.7.7 0 111.393 0v2.09a.7.7 0 11-1.393 0zm-5.574 0a.7.7 0 111.393 0v2.09a.7.7 0 01-1.393 0zM2.7 8.27V5.832a1.045 1.045 0 011.042-1.045h1.393v.7a1.393 1.393 0 002.787 0v-.7h2.787v.7a1.393 1.393 0 002.787 0v-.7h2.787v.7a1.393 1.393 0 102.787 0v-.7h1.393a1.045 1.045 0 011.045 1.045V8.27z"
         class="prefix__cls-3"
         data-name="Path 101"
         transform="translate(-2 -2)" />
      <path
         id="prefix__Path_102"
         d="M44.678 37.735a.348.348 0 000-.7h-1.393a.348.348 0 00-.348.348v1.397a.348.348 0 00.7 0v-.455a3.823 3.823 0 11-1.8-1.393.349.349 0 00.244-.653 4.535 4.535 0 101.985 1.457z"
         class="prefix__cls-3"
         data-name="Path 102"
         transform="translate(-24.126 -24.149)" />
      <path
         id="prefix__Path_103"
         d="M44.787 42.154v-1.806a.348.348 0 00-.7 0v1.806a1.045 1.045 0 00-.633.633h-1.106a.348.348 0 000 .7h1.109a1.043 1.043 0 101.329-1.329zm-.348 1.329a.348.348 0 11.348-.348.348.348 0 01-.349.348z"
         class="prefix__cls-3"
         data-name="Path 103"
         transform="translate(-28.066 -26.763)" />
      <path
         id="prefix__Path_104"
         d="M23.09 28.438H21.7a.7.7 0 01-.7-.7V26.7a.7.7 0 01.7-.7h1.39a.7.7 0 01.7.7v1.045a.7.7 0 01-.7.693zM21.7 26.7v1.045h1.39V26.7z"
         class="prefix__cls-3"
         data-name="Path 104"
         transform="translate(-14.381 -17.64)" />
      <path
         id="prefix__Path_105"
         d="M35.09 28.438H33.7a.7.7 0 01-.7-.7V26.7a.7.7 0 01.7-.7h1.39a.7.7 0 01.7.7v1.045a.7.7 0 01-.7.693zM33.7 26.7v1.045h1.39V26.7z"
         class="prefix__cls-3"
         data-name="Path 105"
         transform="translate(-22.201 -17.64)" />
      <path
         id="prefix__Path_106"
         d="M11.09 28.438H9.7a.7.7 0 01-.7-.7V26.7a.7.7 0 01.7-.7h1.39a.7.7 0 01.7.7v1.045a.7.7 0 01-.7.693zM9.7 26.7v1.045h1.39V26.7z"
         class="prefix__cls-3"
         data-name="Path 106"
         transform="translate(-6.562 -17.64)" />
      <path
         id="prefix__Path_107"
         d="M47.09 28.438H45.7a.7.7 0 01-.7-.7V26.7a.7.7 0 01.7-.7h1.39a.7.7 0 01.7.7v1.045a.7.7 0 01-.7.693zM45.7 26.7v1.045h1.39V26.7z"
         class="prefix__cls-3"
         data-name="Path 107"
         transform="translate(-30.021 -17.64)" />
      <path
         id="prefix__Path_108"
         d="M23.09 39.438H21.7a.7.7 0 01-.7-.7V37.7a.7.7 0 01.7-.7h1.39a.7.7 0 01.7.7v1.045a.7.7 0 01-.7.693zM21.7 37.7v1.045h1.39V37.7z"
         class="prefix__cls-3"
         data-name="Path 108"
         transform="translate(-14.381 -24.808)" />
      <path
         id="prefix__Path_109"
         d="M33.7 39.438a.7.7 0 01-.7-.7V37.7a.7.7 0 01.7-.7h1.045a.348.348 0 110 .7H33.7v1.045a.348.348 0 010 .7z"
         class="prefix__cls-3"
         data-name="Path 109"
         transform="translate(-22.201 -24.808)" />
      <path
         id="prefix__Path_110"
         d="M11.09 39.438H9.7a.7.7 0 01-.7-.7V37.7a.7.7 0 01.7-.7h1.39a.7.7 0 01.7.7v1.045a.7.7 0 01-.7.693zM9.7 37.7v1.045h1.39V37.7z"
         class="prefix__cls-3"
         data-name="Path 110"
         transform="translate(-6.562 -24.808)" />
      <path
         id="prefix__Path_111"
         d="M23.09 50.438H21.7a.7.7 0 01-.7-.7V48.7a.7.7 0 01.7-.7h1.39a.7.7 0 01.7.7v1.045a.7.7 0 01-.7.693zM21.7 48.7v1.045h1.39V48.7z"
         class="prefix__cls-3"
         data-name="Path 111"
         transform="translate(-14.381 -31.976)" />
      <path
         id="prefix__Path_112"
         d="M11.09 50.438H9.7a.7.7 0 01-.7-.7V48.7a.7.7 0 01.7-.7h1.39a.7.7 0 01.7.7v1.045a.7.7 0 01-.7.693zM9.7 48.7v1.045h1.39V48.7z"
         class="prefix__cls-3"
         data-name="Path 112"
         transform="translate(-6.562 -31.976)" />
    </g>
  </g>
</svg>
