<?xml version="1.0" encoding="UTF-8" standalone="no"?>
<svg
   xmlns:dc="http://purl.org/dc/elements/1.1/"
   xmlns:cc="http://creativecommons.org/ns#"
   xmlns:rdf="http://www.w3.org/1999/02/22-rdf-syntax-ns#"
   xmlns:svg="http://www.w3.org/2000/svg"
   xmlns="http://www.w3.org/2000/svg"
   xmlns:sodipodi="http://sodipodi.sourceforge.net/DTD/sodipodi-0.dtd"
   xmlns:inkscape="http://www.inkscape.org/namespaces/inkscape"
   width="23.94"
   height="32.645"
   viewBox="0 0 23.94 32.645"
   version="1.1"
   id="svg19"
   sodipodi:docname="navCompleteIcon.svg"
   inkscape:version="0.92.3 (2405546, 2018-03-11)">
  <metadata
     id="metadata23">
    <rdf:RDF>
      <cc:Work
         rdf:about="">
        <dc:format>image/svg+xml</dc:format>
        <dc:type
           rdf:resource="http://purl.org/dc/dcmitype/StillImage" />
        <dc:title></dc:title>
      </cc:Work>
    </rdf:RDF>
  </metadata>
  <sodipodi:namedview
     pagecolor="#ffffff"
     bordercolor="#666666"
     borderopacity="1"
     objecttolerance="10"
     gridtolerance="10"
     guidetolerance="10"
     inkscape:pageopacity="0"
     inkscape:pageshadow="2"
     inkscape:window-width="1366"
     inkscape:window-height="706"
     id="namedview21"
     showgrid="false"
     inkscape:zoom="7.2292846"
     inkscape:cx="-7.6031674"
     inkscape:cy="16.3225"
     inkscape:window-x="-8"
     inkscape:window-y="-8"
     inkscape:window-maximized="1"
     inkscape:current-layer="svg19" />
  <defs
     id="defs4">
    <style
       id="style2">
            .prefix__cls-1{fill:none}.prefix__cls-2{fill:#ffc401}
        </style>
  </defs>
  <g
     id="prefix___006-list"
     data-name="006-list"
     transform="matrix(0.98844585,0,0,0.91947672,-0.49422293,4.0261633e-4)">
    <path
       id="prefix__Path_162"
       d="M 24.838,15.078 V 8 H 8.5 v 31.579 h 22.873 v -24.5 z m 0,0"
       class="prefix__cls-1"
       data-name="Path 162"
       transform="translate(-7.467,-7.466)"
       inkscape:connector-curvature="0"
       style="fill:none" />
    <path
       id="prefix__Path_163"
       d="M 254.9,14.933 248.5,8 v 6.933 z m 0,0"
       class="prefix__cls-1"
       data-name="Path 163"
       transform="translate(-230.994,-7.466)"
       inkscape:connector-curvature="0"
       style="fill:none" />
    <g
       id="prefix__Group_84"
       data-name="Group 84"
       transform="translate(0.5)">
      <path
         id="prefix__Path_164"
         d="M 24.433,7.584 A 0.524,0.524 0 0 0 24.409,7.456 0.391,0.391 0 0 0 24.392,7.402 0.526,0.526 0 0 0 24.292,7.247 L 17.766,0.174 A 0.522,0.522 0 0 0 17.6,0.057 0.48,0.48 0 0 0 17.55,0.037 0.537,0.537 0 0 0 17.4,0.005 H 1.044 A 0.544,0.544 0 0 0 0.5,0.544 V 32.1 a 0.544,0.544 0 0 0 0.544,0.544 H 23.9 A 0.544,0.544 0 0 0 24.444,32.1 V 7.618 A 0.294,0.294 0 0 0 24.433,7.584 Z M 22.653,7.073 H 17.911 V 1.936 Z M 1.588,31.558 V 1.088 h 15.234 v 6.53 a 0.544,0.544 0 0 0 0.544,0.544 h 5.985 v 23.4 z m 0,0"
         class="prefix__cls-2"
         data-name="Path 164"
         transform="translate(-0.5)"
         inkscape:connector-curvature="0"
         style="fill:#ffc401" />
      <path
         id="prefix__Path_165"
         d="m 124.767,160 h -11.734 a 0.5335,0.5335 0 1 0 0,1.067 h 11.733 a 0.5335,0.5335 0 1 0 0,-1.067 z m 0,0"
         class="prefix__cls-2"
         data-name="Path 165"
         transform="translate(-104.56,-149.111)"
         inkscape:connector-curvature="0"
         style="fill:#ffc401" />
      <path
         id="prefix__Path_166"
         d="m 124.767,305.067 h -11.734 a 0.5335,0.5335 0 1 1 0,-1.067 h 11.733 a 0.5335,0.5335 0 1 1 0,1.067 z m 0,0"
         class="prefix__cls-2"
         data-name="Path 166"
         transform="translate(-104.56,-283.31)"
         inkscape:connector-curvature="0"
         style="fill:#ffc401" />
      <path
         id="prefix__Path_167"
         d="m 124.767,377.067 h -11.734 a 0.5335,0.5335 0 1 1 0,-1.067 h 11.733 a 0.5335,0.5335 0 1 1 0,1.067 z m 0,0"
         class="prefix__cls-2"
         data-name="Path 167"
         transform="translate(-104.56,-350.41)"
         inkscape:connector-curvature="0"
         style="fill:#ffc401" />
      <path
         id="prefix__Path_168"
         d="m 48.7,128.68 a 0.533,0.533 0 0 1 -0.377,-0.156 l -1.508,-1.509 a 0.53315851,0.53315851 0 0 1 0.754,-0.754 l 1.131,1.132 2.64,-2.64 a 0.53315851,0.53315851 0 1 1 0.754,0.754 l -3.017,3.017 A 0.533,0.533 0 0 1 48.7,128.68 Z m 0,0"
         class="prefix__cls-2"
         data-name="Path 168"
         transform="translate(-43.583,-116.091)"
         inkscape:connector-curvature="0"
         style="fill:#ffc401" />
      <path
         id="prefix__Path_169"
         d="m 124.767,233.067 h -11.734 a 0.5335,0.5335 0 0 1 0,-1.067 h 11.733 a 0.5335,0.5335 0 1 1 0,1.067 z m 0,0"
         class="prefix__cls-2"
         data-name="Path 169"
         transform="translate(-104.56,-216.211)"
         inkscape:connector-curvature="0"
         style="fill:#ffc401" />
      <path
         id="prefix__Path_170"
         d="m 48.7,200.68 a 0.533,0.533 0 0 1 -0.377,-0.156 l -1.508,-1.509 a 0.53315851,0.53315851 0 0 1 0.754,-0.754 l 1.131,1.132 2.64,-2.64 a 0.53315851,0.53315851 0 1 1 0.754,0.754 l -3.017,3.017 A 0.533,0.533 0 0 1 48.7,200.68 Z m 0,0"
         class="prefix__cls-2"
         data-name="Path 170"
         transform="translate(-43.583,-183.18)"
         inkscape:connector-curvature="0"
         style="fill:#ffc401" />
      <path
         id="prefix__Path_171"
         d="m 48.7,272.863 a 0.533,0.533 0 0 1 -0.377,-0.156 L 46.811,271.2 a 0.53315851,0.53315851 0 0 1 0.754,-0.754 l 1.131,1.132 2.64,-2.64 a 0.53315851,0.53315851 0 0 1 0.754,0.754 l -3.017,3.017 a 0.533,0.533 0 0 1 -0.373,0.154 z m 0,0"
         class="prefix__cls-2"
         data-name="Path 171"
         transform="translate(-43.583,-250.452)"
         inkscape:connector-curvature="0"
         style="fill:#ffc401" />
      <path
         id="prefix__Path_172"
         d="m 48.7,344.863 a 0.533,0.533 0 0 1 -0.377,-0.156 L 46.811,343.2 a 0.53315851,0.53315851 0 0 1 0.754,-0.754 l 1.131,1.132 2.64,-2.64 a 0.53315851,0.53315851 0 0 1 0.754,0.754 l -3.017,3.017 a 0.533,0.533 0 0 1 -0.373,0.154 z m 0,0"
         class="prefix__cls-2"
         data-name="Path 172"
         transform="translate(-43.583,-317.541)"
         inkscape:connector-curvature="0"
         style="fill:#ffc401" />
    </g>
  </g>
</svg>
