<?xml version="1.0" encoding="UTF-8" standalone="no"?>
<svg
   xmlns:dc="http://purl.org/dc/elements/1.1/"
   xmlns:cc="http://creativecommons.org/ns#"
   xmlns:rdf="http://www.w3.org/1999/02/22-rdf-syntax-ns#"
   xmlns:svg="http://www.w3.org/2000/svg"
   xmlns="http://www.w3.org/2000/svg"
   xmlns:sodipodi="http://sodipodi.sourceforge.net/DTD/sodipodi-0.dtd"
   xmlns:inkscape="http://www.inkscape.org/namespaces/inkscape"
   id="prefix__refresh"
   width="44.658"
   height="44.658"
   viewBox="0 0 44.658 44.658"
   version="1.1"
   sodipodi:docname="navInprogressIcon.svg"
   inkscape:version="0.92.3 (2405546, 2018-03-11)">
  <metadata
     id="metadata21">
    <rdf:RDF>
      <cc:Work
         rdf:about="">
        <dc:format>image/svg+xml</dc:format>
        <dc:type
           rdf:resource="http://purl.org/dc/dcmitype/StillImage" />
        <dc:title></dc:title>
      </cc:Work>
    </rdf:RDF>
  </metadata>
  <sodipodi:namedview
     pagecolor="#ffffff"
     bordercolor="#666666"
     borderopacity="1"
     objecttolerance="10"
     gridtolerance="10"
     guidetolerance="10"
     inkscape:pageopacity="0"
     inkscape:pageshadow="2"
     inkscape:window-width="1366"
     inkscape:window-height="706"
     id="namedview19"
     showgrid="false"
     inkscape:zoom="5.2846073"
     inkscape:cx="-4.4468772"
     inkscape:cy="22.329"
     inkscape:window-x="-8"
     inkscape:window-y="-8"
     inkscape:window-maximized="1"
     inkscape:current-layer="prefix__refresh" />
  <defs
     id="defs4">
    <style
       id="style2">
            .prefix__cls-1,.prefix__cls-2,.prefix__cls-5{fill:#ffc401}.prefix__cls-1{opacity:.5}.prefix__cls-5{opacity:.8}
        </style>
  </defs>
  <g
     id="g35"
     transform="matrix(0.66949891,0,0,0.67796872,7.7583815,6.8122374)">
    <path
       transform="translate(-203.832)"
       data-name="Path 321"
       class="prefix__cls-1"
       d="M 226.161,8.283 A 2.122,2.122 0 0 1 224,6.123 V 2.161 a 2.161,2.161 0 0 1 4.322,0 v 3.962 a 2.167,2.167 0 0 1 -2.161,2.16 z"
       id="prefix__Path_321"
       inkscape:connector-curvature="0"
       style="opacity:0.5;fill:#ffc401" />
    <path
       transform="translate(-203.832,-367.625)"
       data-name="Path 322"
       class="prefix__cls-2"
       d="M 226.161,412.283 A 2.122,2.122 0 0 1 224,410.123 v -3.962 a 2.161,2.161 0 1 1 4.322,0 v 3.962 a 2.122,2.122 0 0 1 -2.161,2.16 z"
       id="prefix__Path_322"
       inkscape:connector-curvature="0"
       style="fill:#ffc401" />
    <path
       style="opacity:0.3;fill:#ffc401"
       transform="translate(-102.048,-27.795)"
       data-name="Path 323"
       d="m 116.238,38.24 a 2.171,2.171 0 0 1 -1.873,-1.08 l -1.945,-3.385 a 2.1623157,2.1623157 0 0 1 3.746,-2.161 L 118.111,35 a 2.205,2.205 0 0 1 -0.792,2.953 2.67,2.67 0 0 1 -1.081,0.287 z"
       id="prefix__Path_323"
       inkscape:connector-curvature="0" />
    <path
       transform="translate(-286.225,-345.918)"
       data-name="Path 324"
       class="prefix__cls-2"
       d="m 318.638,387.84 a 2.171,2.171 0 0 1 -1.873,-1.08 l -1.945,-3.385 a 2.1623157,2.1623157 0 0 1 3.746,-2.161 l 1.945,3.385 a 2.205,2.205 0 0 1 -0.792,2.953 2.033,2.033 0 0 1 -1.081,0.288 z"
       id="prefix__Path_324"
       inkscape:connector-curvature="0"
       style="fill:#ffc401" />
    <path
       style="opacity:0.22999998;fill:#ffc401"
       transform="translate(-27.795,-102.048)"
       data-name="Path 325"
       d="m 36.079,118.4 a 2.033,2.033 0 0 1 -1.08,-0.288 l -3.385,-1.945 a 2.1623157,2.1623157 0 0 1 2.161,-3.746 l 3.385,1.945 a 2.205,2.205 0 0 1 0.792,2.953 2.171,2.171 0 0 1 -1.873,1.081 z"
       id="prefix__Path_325"
       inkscape:connector-curvature="0" />
    <path
       transform="translate(-345.918,-286.225)"
       data-name="Path 326"
       class="prefix__cls-5"
       d="m 385.751,320.8 a 2.033,2.033 0 0 1 -1.08,-0.288 l -3.457,-1.945 a 2.1623157,2.1623157 0 0 1 2.161,-3.746 l 3.385,1.945 a 2.205,2.205 0 0 1 0.792,2.953 1.981,1.981 0 0 1 -1.801,1.081 z"
       id="prefix__Path_326"
       inkscape:connector-curvature="0"
       style="opacity:0.8;fill:#ffc401" />
    <path
       style="opacity:0.2;fill:#ffc401"
       transform="translate(0,-203.832)"
       data-name="Path 327"
       d="M 6.123,228.322 H 2.161 a 2.161,2.161 0 0 1 0,-4.322 h 3.962 a 2.122,2.122 0 0 1 2.161,2.161 2.167,2.167 0 0 1 -2.161,2.161 z"
       id="prefix__Path_327"
       inkscape:connector-curvature="0" />
    <path
       transform="translate(-367.625,-203.832)"
       data-name="Path 328"
       class="prefix__cls-5"
       d="m 410.123,228.322 h -3.962 a 2.161,2.161 0 1 1 0,-4.322 h 3.962 a 2.161,2.161 0 0 1 0,4.322 z"
       id="prefix__Path_328"
       inkscape:connector-curvature="0"
       style="opacity:0.8;fill:#ffc401" />
    <path
       transform="translate(-27.067,-286.225)"
       data-name="Path 329"
       class="prefix__cls-2"
       d="m 31.893,320.8 a 2.171,2.171 0 0 1 -1.873,-1.08 2.205,2.205 0 0 1 0.792,-2.953 l 3.385,-1.945 a 2.1623157,2.1623157 0 0 1 2.161,3.746 l -3.385,1.945 a 1.736,1.736 0 0 1 -1.08,0.287 z"
       id="prefix__Path_329"
       inkscape:connector-curvature="0"
       style="fill:#ffc401" />
    <path
       transform="translate(-345.918,-102.048)"
       data-name="Path 330"
       class="prefix__cls-5"
       d="m 382.293,118.4 a 2.171,2.171 0 0 1 -1.873,-1.08 2.205,2.205 0 0 1 0.792,-2.953 l 3.385,-1.945 a 2.1623157,2.1623157 0 1 1 2.161,3.746 l -3.385,1.945 a 2.033,2.033 0 0 1 -1.08,0.287 z"
       id="prefix__Path_330"
       inkscape:connector-curvature="0"
       style="opacity:0.8;fill:#ffc401" />
    <path
       transform="translate(-102.048,-345.918)"
       data-name="Path 331"
       class="prefix__cls-2"
       d="m 114.293,387.84 a 2.033,2.033 0 0 1 -1.08,-0.288 2.205,2.205 0 0 1 -0.792,-2.953 l 1.945,-3.385 a 2.1623157,2.1623157 0 0 1 3.746,2.161 l -1.945,3.385 a 2.171,2.171 0 0 1 -1.874,1.08 z"
       id="prefix__Path_331"
       inkscape:connector-curvature="0"
       style="fill:#ffc401" />
    <path
       transform="translate(-286.225,-27.795)"
       data-name="Path 332"
       class="prefix__cls-1"
       d="M 316.693,38.24 A 2.033,2.033 0 0 1 315.613,37.952 2.205,2.205 0 0 1 314.821,35 l 1.945,-3.385 a 2.1623157,2.1623157 0 1 1 3.746,2.161 l -1.945,3.385 a 2.34,2.34 0 0 1 -1.874,1.079 z"
       id="prefix__Path_332"
       inkscape:connector-curvature="0"
       style="opacity:0.5;fill:#ffc401" />
  </g>
</svg>
