<?xml version="1.0" encoding="UTF-8" standalone="no"?>
<svg
   xmlns:dc="http://purl.org/dc/elements/1.1/"
   xmlns:cc="http://creativecommons.org/ns#"
   xmlns:rdf="http://www.w3.org/1999/02/22-rdf-syntax-ns#"
   xmlns:svg="http://www.w3.org/2000/svg"
   xmlns="http://www.w3.org/2000/svg"
   xmlns:sodipodi="http://sodipodi.sourceforge.net/DTD/sodipodi-0.dtd"
   xmlns:inkscape="http://www.inkscape.org/namespaces/inkscape"
   id="prefix__Group_83"
   width="23.938"
   height="29.922"
   data-name="Group 83"
   viewBox="0 0 23.938 29.922"
   version="1.1"
   sodipodi:docname="navPendingIcon.svg"
   inkscape:version="0.92.3 (2405546, 2018-03-11)">
  <metadata
     id="metadata15">
    <rdf:RDF>
      <cc:Work
         rdf:about="">
        <dc:format>image/svg+xml</dc:format>
        <dc:type
           rdf:resource="http://purl.org/dc/dcmitype/StillImage" />
        <dc:title></dc:title>
      </cc:Work>
    </rdf:RDF>
  </metadata>
  <sodipodi:namedview
     pagecolor="#ffffff"
     bordercolor="#666666"
     borderopacity="1"
     objecttolerance="10"
     gridtolerance="10"
     guidetolerance="10"
     inkscape:pageopacity="0"
     inkscape:pageshadow="2"
     inkscape:window-width="1366"
     inkscape:window-height="706"
     id="namedview13"
     showgrid="false"
     inkscape:zoom="7.8871731"
     inkscape:cx="11.969"
     inkscape:cy="14.961"
     inkscape:window-x="-8"
     inkscape:window-y="-8"
     inkscape:window-maximized="1"
     inkscape:current-layer="prefix__Group_83" />
  <defs
     id="defs4">
    <style
       id="style2">
            .prefix__cls-1{fill:#ffc401}
        </style>
  </defs>
  <path
     id="prefix__Path_156"
     d="M23.931 8.448a.5.5 0 00-.027-.133.464.464 0 00-.017-.047.5.5 0 00-.1-.141L20.945 5.28V.5a.5.5 0 00-.5-.5H.5a.5.5 0 00-.5.5v26.93a.5.5 0 00.5.5h2.492v1.5a.5.5 0 00.5.5h19.947a.5.5 0 00.5-.5V8.478c0-.01-.006-.019-.006-.03zM17.953 3.7l4.282 4.28h-4.282zM1 26.93V1h18.948v3.282l-2.14-2.14a.5.5 0 00-.144-.1c-.006 0-.011-.008-.018-.01s-.022 0-.032-.007A.465.465 0 0017.486 2a.25.25 0 00-.032 0H3.491a.5.5 0 00-.5.5v24.43zm21.94 1.995H3.989V2.993h12.966v5.485a.5.5 0 00.5.5h5.485zm0 0"
     class="prefix__cls-1"
     data-name="Path 156" />
  <path
     id="prefix__Path_157"
     d="M96.5 105h7.979a.5.5 0 000-1H96.5a.5.5 0 000 1zm0 0"
     class="prefix__cls-1"
     data-name="Path 157"
     transform="translate(-90.016 -97.517)" />
  <path
     id="prefix__Path_158"
     d="M96 176.5a.5.5 0 00.5.5h13.964a.5.5 0 100-1H96.5a.5.5 0 00-.5.5zm0 0"
     class="prefix__cls-1"
     data-name="Path 158"
     transform="translate(-90.016 -165.029)" />
  <path
     id="prefix__Path_159"
     d="M110.462 248H96.5a.5.5 0 100 1h13.964a.5.5 0 100-1zm0 0"
     class="prefix__cls-1"
     data-name="Path 159"
     transform="translate(-90.016 -232.54)" />
  <path
     id="prefix__Path_160"
     d="M110.462 320H96.5a.5.5 0 100 1h13.964a.5.5 0 100-1zm0 0"
     class="prefix__cls-1"
     data-name="Path 160"
     transform="translate(-90.016 -300.052)" />
  <path
     id="prefix__Path_161"
     d="M110.462 392H96.5a.5.5 0 100 1h13.964a.5.5 0 100-1zm0 0"
     class="prefix__cls-1"
     data-name="Path 161"
     transform="translate(-90.016 -367.564)" />
</svg>
