<?xml version="1.0" encoding="UTF-8" standalone="no"?>
<svg
   xmlns:dc="http://purl.org/dc/elements/1.1/"
   xmlns:cc="http://creativecommons.org/ns#"
   xmlns:rdf="http://www.w3.org/1999/02/22-rdf-syntax-ns#"
   xmlns:svg="http://www.w3.org/2000/svg"
   xmlns="http://www.w3.org/2000/svg"
   xmlns:sodipodi="http://sodipodi.sourceforge.net/DTD/sodipodi-0.dtd"
   xmlns:inkscape="http://www.inkscape.org/namespaces/inkscape"
   width="23.94"
   height="23.94"
   viewBox="0 0 23.94 23.94"
   version="1.1"
   id="svg25"
   sodipodi:docname="navStatisticsIcon.svg"
   inkscape:version="0.92.3 (2405546, 2018-03-11)">
  <metadata
     id="metadata29">
    <rdf:RDF>
      <cc:Work
         rdf:about="">
        <dc:format>image/svg+xml</dc:format>
        <dc:type
           rdf:resource="http://purl.org/dc/dcmitype/StillImage" />
      </cc:Work>
    </rdf:RDF>
  </metadata>
  <sodipodi:namedview
     pagecolor="#ffffff"
     bordercolor="#666666"
     borderopacity="1"
     objecttolerance="10"
     gridtolerance="10"
     guidetolerance="10"
     inkscape:pageopacity="0"
     inkscape:pageshadow="2"
     inkscape:window-width="1366"
     inkscape:window-height="706"
     id="namedview27"
     showgrid="false"
     inkscape:zoom="9.8579781"
     inkscape:cx="-2.383856"
     inkscape:cy="11.97"
     inkscape:window-x="-8"
     inkscape:window-y="-8"
     inkscape:window-maximized="1"
     inkscape:current-layer="svg25" />
  <defs
     id="defs4">
    <style
       id="style2">
            .prefix__cls-1{fill:none}.prefix__cls-2{fill:#ffc401}
        </style>
  </defs>
  <g
     id="prefix___001-bar-chart-1"
     data-name="001-bar-chart-1">
    <g
       id="prefix__Group_79"
       data-name="Group 79"
       transform="translate(.409 4.297)">
      <path
         id="prefix__Path_120"
         d="M264 162.046v13.914h4.092v-14.323L266.046 160zm0 0"
         class="prefix__cls-1"
         data-name="Path 120"
         transform="translate(-251.314 -156.726)" />
      <path
         id="prefix__Path_121"
         d="M392 98.046v17.188h4.092v-17.6L394.047 96zm0 0"
         class="prefix__cls-1"
         data-name="Path 121"
         transform="translate(-372.971 -96)" />
      <path
         id="prefix__Path_122"
         d="M8 312v8.185h4.092V312l-2.046 2.046zm0 0"
         class="prefix__cls-1"
         data-name="Path 122"
         transform="translate(-8 -300.951)" />
      <path
         id="prefix__Path_123"
         d="M136 226.046v10.64h4.092v-11.049L138.046 224zm0 0"
         class="prefix__cls-1"
         data-name="Path 123"
         transform="translate(-129.657 -217.452)" />
      <path
         id="prefix__Path_124"
         d="M392 98.046v17.188h4.092v-17.6L394.047 96zm0 0"
         class="prefix__cls-1"
         data-name="Path 124"
         transform="translate(-372.971 -96)" />
      <path
         id="prefix__Path_125"
         d="M136 226.046v10.64h4.092v-11.049L138.046 224zm0 0"
         class="prefix__cls-1"
         data-name="Path 125"
         transform="translate(-129.657 -217.452)" />
      <path
         id="prefix__Path_126"
         d="M8 312v8.185h4.092V312l-2.046 2.046zm0 0"
         class="prefix__cls-1"
         data-name="Path 126"
         transform="translate(-8 -300.951)" />
      <path
         id="prefix__Path_127"
         d="M264 162.046v13.914h4.092v-14.323L266.046 160zm0 0"
         class="prefix__cls-1"
         data-name="Path 127"
         transform="translate(-251.314 -156.726)" />
      <path
         id="prefix__Path_128"
         d="M8 312v8.185h4.092V312l-2.046 2.046zm0 0"
         class="prefix__cls-1"
         data-name="Path 128"
         transform="translate(-8 -300.951)" />
      <path
         id="prefix__Path_129"
         d="M136 226.046v10.64h4.092v-11.049L138.046 224zm0 0"
         class="prefix__cls-1"
         data-name="Path 129"
         transform="translate(-129.657 -217.452)" />
      <path
         id="prefix__Path_130"
         d="M264 162.046v13.914h4.092v-14.323L266.046 160zm0 0"
         class="prefix__cls-1"
         data-name="Path 130"
         transform="translate(-251.314 -156.726)" />
      <path
         id="prefix__Path_131"
         d="M392 98.046v17.188h4.092v-17.6L394.047 96zm0 0"
         class="prefix__cls-1"
         data-name="Path 131"
         transform="translate(-372.971 -96)" />
    </g>
    <path
       id="prefix__Path_132"
       d="M4.658 304.022a.407.407 0 00-.446.089l-1.757 1.757L.7 304.111a.409.409 0 00-.7.289v8.185a.409.409 0 00.409.409H4.5a.409.409 0 00.409-.409V304.4a.409.409 0 00-.253-.378zm-.566 8.153H.818v-6.787l1.348 1.348a.409.409 0 00.579 0l1.348-1.348zm0 0"
       class="prefix__cls-2"
       data-name="Path 132"
       transform="translate(0 -289.054)" />
    <path
       id="prefix__Path_133"
       d="M130.711 216.089a.409.409 0 00-.545.03l-2.046 2.046a.409.409 0 00-.12.289v10.64a.409.409 0 00.409.409h4.091a.409.409 0 00.409-.409v-11.049a.409.409 0 00-.153-.319zm1.381 12.6h-3.274v-10.065l1.667-1.667 1.607 1.285zm0 0"
       class="prefix__cls-2"
       data-name="Path 133"
       transform="translate(-121.657 -205.564)" />
    <path
       id="prefix__Path_134"
       d="M258.711 152.089a.409.409 0 00-.545.03l-2.046 2.046a.409.409 0 00-.12.289v13.914a.409.409 0 00.409.409h4.091a.409.409 0 00.409-.409v-14.323a.409.409 0 00-.153-.32zm1.381 15.87h-3.274v-13.335l1.667-1.667 1.607 1.285zm0 0"
       class="prefix__cls-2"
       data-name="Path 134"
       transform="translate(-243.314 -144.837)" />
    <path
       id="prefix__Path_135"
       d="M386.711 88.089a.409.409 0 00-.545.03l-2.046 2.046a.409.409 0 00-.12.289v17.188a.409.409 0 00.409.409h4.091a.409.409 0 00.409-.409v-17.6a.409.409 0 00-.154-.32zm1.381 19.144h-3.274V90.624l1.667-1.667 1.607 1.285zm0 0"
       class="prefix__cls-2"
       data-name="Path 135"
       transform="translate(-364.971 -84.111)" />
    <path
       id="prefix__Path_136"
       d="M24 .253A.4.4 0 0023.634 0h-3.192a.4.4 0 00-.4.409.4.4 0 00.4.409h2.228l-5.82 5.969-1.313-1.347a.392.392 0 00-.564 0l-4.107 4.212L9.552 8.3a.392.392 0 00-.564 0l-6.5 6.668-1.714-1.753a.392.392 0 00-.559 0 .417.417 0 000 .574L2.2 15.84a.392.392 0 00.564 0l6.5-6.668 1.314 1.348a.392.392 0 00.564 0l4.107-4.212 1.314 1.348a.392.392 0 00.564 0l6.1-6.258v2.285a.4.4 0 10.8 0V.409A.42.42 0 0024 .253zm0 0"
       class="prefix__cls-2"
       data-name="Path 136"
       transform="translate(-.093)" />
  </g>
</svg>
