<?xml version="1.0" encoding="UTF-8" standalone="no"?>
<svg
   xmlns:dc="http://purl.org/dc/elements/1.1/"
   xmlns:cc="http://creativecommons.org/ns#"
   xmlns:rdf="http://www.w3.org/1999/02/22-rdf-syntax-ns#"
   xmlns:svg="http://www.w3.org/2000/svg"
   xmlns="http://www.w3.org/2000/svg"
   xmlns:sodipodi="http://sodipodi.sourceforge.net/DTD/sodipodi-0.dtd"
   xmlns:inkscape="http://www.inkscape.org/namespaces/inkscape"
   width="20.187"
   height="19.851"
   viewBox="0 0 20.187 19.851"
   version="1.1"
   id="svg12"
   sodipodi:docname="paymentIcon.svg"
   inkscape:version="0.92.3 (2405546, 2018-03-11)">
  <metadata
     id="metadata16">
    <rdf:RDF>
      <cc:Work
         rdf:about="">
        <dc:format>image/svg+xml</dc:format>
        <dc:type
           rdf:resource="http://purl.org/dc/dcmitype/StillImage" />
        <dc:title></dc:title>
      </cc:Work>
    </rdf:RDF>
  </metadata>
  <sodipodi:namedview
     pagecolor="#ffffff"
     bordercolor="#666666"
     borderopacity="1"
     objecttolerance="10"
     gridtolerance="10"
     guidetolerance="10"
     inkscape:pageopacity="0"
     inkscape:pageshadow="2"
     inkscape:window-width="640"
     inkscape:window-height="480"
     id="namedview14"
     showgrid="false"
     inkscape:zoom="11.88857"
     inkscape:cx="10.0935"
     inkscape:cy="9.9254999"
     inkscape:window-x="0"
     inkscape:window-y="0"
     inkscape:window-maximized="0"
     inkscape:current-layer="svg12" />
  <defs
     id="defs4">
    <style
       id="style2">
            .prefix__cls-1{fill:#ffc401}
        </style>
  </defs>
  <g
     id="prefix__payment-method"
     transform="translate(.001)">
    <path
       id="prefix__Path_5573"
       d="M19.85 0h-6.843a1.694 1.694 0 00-1.19.492l-2.2 2.2H1.009A1.009 1.009 0 000 3.7v7.4a1.009 1.009 0 001.009 1.009h14.8a1.009 1.009 0 001.013-1.009V7.738h1.009a1.685 1.685 0 001.649-1.345h.37a.336.336 0 00.336-.336V.336A.336.336 0 0019.85 0zm-3.7 11.1a.336.336 0 01-.336.336H1.009a.336.336 0 01-.337-.336V3.7a.336.336 0 01.336-.336h12.113v.372l-1.335 1.335a.667.667 0 00-.194.444v.034a.669.669 0 00.2.477l.235.235a1.679 1.679 0 002.379 0l1.551-1.55h.2zm3.364-5.38h-.336a.336.336 0 00-.336.336 1.009 1.009 0 01-1.009 1.009h-1.011V4.71A1.684 1.684 0 0018.5 3.028h-.673a1.009 1.009 0 01-1.009 1.009h-1.005a.336.336 0 00-.238.1l-1.649 1.648a1.009 1.009 0 01-.527.28 1.027 1.027 0 01-.9-.28l-.236-.237L13.7 4.114a.337.337 0 00.1-.238v-.848a.336.336 0 00-.336-.336h-2.895L12.292.968a1.018 1.018 0 01.714-.3h6.507zm0 0"
       class="prefix__cls-1"
       data-name="Path 5573" />
    <path
       id="prefix__Path_5574"
       d="M138.692 112a2.692 2.692 0 102.692 2.692 2.692 2.692 0 00-2.692-2.692zm0 4.71a2.019 2.019 0 112.019-2.019 2.019 2.019 0 01-2.019 2.019zm0 0"
       class="prefix__cls-1"
       data-name="Path 5574"
       transform="translate(-130.281 -107.29)" />
    <path
       id="prefix__Path_5575"
       d="M33.319 96.269a1.346 1.346 0 01-1.05 1.05.337.337 0 00-.269.33v3.432a.337.337 0 00.269.33 1.346 1.346 0 011.05 1.05.337.337 0 00.329.269h1.38v-.673H33.9a2.014 2.014 0 00-1.231-1.231V97.9a2.014 2.014 0 001.231-1.228h1.124V96h-1.38a.337.337 0 00-.325.269zm0 0"
       class="prefix__cls-1"
       data-name="Path 5575"
       transform="translate(-30.655 -91.962)" />
    <path
       id="prefix__Path_5576"
       d="M298.355 169.8a2.014 2.014 0 00-1.231 1.231H296v.673h1.379a.337.337 0 00.329-.269 1.346 1.346 0 011.05-1.05.337.337 0 00.269-.33V168h-.673zm0 0"
       class="prefix__cls-1"
       data-name="Path 5576"
       transform="translate(-283.552 -160.934)" />
    <path
       id="prefix__Path_5577"
       d="M15.862 320.411a1.661 1.661 0 00-1.284.058l-4.359 2.03A1.682 1.682 0 008.748 320H3.7a2.35 2.35 0 00-2.127 1.346H.336a.337.337 0 00-.336.336v4.374a.336.336 0 00.336.336h9.123a1.7 1.7 0 00.711-.157l5.83-2.717a1.69 1.69 0 00.811-2.236 1.669 1.669 0 00-.95-.871zm-.147 2.5l-5.829 2.717a1.016 1.016 0 01-.427.094H.673v-3.7H1.8a.336.336 0 00.318-.226 1.675 1.675 0 011.583-1.12h5.047a1.009 1.009 0 010 2.019H5.72v.673h3.861a1.7 1.7 0 00.71-.157l4.573-2.129a1 1 0 011.337.484 1.03 1.03 0 01.095.429 1.015 1.015 0 01-.58.917zm0 0"
       class="prefix__cls-1"
       data-name="Path 5577"
       transform="translate(-.001 -306.542)" />
  </g>
</svg>
