<?xml version="1.0" encoding="UTF-8" standalone="no"?>
<!-- Created with Inkscape (http://www.inkscape.org/) -->

<svg
   xmlns:dc="http://purl.org/dc/elements/1.1/"
   xmlns:cc="http://creativecommons.org/ns#"
   xmlns:rdf="http://www.w3.org/1999/02/22-rdf-syntax-ns#"
   xmlns:svg="http://www.w3.org/2000/svg"
   xmlns="http://www.w3.org/2000/svg"
   xmlns:sodipodi="http://sodipodi.sourceforge.net/DTD/sodipodi-0.dtd"
   xmlns:inkscape="http://www.inkscape.org/namespaces/inkscape"
   width="20px"
   height="20px"
   viewBox="0 0 20 20"
   version="1.1"
   id="SVGRoot"
   inkscape:version="0.92.3 (2405546, 2018-03-11)"
   sodipodi:docname="setting.svg">
  <sodipodi:namedview
     id="base"
     pagecolor="#ffffff"
     bordercolor="#666666"
     borderopacity="1.0"
     inkscape:pageopacity="0.0"
     inkscape:pageshadow="2"
     inkscape:zoom="11.943847"
     inkscape:cx="10"
     inkscape:cy="10"
     inkscape:document-units="px"
     inkscape:current-layer="layer1"
     showgrid="false"
     inkscape:window-width="1366"
     inkscape:window-height="706"
     inkscape:window-x="-8"
     inkscape:window-y="-8"
     inkscape:window-maximized="1"
     inkscape:grid-bbox="true" />
  <defs
     id="defs831" />
  <metadata
     id="metadata834">
    <rdf:RDF>
      <cc:Work
         rdf:about="">
        <dc:format>image/svg+xml</dc:format>
        <dc:type
           rdf:resource="http://purl.org/dc/dcmitype/StillImage" />
        <dc:title></dc:title>
      </cc:Work>
    </rdf:RDF>
  </metadata>
  <g
     id="layer1"
     inkscape:groupmode="layer"
     inkscape:label="Layer 1">
    <path
       d="m 19.397786,12.315582 -1.730246,-0.94887 c 0.174648,-0.894862 0.174648,-1.8128753 0,-2.7077383 L 19.397786,7.7101039 C 19.596804,7.6021059 19.686161,7.3783884 19.621175,7.170099 19.170337,5.7969441 18.402695,4.5549296 17.399477,3.5212046 17.245133,3.3630608 16.993314,3.3244902 16.798354,3.4324957 l -1.730237,0.948862 C 14.34109,3.7873537 13.504393,3.3283511 12.598659,3.027492 V 1.1336137 c 0,-0.2160035 -0.158402,-0.40500371 -0.381792,-0.45128854 -1.490611,-0.31629498 -3.0177714,-0.30085905 -4.4352785,0 C 7.5581993,0.72859468 7.3997964,0.9176102 7.3997964,1.1336137 V 3.0313453 C 6.4981215,3.3360652 5.6614328,3.7950679 4.9303462,4.3852187 L 3.2041598,3.436349 C 3.0051416,3.3283511 2.7573815,3.3630379 2.6030459,3.5250654 1.5998282,4.5549296 0.83218507,5.7969441 0.38133941,7.17396 0.31227773,7.3822493 0.40574294,7.6059669 0.60472863,7.7139648 L 2.3349739,8.6628269 c -0.1746472,0.8948706 -0.1746472,1.8128761 0,2.7077471 l -1.73024527,0.948862 c -0.19901831,0.108005 -0.28836743,0.331715 -0.22338922,0.540004 0.45084566,1.373154 1.21848879,2.615169 2.22170649,3.648894 0.1543356,0.158144 0.4061548,0.196715 0.6011139,0.08872 l 1.7302454,-0.948869 c 0.7270276,0.594004 1.5637163,1.053014 2.4694586,1.353873 v 1.897732 c 0,0.216003 0.1584028,0.405004 0.381792,0.451288 1.4906035,0.316287 3.0177712,0.300859 4.4352702,0 0.223389,-0.04626 0.381792,-0.235285 0.381792,-0.451288 v -1.897732 c 0.901675,-0.30472 1.738372,-0.763722 2.469458,-1.353873 l 1.730245,0.948869 c 0.199019,0.107992 0.446779,0.07331 0.601115,-0.08872 1.003217,-1.029864 1.770861,-2.271879 2.221698,-3.648894 0.06093,-0.212142 -0.02847,-0.43586 -0.227448,-0.543858 z m -9.3985581,0.783004 c -1.7911647,0 -3.2492872,-1.38473 -3.2492872,-3.085747 0,-1.7010092 1.4581225,-3.0857392 3.2492872,-3.0857392 1.7911721,0 3.2492861,1.38473 3.2492861,3.0857392 0,1.701017 -1.458114,3.085747 -3.2492861,3.085747 z"
       id="path2"
       inkscape:connector-curvature="0"
       style="fill:none;stroke:#989898;stroke-width:0.69686508;stroke-miterlimit:4;stroke-dasharray:none;stroke-opacity:1" />
  </g>
</svg>
