<svg xmlns="http://www.w3.org/2000/svg" id="prefix___015-crutches" width="55.116" height="72.357" data-name="015-crutches" viewBox="0 0 55.116 72.357">
    <defs>
        <style>
            .prefix__cls-1{fill:#ffc401}.prefix__cls-2{fill:#fdbf00}.prefix__cls-3{fill:#f2f2f2}.prefix__cls-4{fill:#fff}.prefix__cls-5{fill:#05a19c}.prefix__cls-6{fill:#01807b}
        </style>
    </defs>
    <path id="prefix__Path_5100" d="M59.839 155.24H47.12a2.12 2.12 0 110-4.24h12.719a2.12 2.12 0 110 4.24zm0 0" class="prefix__cls-1" data-name="Path 5100" transform="translate(-38.64 -129.66)"/>
    <path id="prefix__Path_5101" d="M45 241h16.959v4.24H45zm0 0" class="prefix__cls-2" data-name="Path 5101" transform="translate(-38.64 -206.941)"/>
    <path id="prefix__Path_5102" d="M239.839 155.24H227.12a2.12 2.12 0 110-4.24h12.719a2.12 2.12 0 110 4.24zm0 0" class="prefix__cls-1" data-name="Path 5102" transform="translate(-193.202 -129.66)"/>
    <path id="prefix__Path_5103" d="M225 241h16.959v4.24H225zm0 0" class="prefix__cls-2" data-name="Path 5103" transform="translate(-193.202 -206.941)"/>
    <path id="prefix__Path_5104" d="M220.6 76.778a2.12 2.12 0 01-1.764-.944l-8.479-12.719a2.121 2.121 0 01-.357-1.176V32.12a2.12 2.12 0 014.24 0V61.3l6.36 9.539 6.36-9.539V32.12a2.12 2.12 0 114.24 0v29.819a2.121 2.121 0 01-.356 1.176l-8.479 12.719a2.12 2.12 0 01-1.765.944zm0 0" class="prefix__cls-3" data-name="Path 5104" transform="translate(-180.322 -25.76)"/>
    <path id="prefix__Path_5105" d="M272.12 356.579a2.119 2.119 0 01-2.12-2.12V333.12a2.12 2.12 0 114.24 0v21.34a2.119 2.119 0 01-2.12 2.119zm0 0" class="prefix__cls-3" data-name="Path 5105" transform="translate(-231.843 -284.222)"/>
    <path id="prefix__Path_5106" d="M40.6 76.778a2.12 2.12 0 01-1.764-.944l-8.48-12.719A2.121 2.121 0 0130 61.939V32.12a2.12 2.12 0 014.24 0V61.3l6.36 9.539 6.36-9.539V32.12a2.12 2.12 0 014.24 0v29.819a2.121 2.121 0 01-.356 1.176l-8.481 12.719a2.12 2.12 0 01-1.764.944zm0 0" class="prefix__cls-4" data-name="Path 5106" transform="translate(-25.76 -25.76)"/>
    <path id="prefix__Path_5107" d="M92.12 356.579A2.119 2.119 0 0190 354.46v-21.34a2.12 2.12 0 114.24 0v21.34a2.119 2.119 0 01-2.12 2.119zm0 0" class="prefix__cls-4" data-name="Path 5107" transform="translate(-77.281 -284.222)"/>
    <path id="prefix__Path_5108" d="M70.6 486.24h-8.48a2.12 2.12 0 110-4.24h8.48a2.12 2.12 0 110 4.24zm0 0" class="prefix__cls-5" data-name="Path 5108" transform="translate(-51.521 -413.882)"/>
    <path id="prefix__Path_5109" d="M55.116 2.12v4.24A2.1 2.1 0 0153 8.479H2.12A2.1 2.1 0 010 6.36V2.12A2.1 2.1 0 012.12 0H53a2.1 2.1 0 012.116 2.12zm0 0" class="prefix__cls-5" data-name="Path 5109"/>
    <path id="prefix__Path_5110" d="M222.558 2.12v4.24a2.1 2.1 0 01-2.12 2.12H195V0h25.438a2.1 2.1 0 012.12 2.12zm0 0" class="prefix__cls-6" data-name="Path 5110" transform="translate(-167.442)"/>
    <path id="prefix__Path_5111" d="M250.6 486.24h-8.48a2.12 2.12 0 110-4.24h8.48a2.12 2.12 0 110 4.24zm0 0" class="prefix__cls-6" data-name="Path 5111" transform="translate(-206.082 -413.882)"/>
</svg>
