<svg xmlns="http://www.w3.org/2000/svg" width="82.262" height="78.118" viewBox="0 0 82.262 78.118">
    <defs>
        <style>
            .prefix__cls-1{fill:#ffc401}
        </style>
    </defs>
    <g id="prefix___016-calendar" data-name="016-calendar">
        <path id="prefix__Path_2894" d="M50.058 190.509h6.572a1.9 1.9 0 001.9-1.9v-6.571a1.9 1.9 0 00-1.9-1.9h-6.572a1.9 1.9 0 00-1.9 1.9v6.571a1.9 1.9 0 001.9 1.9zm.519-7.955h5.534v5.534h-5.534z" class="prefix__cls-1" data-name="Path 2894" transform="translate(-42.968 -154.193)"/>
        <path id="prefix__Path_2895" d="M124.156 182.035v6.571a1.9 1.9 0 001.9 1.9h6.571a1.9 1.9 0 001.9-1.9v-6.571a1.9 1.9 0 00-1.9-1.9h-6.571a1.9 1.9 0 00-1.9 1.9zm2.421.519h5.534v5.534h-5.534z" class="prefix__cls-1" data-name="Path 2895" transform="translate(-105.825 -154.193)"/>
        <path id="prefix__Path_2896" d="M203.058 190.509h6.571a1.9 1.9 0 001.9-1.9v-6.571a1.9 1.9 0 00-1.9-1.9h-6.571a1.9 1.9 0 00-1.9 1.9v6.571a1.9 1.9 0 001.9 1.9zm.519-7.955h5.534v5.534h-5.534z" class="prefix__cls-1" data-name="Path 2896" transform="translate(-169.509 -154.193)"/>
        <path id="prefix__Path_2897" d="M279.058 190.509h6.571a1.9 1.9 0 001.9-1.9v-6.571a1.9 1.9 0 00-1.9-1.9h-6.571a1.9 1.9 0 00-1.9 1.9v6.571a1.9 1.9 0 001.9 1.9zm.519-7.955h5.534v5.534h-5.534z" class="prefix__cls-1" data-name="Path 2897" transform="translate(-232.367 -154.193)"/>
        <path id="prefix__Path_2898" d="M354.156 182.035v6.571a1.9 1.9 0 001.9 1.9h6.571a1.9 1.9 0 001.9-1.9v-6.571a1.9 1.9 0 00-1.9-1.9h-6.571a1.9 1.9 0 00-1.9 1.9zm2.421.519h5.534v5.534h-5.534z" class="prefix__cls-1" data-name="Path 2898" transform="translate(-296.051 -154.193)"/>
        <path id="prefix__Path_2899" d="M51.058 275.509h6.572a1.9 1.9 0 001.9-1.9v-6.571a1.9 1.9 0 00-1.9-1.9h-6.572a1.9 1.9 0 00-1.9 1.9v6.571a1.9 1.9 0 001.9 1.9zm.519-7.955h5.534v5.534h-5.534z" class="prefix__cls-1" data-name="Path 2899" transform="translate(-43.795 -224.494)"/>
        <path id="prefix__Path_2900" d="M133.63 265.133h-6.571a1.9 1.9 0 00-1.9 1.9v6.571a1.9 1.9 0 001.9 1.9h6.571a1.9 1.9 0 001.9-1.9v-6.571a1.9 1.9 0 00-1.9-1.9zm-.519 7.955h-5.534v-5.534h5.534z" class="prefix__cls-1" data-name="Path 2900" transform="translate(-106.652 -224.494)"/>
        <path id="prefix__Path_2901" d="M210.63 265.133h-6.571a1.9 1.9 0 00-1.9 1.9v6.571a1.9 1.9 0 001.9 1.9h6.571a1.9 1.9 0 001.9-1.9v-6.571a1.9 1.9 0 00-1.9-1.9zm-.519 7.955h-5.534v-5.534h5.534z" class="prefix__cls-1" data-name="Path 2901" transform="translate(-170.336 -224.494)"/>
        <path id="prefix__Path_2902" d="M49.156 352.779a1.9 1.9 0 001.9 1.9h6.574a1.9 1.9 0 001.9-1.9v-6.744a1.9 1.9 0 00-1.9-1.9h-6.572a1.9 1.9 0 00-1.9 1.9zm2.421-6.225h5.534v5.707h-5.534z" class="prefix__cls-1" data-name="Path 2902" transform="translate(-43.795 -289.832)"/>
        <path id="prefix__Path_2903" d="M133.63 354.682a1.9 1.9 0 001.9-1.9v-6.744a1.9 1.9 0 00-1.9-1.9h-6.571a1.9 1.9 0 00-1.9 1.9v6.744a1.9 1.9 0 001.9 1.9zm-6.053-8.128h5.534v5.707h-5.534z" class="prefix__cls-1" data-name="Path 2903" transform="translate(-106.652 -289.832)"/>
        <path id="prefix__Path_2904" d="M287.321 270.321a1.21 1.21 0 001.21-1.211v-2.075a1.9 1.9 0 00-1.9-1.9h-6.571a1.9 1.9 0 00-1.9 1.9v6.571a1.9 1.9 0 001.9 1.9h1.9a1.21 1.21 0 100-2.421h-1.383v-5.534h5.534v1.556a1.211 1.211 0 001.21 1.214z" class="prefix__cls-1" data-name="Path 2904" transform="translate(-233.194 -224.494)"/>
        <path id="prefix__Path_2905" d="M330.927 310.973a1.2 1.2 0 00.634-.18l8.376-5.159a1.211 1.211 0 00.576-1.031v-13.26a1.211 1.211 0 10-2.421 0v12.584l-7.8 4.8a1.211 1.211 0 00.636 2.242z" class="prefix__cls-1" data-name="Path 2905" transform="translate(-275.836 -245.171)"/>
        <path id="prefix__Path_2906" d="M78.461 45.7h.726a4.311 4.311 0 004.306-4.306v-6.955a4.311 4.311 0 00-4.306-4.306h-.726a4.311 4.311 0 00-4.306 4.306v6.952a4.311 4.311 0 004.306 4.309zm-1.885-11.261a1.887 1.887 0 011.885-1.885h.726a1.887 1.887 0 011.885 1.885v6.952a1.887 1.887 0 01-1.885 1.885h-.726a1.887 1.887 0 01-1.885-1.885z" class="prefix__cls-1" data-name="Path 2906" transform="translate(-64.471 -30.133)"/>
        <path id="prefix__Path_2907" d="M338.461 45.7h.726a4.311 4.311 0 004.306-4.306v-6.955a4.311 4.311 0 00-4.306-4.306h-.726a4.311 4.311 0 00-4.306 4.306v6.952a4.311 4.311 0 004.306 4.309zm-1.885-11.258a1.887 1.887 0 011.885-1.885h.726a1.887 1.887 0 011.885 1.885v6.952a1.887 1.887 0 01-1.885 1.885h-.726a1.887 1.887 0 01-1.885-1.885z" class="prefix__cls-1" data-name="Path 2907" transform="translate(-279.509 -30.133)"/>
        <path id="prefix__Path_2908" d="M116.367 77.554h37.872a1.211 1.211 0 100-2.421h-37.872a1.211 1.211 0 100 2.421z" class="prefix__cls-1" data-name="Path 2908" transform="translate(-98.382 -67.351)"/>
        <path id="prefix__Path_2909" d="M91.825 111.065V82.491a7.186 7.186 0 00-7.166-7.358H80.93a1.211 1.211 0 100 2.421h3.729a4.792 4.792 0 014.741 4.937v4.92H20.577v-4.92a5.247 5.247 0 015.272-4.937h3.2a1.211 1.211 0 100-2.421h-3.2a7.632 7.632 0 00-7.693 7.358v47.977a7.671 7.671 0 007.693 7.44h40.877a18.681 18.681 0 1025.1-26.843zm-65.976 24.421a5.285 5.285 0 01-5.272-5.019V89.832H89.4v19.914a18.681 18.681 0 00-24.2 25.74zm55.882 7.563A16.265 16.265 0 1198 126.784a16.265 16.265 0 01-16.269 16.265z" class="prefix__cls-1" data-name="Path 2909" transform="translate(-18.156 -67.351)"/>
    </g>
</svg>
