<svg xmlns="http://www.w3.org/2000/svg" id="prefix___021-babies" width="60" height="59.998" data-name="021-babies" viewBox="0 0 60 59.998">
    <defs>
        <style>
            .prefix__cls-2{fill:#01807b}.prefix__cls-4{fill:#ffc401}
        </style>
    </defs>
    <path id="prefix__Path_5137" d="M17.339 250.743A17.339 17.339 0 100 233.4a17.358 17.358 0 0017.339 17.343zm0-31.162A13.823 13.823 0 113.516 233.4a13.839 13.839 0 0113.823-13.818zm0 0" data-name="Path 5137" transform="translate(25.323 -190.746)" style="fill:#05a19c"/>
    <path id="prefix__Path_5138" d="M43.387 271.707a17.286 17.286 0 015.083-12.254l2.485 2.485a13.817 13.817 0 1019.54 19.54l2.485 2.485a17.331 17.331 0 01-29.593-12.255zm0 0" class="prefix__cls-2" data-name="Path 5138" transform="translate(-18.064 -229.048)"/>
    <path id="prefix__Path_5139" d="M75.743 143.9c3.179 3.179 13.294-1.782 22.593-11.08s14.259-19.414 11.08-22.593l-4.653-4.653-33.672 33.669zm0 0" data-name="Path 5139" transform="translate(-58.709 -93.199)" style="fill:#fdbf00"/>
    <path id="prefix__Path_5140" d="M178.539 270.766l-4.653-4.653 16.832-16.832 10.409 10.409c-9.3 9.3-19.41 14.254-22.588 11.076zm0 0" class="prefix__cls-4" data-name="Path 5140" transform="translate(-161.505 -220.068)"/>
    <path id="prefix__Path_5141" d="M122.831 109.407c9.3-9.3 19.414-14.259 22.593-11.08s-1.782 13.294-11.08 22.593-19.414 14.259-22.593 11.08 1.782-13.295 11.08-22.593zm0 0" class="prefix__cls-4" data-name="Path 5141" transform="translate(-99.369 -85.955)"/>
    <path id="prefix__Path_5142" d="M214.548 222.748c-3.179-3.179 1.78-13.291 11.076-22.588l11.513 11.513c-9.3 9.3-19.41 14.254-22.589 11.076zm0 0" data-name="Path 5142" transform="translate(-202.166 -176.704)" style="fill:#f2bb06"/>
    <path id="prefix__Path_5143" d="M168.269 155.871a1.756 1.756 0 10-1.242-.514 1.771 1.771 0 001.242.514zm0 0" class="prefix__cls-2" data-name="Path 5143" transform="translate(-129.541 -134.501)"/>
    <path id="prefix__Path_5144" d="M331.7 319.3a1.756 1.756 0 10-1.243-.514 1.768 1.768 0 001.243.514zm0 0" class="prefix__cls-2" data-name="Path 5144" transform="translate(-312.122 -278.779)"/>
    <path id="prefix__Path_5145" d="M238.307 34.856a5.655 5.655 0 002.909-1.194 29.277 29.277 0 003.725-3.21 29.274 29.274 0 003.21-3.725c.508-.729 2.052-2.948.563-4.438l-4.469-4.469a3.859 3.859 0 01-1.15-2.881 14.314 14.314 0 00-24.277-10.9 14.314 14.314 0 0010.606 24.565 3.83 3.83 0 012.861 1.126l4.493 4.493a2.088 2.088 0 001.529.632zm0 0" data-name="Path 5145" transform="translate(-214.479 -.001)" style="fill:#fff"/>
    <path id="prefix__Path_5146" d="M278.839 65.208a5.655 5.655 0 01-2.909 1.192 2.088 2.088 0 01-1.529-.632l-4.493-4.494a3.828 3.828 0 00-2.861-1.126 14.313 14.313 0 01-10.755-24.417L282.559 62a29.211 29.211 0 01-3.721 3.206zm0 0" data-name="Path 5146" transform="translate(-252.102 -31.547)" style="fill:#f2f2f2"/>
</svg>
