<svg xmlns="http://www.w3.org/2000/svg" width="60" height="60.029" viewBox="0 0 60 60.029">
    <defs>
        <style>
            .prefix__cls-1{fill:#fdbf00}.prefix__cls-2{fill:#ffc401}.prefix__cls-4{fill:#05a19c}.prefix__cls-5{fill:#01807b}
        </style>
    </defs>
    <g id="prefix___023-lipstick" data-name="023-lipstick" transform="translate(-.501)">
        <path id="prefix__Path_4926" d="M22.334 14.311l-3.367-12.9A1.76 1.76 0 0016.988.019 22.127 22.127 0 007.38 4.331l1.158 3.645-3.645-1.158a22.118 22.118 0 00-4.312 9.608 1.757 1.757 0 001.394 1.98l12.9 3.367h4.974l1.244-1.243 1.243-1.243zm0 0" class="prefix__cls-1" data-name="Path 4926" transform="translate(-.054)"/>
        <path id="prefix__Path_4927" d="M73.673 14.311l-3.367-12.9A1.76 1.76 0 0068.327.019a22.127 22.127 0 00-9.608 4.312l1.158 3.645L72.43 20.529l1.243-1.244zm0 0" class="prefix__cls-2" data-name="Path 4927" transform="translate(-51.393)"/>
        <path id="prefix__Path_4928" d="M46.127 43.073L40 36.941a12.744 12.744 0 00-2.487 2.487l6.127 6.132a1.759 1.759 0 102.487-2.487zm0 0" class="prefix__cls-1" data-name="Path 4928" transform="translate(-32.669 -32.61)"/>
        <path id="prefix__Path_4929" d="M54.841 43.073l-6.132-6.132a16.571 16.571 0 00-1.33 1.157l7.462 7.462a1.758 1.758 0 000-2.487zm0 0" data-name="Path 4929" transform="translate(-41.382 -32.61)" style="fill:#f2bb06"/>
        <path id="prefix__Path_4930" d="M167.791 159.763l-37.7-37.705-7.462 7.462 37.705 37.7a1.758 1.758 0 002.487 0l2.487-2.487 2.487-2.487a1.758 1.758 0 00-.004-2.483zm0 0" class="prefix__cls-4" data-name="Path 4930" transform="translate(-107.805 -107.748)"/>
        <path id="prefix__Path_4931" d="M195.88 159.763l-37.7-37.705-3.731 3.731 38.949 38.949 2.487-2.487a1.758 1.758 0 000-2.487zm0 0" class="prefix__cls-5" data-name="Path 4931" transform="translate(-135.895 -107.748)"/>
        <path id="prefix__Path_4932" d="M331.467 30.541l-15.392 15.391a1.741 1.741 0 01-2.487 0l-4.974-4.974a1.741 1.741 0 010-2.487l10.417-10.418a8.762 8.762 0 019.426-1.965 8.523 8.523 0 013.009 1.965 1.742 1.742 0 010 2.487zm0 0" class="prefix__cls-1" data-name="Path 4932" transform="translate(-271.527 -22.489)"/>
        <path id="prefix__Path_4933" d="M336.246 50.547l-2.487-2.487 17.356-17.36a8.521 8.521 0 013.009 1.965 1.742 1.742 0 010 2.487l-15.392 15.395a1.741 1.741 0 01-2.487 0zm0 0" class="prefix__cls-2" data-name="Path 4933" transform="translate(-294.185 -27.104)"/>
        <path id="prefix__Path_4934" d="M208.894 126.487L197.7 137.679l-12.436-12.436 11.192-11.192a5.269 5.269 0 017.462 0l4.974 4.974a5.269 5.269 0 010 7.462zm0 0" data-name="Path 4934" transform="translate(-163.103 -99.313)" style="fill:#fff"/>
        <path id="prefix__Path_4935" d="M244.518 168.063l-6.218-6.218 14.923-14.923 2.487 2.487a5.269 5.269 0 010 7.462zm0 0" data-name="Path 4935" transform="translate(-209.919 -129.696)" style="fill:#f2f2f2"/>
        <path id="prefix__Path_4936" d="M70.35 195.1l-16.167 16.166h-4.974L36.773 198.83v-4.974L52.94 177.69a5.269 5.269 0 017.462 0l9.948 9.948a5.269 5.269 0 010 7.462zm0 0" class="prefix__cls-4" data-name="Path 4936" transform="translate(-32.02 -155.49)"/>
        <path id="prefix__Path_4937" d="M117.166 244.21L101 260.376h-4.974l-6.218-6.218 22.384-22.384 4.974 4.974a5.269 5.269 0 010 7.462zm0 0" class="prefix__cls-5" data-name="Path 4937" transform="translate(-78.836 -204.6)"/>
        <path id="prefix__Path_4938" d="M22.163 344.645l-3.731 3.73a1.741 1.741 0 01-2.487 0L1.023 333.453a1.742 1.742 0 010-2.487l3.731-3.73zm0 0" class="prefix__cls-1" data-name="Path 4938" transform="translate(0 -288.869)"/>
        <path id="prefix__Path_4939" d="M82.273 410.186l-3.731 3.73a1.741 1.741 0 01-2.487 0l-7.462-7.461 4.974-4.974zm0 0" class="prefix__cls-2" data-name="Path 4939" transform="translate(-60.11 -354.409)"/>
    </g>
</svg>
