<svg xmlns="http://www.w3.org/2000/svg" id="prefix___025-sunscreen" width="38.447" height="60.216" data-name="025-sunscreen" viewBox="0 0 38.447 60.216">
    <defs>
        <style>
            .prefix__cls-1{fill:#05a19c}.prefix__cls-2{fill:#01807b}.prefix__cls-5{fill:#fff36c}.prefix__cls-6{fill:#ffde46}.prefix__cls-7{fill:#fdbf00}.prefix__cls-8{fill:#ffc401}
        </style>
    </defs>
    <path id="prefix__Path_4948" d="M170.405 383.612h-14.113a5.291 5.291 0 01-5.292-5.278V366.5h24.7v11.834a5.291 5.291 0 01-5.295 5.278z" class="prefix__cls-1" data-name="Path 4948" transform="translate(-144.126 -323.396)"/>
    <path id="prefix__Path_4949" d="M255.986 366.5v17.112h7.058a5.291 5.291 0 005.292-5.278V366.5z" class="prefix__cls-2" data-name="Path 4949" transform="translate(-236.764 -323.396)"/>
    <path id="prefix__Path_4950" d="M97.251 51.255c1.628 12.208 3.223 24.969 4.749 36.366a5.245 5.245 0 005.246 4.59h17.347a5.244 5.244 0 005.246-4.592l.011-.081c1.55-11.625 3.15-24.428 4.738-36.283z" data-name="Path 4950" transform="translate(-96.698 -45.227)" style="fill:#fff"/>
    <path id="prefix__Path_4951" d="M255.986 51.255v40.957h8.673a5.244 5.244 0 005.246-4.592l.011-.081c1.551-11.625 3.149-24.428 4.739-36.283z" data-name="Path 4951" transform="translate(-236.764 -45.227)" style="fill:#f2f2f2"/>
    <path id="prefix__Path_4952" d="M242.764 136.116a1.764 1.764 0 01-1.764-1.764v-2.587a1.764 1.764 0 113.528 0v2.587a1.764 1.764 0 01-1.764 1.764z" class="prefix__cls-5" data-name="Path 4952" transform="translate(-223.541 -114.711)"/>
    <g id="prefix__Group_2742" data-name="Group 2742" transform="translate(19.222 15.289)">
        <path id="prefix__Path_4953" d="M255.988 130v6.116a1.764 1.764 0 001.764-1.764v-2.587a1.764 1.764 0 00-1.764-1.765z" class="prefix__cls-6" data-name="Path 4953" transform="translate(-255.986 -130)"/>
        <path id="prefix__Path_4954" d="M276 155.569a1.764 1.764 0 01-1.247-3.012l1.83-1.829a1.764 1.764 0 012.495 2.495l-1.829 1.83a1.759 1.759 0 01-1.249.516z" class="prefix__cls-6" data-name="Path 4954" transform="translate(-272.089 -147.834)"/>
        <path id="prefix__Path_4955" d="M292.352 202.528h-2.587a1.764 1.764 0 010-3.528h2.587a1.764 1.764 0 110 3.528z" class="prefix__cls-6" data-name="Path 4955" transform="translate(-284.235 -190.885)"/>
        <path id="prefix__Path_4956" d="M277.828 237.593a1.758 1.758 0 01-1.247-.517l-1.83-1.83a1.764 1.764 0 012.495-2.495l1.829 1.83a1.764 1.764 0 01-1.247 3.012z" class="prefix__cls-6" data-name="Path 4956" transform="translate(-272.089 -220.211)"/>
    </g>
    <path id="prefix__Path_4957" d="M242.764 252.116a1.764 1.764 0 01-1.764-1.764v-2.587a1.764 1.764 0 113.528 0v2.587a1.764 1.764 0 01-1.764 1.764z" class="prefix__cls-5" data-name="Path 4957" transform="translate(-223.541 -217.068)"/>
    <path id="prefix__Path_4958" d="M193.975 237.594a1.764 1.764 0 01-1.247-3.012l1.83-1.829a1.764 1.764 0 012.495 2.495l-1.83 1.829a1.759 1.759 0 01-1.248.517z" class="prefix__cls-5" data-name="Path 4958" transform="translate(-180.49 -204.923)"/>
    <path id="prefix__Path_4959" d="M255.988 246v6.116a1.764 1.764 0 001.764-1.764v-2.587a1.764 1.764 0 00-1.764-1.765z" class="prefix__cls-6" data-name="Path 4959" transform="translate(-236.764 -217.068)"/>
    <path id="prefix__Path_4960" d="M176.352 202.528h-2.587a1.764 1.764 0 010-3.528h2.587a1.764 1.764 0 010 3.528z" class="prefix__cls-5" data-name="Path 4960" transform="translate(-162.656 -175.596)"/>
    <path id="prefix__Path_4961" d="M195.8 155.568a1.758 1.758 0 01-1.247-.517l-1.83-1.83a1.764 1.764 0 112.495-2.495l1.83 1.83a1.764 1.764 0 01-1.247 3.012z" class="prefix__cls-5" data-name="Path 4961" transform="translate(-180.49 -132.544)"/>
    <path id="prefix__Path_4962" d="M129.231 0H94.313a1.764 1.764 0 00-1.749 2l.67 5.022h37.072l.674-5.02a1.764 1.764 0 00-1.748-2z" class="prefix__cls-1" data-name="Path 4962" transform="translate(-92.548)"/>
    <path id="prefix__Path_4963" d="M221.585 435.232v-4.94a5.292 5.292 0 10-10.585 0v4.94z" class="prefix__cls-7" data-name="Path 4963" transform="translate(-197.069 -375.016)"/>
    <path id="prefix__Path_4964" d="M206.586 171.172a6.586 6.586 0 116.586-6.586 6.593 6.593 0 01-6.586 6.586z" class="prefix__cls-7" data-name="Path 4964" transform="translate(-187.363 -139.418)"/>
    <path id="prefix__Path_4965" d="M255.988 158v13.172a6.586 6.586 0 000-13.172z" class="prefix__cls-8" data-name="Path 4965" transform="translate(-236.764 -139.418)"/>
    <path id="prefix__Path_4966" d="M274.775.6a1.764 1.764 0 00-1.328-.6h-17.461v7.019h18.536Q274.859 4.5 275.2 2a1.764 1.764 0 00-.421-1.4z" class="prefix__cls-2" data-name="Path 4966" transform="translate(-236.764)"/>
    <path id="prefix__Path_4967" d="M255.988 425v10.232h5.294v-4.94a5.3 5.3 0 00-5.294-5.292z" class="prefix__cls-8" data-name="Path 4967" transform="translate(-236.764 -375.016)"/>
</svg>
