<svg xmlns="http://www.w3.org/2000/svg" width="24.946" height="19.635" viewBox="0 0 24.946 19.635">
    <defs>
        <style>
            .prefix__cls-1{fill:#fff}
        </style>
    </defs>
    <g id="prefix__camera">
        <g id="prefix__Group_17" data-name="Group 17">
            <g id="prefix__Group_16" data-name="Group 16">
                <path id="prefix__Path_9" d="M24.116 47.859a2.682 2.682 0 00-1.968-.83h-3.936v-.047a2.129 2.129 0 00-.64-1.541 2.17 2.17 0 00-1.541-.64H8.916a2.186 2.186 0 00-2.205 2.182v.047H2.8a2.682 2.682 0 00-1.968.83A2.819 2.819 0 000 49.827v11.809A2.682 2.682 0 00.83 63.6a2.819 2.819 0 001.968.83h19.35a2.682 2.682 0 001.968-.83 2.819 2.819 0 00.83-1.968V49.827a2.682 2.682 0 00-.83-1.968zm-.4 13.777h-.026a1.538 1.538 0 01-1.541 1.541H2.8a1.538 1.538 0 01-1.541-1.541V49.827A1.538 1.538 0 012.8 48.286h4.575a.638.638 0 00.64-.64v-.688a.893.893 0 01.925-.925h7.09a.893.893 0 01.925.925v.688a.638.638 0 00.64.64h4.577a1.538 1.538 0 011.541 1.541z" class="prefix__cls-1" data-name="Path 9" transform="translate(0 -44.8)"/>
                <path id="prefix__Path_10" d="M117.833 130.8a5.829 5.829 0 104.126 1.707 5.844 5.844 0 00-4.126-1.707zm3.225 9.082a4.58 4.58 0 01-6.45 0 4.533 4.533 0 01-1.328-3.225 4.634 4.634 0 011.328-3.225 4.533 4.533 0 013.225-1.328 4.634 4.634 0 013.225 1.328 4.533 4.533 0 011.328 3.225 4.437 4.437 0 01-1.328 3.225z" class="prefix__cls-1" data-name="Path 10" transform="translate(-105.36 -125.702)"/>
                <circle id="prefix__Ellipse_1" cx="1.162" cy="1.162" r="1.162" class="prefix__cls-1" data-name="Ellipse 1" transform="translate(19.753 5.075)"/>
            </g>
        </g>
    </g>
</svg>
