<svg xmlns="http://www.w3.org/2000/svg" id="prefix__Group_477" width="26.41" height="34" data-name="Group 477" viewBox="0 0 26.41 34">
    <path id="prefix__Path_2197" d="M24.5 8.32a.794.794 0 00-.822-.719h-3.8v-.822a6.728 6.728 0 10-13.456 0V7.6h-3.9a.7.7 0 00-.722.72l-1.849 22.7A2.808 2.808 0 002.721 34h20.852a2.873 2.873 0 002.773-2.979zM7.96 6.779a5.188 5.188 0 1110.375 0V7.6H7.96zm15.613 25.577H2.721a1.187 1.187 0 01-1.233-1.233L3.235 9.142h3.184v3.9a.77.77 0 001.541 0v-3.9h10.374v3.9a.77.77 0 001.541 0v-3.9h3.082L24.7 31.124a1.108 1.108 0 01-1.127 1.232z" data-name="Path 2197" transform="translate(.058)" style="fill:#989898;fill-rule:evenodd"/>
</svg>
