<?xml version="1.0" encoding="UTF-8" standalone="no"?>
<!-- Created with Inkscape (http://www.inkscape.org/) -->

<svg
   xmlns:dc="http://purl.org/dc/elements/1.1/"
   xmlns:cc="http://creativecommons.org/ns#"
   xmlns:rdf="http://www.w3.org/1999/02/22-rdf-syntax-ns#"
   xmlns:svg="http://www.w3.org/2000/svg"
   xmlns="http://www.w3.org/2000/svg"
   xmlns:sodipodi="http://sodipodi.sourceforge.net/DTD/sodipodi-0.dtd"
   xmlns:inkscape="http://www.inkscape.org/namespaces/inkscape"
   width="34px"
   height="34px"
   viewBox="0 0 34 34"
   version="1.1"
   id="SVGRoot"
   sodipodi:docname="logout.svg"
   inkscape:version="0.92.3 (2405546, 2018-03-11)">
  <sodipodi:namedview
     id="base"
     pagecolor="#ffffff"
     bordercolor="#666666"
     borderopacity="1.0"
     inkscape:pageopacity="0.0"
     inkscape:pageshadow="2"
     inkscape:zoom="7.5294118"
     inkscape:cx="-4.5820312"
     inkscape:cy="17"
     inkscape:document-units="px"
     inkscape:current-layer="layer1"
     showgrid="false"
     inkscape:window-width="1366"
     inkscape:window-height="706"
     inkscape:window-x="-8"
     inkscape:window-y="-8"
     inkscape:window-maximized="1"
     inkscape:grid-bbox="true" />
  <defs
     id="defs849" />
  <metadata
     id="metadata852">
    <rdf:RDF>
      <cc:Work
         rdf:about="">
        <dc:format>image/svg+xml</dc:format>
        <dc:type
           rdf:resource="http://purl.org/dc/dcmitype/StillImage" />
      </cc:Work>
    </rdf:RDF>
  </metadata>
  <g
     id="layer1"
     inkscape:groupmode="layer"
     inkscape:label="Layer 1">
    <path
       d="M 32.509146,17.938051 21.90498,27.864415 c -0.946803,0.88628 -2.587928,0.265885 -2.587928,-1.004455 v -5.672207 h -8.584319 c -0.839492,0 -1.5148832,-0.632216 -1.5148832,-1.418056 V 14.09749 c 0,-0.785833 0.6753912,-1.41805 1.5148832,-1.41805 h 8.584319 V 7.0072345 c 0,-1.2644329 1.634815,-1.8907354 2.587928,-1.0044551 l 10.604166,9.9263616 c 0.58701,0.555406 0.58701,1.453506 0,2.00891 z m -19.251612,9.630937 v -2.36342 c 0,-0.389968 -0.340852,-0.709028 -0.757435,-0.709028 H 7.198016 c -1.1172296,0 -2.0198508,-0.844926 -2.0198508,-1.890737 V 11.261391 c 0,-1.045818 0.9026212,-1.8907424 2.0198508,-1.8907424 h 5.302083 c 0.416583,0 0.757435,-0.3190617 0.757435,-0.7090213 V 6.2982062 c 0,-0.3899669 -0.340852,-0.7090285 -0.757435,-0.7090285 H 7.198016 c -3.3453628,0 -6.0595179,2.5406799 -6.0595179,5.6722133 v 11.344412 c 0,3.131533 2.7141551,5.672207 6.0595179,5.672207 h 5.302083 c 0.416583,0 0.757435,-0.319062 0.757435,-0.709022 z"
       id="path2"
       style="fill:none;stroke:#989898;stroke-width:1.2;stroke-miterlimit:4;stroke-dasharray:none;stroke-opacity:1"
       inkscape:connector-curvature="0" />
  </g>
</svg>
