<svg xmlns="http://www.w3.org/2000/svg" width="77.859" height="62.287" viewBox="0 0 77.859 62.287">
    <defs>
        <style>
            .prefix__cls-1{fill:#ffc401}
        </style>
    </defs>
    <g id="prefix__Medical_Research" data-name="Medical Research">
        <path id="prefix__Path_4146" d="M48.715 66.394a1.3 1.3 0 01-1.3 1.3H5.893a1.3 1.3 0 01-1.3-1.3v-54.5a1.3 1.3 0 011.3-1.3h3.893v7.786a1.3 1.3 0 002.377.72l1.516-2.277 1.515 2.277a1.3 1.3 0 002.377-.716V10.6h29.847a1.3 1.3 0 011.3 1.3v3.893h2.6v-3.9A3.893 3.893 0 0047.418 8H5.893A3.893 3.893 0 002 11.893v54.5a3.893 3.893 0 003.893 3.893h41.525a3.893 3.893 0 003.893-3.893V62.5h-2.6zM14.976 10.6v3.5l-.218-.327a1.3 1.3 0 00-2.159 0l-.218.327v-3.5z" class="prefix__cls-1" data-name="Path 4146" transform="translate(-2 -8)"/>
        <path id="prefix__Rectangle_638" d="M0 0H5.1V2.55H0z" class="prefix__cls-1" data-name="Rectangle 638" transform="translate(7.608 15.91)"/>
        <path id="prefix__Rectangle_639" d="M0 0H12.75V2.55H0z" class="prefix__cls-1" data-name="Rectangle 639" transform="translate(15.258 15.91)"/>
        <path id="prefix__Rectangle_640" d="M0 0H26.138V3.188H0z" class="prefix__cls-1" data-name="Rectangle 640" transform="translate(7.608 20.373)"/>
        <path id="prefix__Rectangle_641" d="M0 0H26.138V3.188H0z" class="prefix__cls-1" data-name="Rectangle 641" transform="translate(7.608 28.023)"/>
        <path id="prefix__Rectangle_642" d="M0 0H26.138V1.913H0z" class="prefix__cls-1" data-name="Rectangle 642" transform="translate(7.608 34.398)"/>
        <path id="prefix__Rectangle_643" d="M0 0H26.138V3.188H0z" class="prefix__cls-1" data-name="Rectangle 643" transform="translate(7.608 38.86)"/>
        <path id="prefix__Rectangle_644" d="M0 0H26.138V2.55H0z" class="prefix__cls-1" data-name="Rectangle 644" transform="translate(7.608 43.96)"/>
        <path id="prefix__Path_4147" d="M70.227 21.191H58.548V17.3a1.3 1.3 0 00-1.3-1.3H44.274a1.3 1.3 0 00-1.3 1.3v3.893H31.3a1.3 1.3 0 00-1.3 1.3v7.786a1.3 1.3 0 001.038 1.272l.259.052v22.029a3.893 3.893 0 003.893 3.893h31.144a3.893 3.893 0 003.893-3.893V31.6l.26-.052a1.3 1.3 0 001.038-1.272v-7.788a1.3 1.3 0 00-1.298-1.297zM45.572 18.6h10.381v2.6H45.572zM32.6 23.786h36.329v5.425l-11.809 2.36H44.4l-11.8-2.36zm35.032 29.846a1.3 1.3 0 01-1.3 1.3H35.191a1.3 1.3 0 01-1.3-1.3V32.117l10.122 2.024a1.3 1.3 0 00.26.026h12.978a1.3 1.3 0 00.26-.026l10.122-2.024z" class="prefix__cls-1" data-name="Path 4147" transform="translate(6.334 -5.619)"/>
        <path id="prefix__Path_4148" d="M51.679 35.893V33.3a1.3 1.3 0 00-1.3-1.3h-5.188a1.3 1.3 0 00-1.3 1.3v2.6H41.3a1.3 1.3 0 00-1.3 1.3v5.191a1.3 1.3 0 001.3 1.3h2.6v2.6a1.3 1.3 0 001.3 1.3h5.191a1.3 1.3 0 001.3-1.3v-2.6h2.6a1.3 1.3 0 001.3-1.3v-5.2a1.3 1.3 0 00-1.3-1.3zm1.3 5.191h-2.6a1.3 1.3 0 00-1.3 1.3v2.6h-2.6v-2.6a1.3 1.3 0 00-1.3-1.3H42.6v-2.6h2.6a1.3 1.3 0 001.3-1.3V34.6h2.6v2.6a1.3 1.3 0 001.3 1.3H53z" class="prefix__cls-1" data-name="Path 4148" transform="translate(9.311 -.857)"/>
    </g>
</svg>
