<svg xmlns="http://www.w3.org/2000/svg" id="prefix__noun_profile_956123" width="34" height="34" viewBox="0 0 34 34">
    <defs>
        <style>
            .prefix__cls-1{fill:#989898}
        </style>
    </defs>
    <g id="prefix__Group_146" data-name="Group 146">
        <g id="prefix__Group_145" data-name="Group 145">
            <path id="prefix__Path_2150" d="M34.9 23.81A8.9 8.9 0 1026 14.9a8.931 8.931 0 008.9 8.91zm0-16.19a7.286 7.286 0 11-7.281 7.28A7.307 7.307 0 0134.9 7.619z" class="prefix__cls-1" data-name="Path 2150" transform="translate(-17.905 -6)"/>
            <path id="prefix__Path_2151" d="M9.8 67.023h26.4a3.8 3.8 0 003.8-3.8 13.081 13.081 0 00-3-8.338 9.891 9.891 0 00-10.767-2.955 10.544 10.544 0 01-6.517 0A9.741 9.741 0 009 54.88a13.081 13.081 0 00-3 8.338 3.8 3.8 0 003.8 3.805zm.4-11.131a7.975 7.975 0 016.2-2.874 9.58 9.58 0 012.793.445 11.973 11.973 0 007.529 0 8.163 8.163 0 018.986 2.429 11.343 11.343 0 012.671 7.326A2.177 2.177 0 0136.2 65.4H9.8a2.177 2.177 0 01-2.186-2.186 11.722 11.722 0 012.596-7.322z" class="prefix__cls-1" data-name="Path 2151" transform="translate(-6 -33.023)"/>
        </g>
    </g>
</svg>
