<svg xmlns="http://www.w3.org/2000/svg" width="28.75" height="34" viewBox="0 0 28.75 34">
    <defs>
        <style>
            .prefix__cls-1{fill:#989898}
        </style>
    </defs>
    <g id="prefix__noun_notification_629013" transform="translate(-5.223 -2)">
        <g id="prefix__Group_148" data-name="Group 148" transform="translate(5.223 2)">
            <path id="prefix__Path_2153" d="M30.029 18.133v8.6a1.017 1.017 0 00.073.354l1.976 4.033a.035.035 0 00.037.035.454.454 0 010 .5.53.53 0 01-.476.248h-9a.929.929 0 00-.878.672 2.221 2.221 0 01-2.2 1.7 2.252 2.252 0 01-2.2-1.7.9.9 0 00-.878-.672H7.521a.588.588 0 01-.476-.248.464.464 0 010-.5l.037-.035 1.976-4a.62.62 0 00.073-.354v-9.517c0-5.307 3-9.34 7.613-10.225a.882.882 0 00.622-.5l1.244-2.8V3.7h1.976v.035l1.244 2.83a.882.882 0 00.622.5c.11.035.256.071.366.106a7.939 7.939 0 01.732-1.592.886.886 0 00-.293-.071l-.915-2.37A1.564 1.564 0 0020.806 2h-2.232a1.564 1.564 0 00-1.537 1.132l-1.025 2.335c-5.234 1.238-8.6 5.8-8.6 11.817v9.3l-1.9 3.786a2.142 2.142 0 00.037 2.194 2.321 2.321 0 001.976 1.1H15.9a4.093 4.093 0 007.393 0h8.381a2.276 2.276 0 001.976-1.1 2.142 2.142 0 00.037-2.194l-1.867-3.821v-8.38c-.22 0-.439.035-.659.035-.4-.004-.761-.035-1.132-.071z" class="prefix__cls-1" data-name="Path 2153" transform="translate(-5.223 -2)"/>
            <path id="prefix__Path_5709" d="M9.168 18.133v8.6a1.017 1.017 0 01-.073.354l-1.977 4.031a.035.035 0 01-.037.035.454.454 0 000 .5.53.53 0 00.476.248h9a.929.929 0 01.878.672 2.221 2.221 0 002.2 1.7 2.252 2.252 0 002.2-1.7.9.9 0 01.878-.672h8.967a.588.588 0 00.476-.248.464.464 0 000-.5l-.037-.035-1.976-4a.62.62 0 01-.073-.354v-9.515c0-5.307-3-9.34-7.613-10.225a.882.882 0 01-.622-.5l-1.244-2.8V3.7H18.61v.035l-1.244 2.83a.882.882 0 01-.622.5c-.11.035-.256.071-.366.106a7.939 7.939 0 00-.732-1.592.886.886 0 01.293-.071l.915-2.37A1.564 1.564 0 0118.391 2h2.233a1.564 1.564 0 011.536 1.132l1.025 2.335c5.234 1.238 8.6 5.8 8.6 11.817v9.3l1.9 3.786a2.142 2.142 0 01-.037 2.194 2.321 2.321 0 01-1.976 1.1h-8.377a4.093 4.093 0 01-7.393 0H7.521a2.276 2.276 0 01-1.976-1.1 2.142 2.142 0 01-.037-2.194l1.867-3.821v-8.38c.22 0 .439.035.659.035.402-.004.766-.035 1.134-.071z" class="prefix__cls-1" data-name="Path 5709" transform="translate(-5.223 -2)"/>
        </g>
    </g>
</svg>
