<svg xmlns="http://www.w3.org/2000/svg" width="73.544" height="73.544" viewBox="0 0 73.544 73.544">
    <defs>
        <style>
            .prefix__cls-1{fill:#ffc401}
        </style>
    </defs>
    <g id="prefix__Prescription">
        <path id="prefix__Path_2883" d="M4.451 69.416V8.129a3.677 3.677 0 013.678-3.678h35.546v11.032a1.226 1.226 0 002.092.867l2.811-2.811 2.811 2.811a1.226 1.226 0 00.867.359 1.21 1.21 0 00.469-.093 1.226 1.226 0 00.756-1.133V4.677a3.677 3.677 0 012.451 3.452V19.16h2.451V8.129A6.136 6.136 0 0052.255 2H8.129A6.136 6.136 0 002 8.129v61.287a6.136 6.136 0 006.129 6.129h28.192v-2.452H8.129a3.677 3.677 0 01-3.677-3.677zM51.03 4.451v8.073l-1.585-1.585a1.226 1.226 0 00-1.733 0l-1.585 1.585V4.451z" class="prefix__cls-1" data-name="Path 2883" transform="translate(-2 -2)"/>
        <path id="prefix__Path_2884" d="M22.709 36.192V21.483a1.226 1.226 0 00-1.226-1.226h-3.677V16.58a1.226 1.226 0 00-1.226-1.226V9.226A1.226 1.226 0 0015.354 8h-4.9a1.226 1.226 0 00-1.228 1.226v6.129A1.226 1.226 0 008 16.58V55.8a1.226 1.226 0 00.129.548l2.451 4.9a1.226 1.226 0 001.1.678v4.9h2.451v-4.9a1.226 1.226 0 001.1-.678l2.451-4.9a1.226 1.226 0 00.129-.548V22.709h2.451v13.483zm-12.258 17.16V25.16h4.9v28.192zm0-30.643v-4.9h4.9v4.9zm1.226-12.257h2.451v4.9h-2.451zm1.694 49.03h-.936L10.6 55.8h4.61z" class="prefix__cls-1" data-name="Path 2884" transform="translate(-.646 -.646)"/>
        <path id="prefix__Path_2885" d="M68.037 33.775l-2.942-3.922v-2.047a2.451 2.451 0 002.451-2.451v-4.9A2.451 2.451 0 0065.095 18H35.677a2.451 2.451 0 00-2.451 2.451v4.9a2.451 2.451 0 002.451 2.451v2.043l-2.933 3.915A3.663 3.663 0 0032 35.982v32.273a3.677 3.677 0 003.677 3.677h29.418a3.677 3.677 0 003.677-3.677V35.982a3.654 3.654 0 00-.735-2.206zm-32.36-13.324h3.677V22.9h2.451v-2.449h2.451V22.9h2.451v-2.449h2.453V22.9h2.451v-2.449h2.451V22.9h2.451v-2.449h2.451V22.9h2.451v-2.449h3.677v4.9H35.677zm30.643 47.8a1.226 1.226 0 01-1.226 1.226H35.677a1.226 1.226 0 01-1.226-1.226V35.982a1.188 1.188 0 01.245-.735l3.187-4.253a1.226 1.226 0 00.245-.735v-2.453h24.515v2.451a1.226 1.226 0 00.245.735l3.2 4.263a1.187 1.187 0 01.235.726z" class="prefix__cls-1" data-name="Path 2885" transform="translate(4.772 1.612)"/>
        <path id="prefix__Path_2886" d="M59.289 33H39.677A3.677 3.677 0 0036 36.677v22.064a3.677 3.677 0 003.677 3.677h19.612a3.677 3.677 0 003.677-3.677V36.677A3.677 3.677 0 0059.289 33zm1.226 25.741a1.226 1.226 0 01-1.226 1.226H39.677a1.226 1.226 0 01-1.226-1.226V36.677a1.226 1.226 0 011.226-1.226h19.612a1.226 1.226 0 011.226 1.226z" class="prefix__cls-1" data-name="Path 2886" transform="translate(5.675 4.998)"/>
        <path id="prefix__Path_2887" d="M55.935 42.9h-3.678v-3.674A1.226 1.226 0 0051.032 38h-4.9a1.226 1.226 0 00-1.232 1.226V42.9h-3.674A1.226 1.226 0 0040 44.129v4.9a1.226 1.226 0 001.226 1.226H44.9v3.677a1.226 1.226 0 001.226 1.226h4.9a1.226 1.226 0 001.226-1.226v-3.675h3.677a1.226 1.226 0 001.226-1.226v-4.9a1.226 1.226 0 00-1.22-1.231zm-1.226 4.9h-3.677a1.226 1.226 0 00-1.226 1.226v3.677h-2.452v-3.671a1.226 1.226 0 00-1.226-1.226h-3.677v-2.452h3.677a1.226 1.226 0 001.226-1.226v-3.677h2.451v3.677a1.226 1.226 0 001.226 1.226h3.677z" class="prefix__cls-1" data-name="Path 2887" transform="translate(6.578 6.127)"/>
        <path id="prefix__Rectangle_224" d="M0 0H9.69V2.236H0z" class="prefix__cls-1" data-name="Rectangle 224" transform="translate(22.153 41.743)"/>
        <path id="prefix__Rectangle_225" d="M0 0H9.69V2.982H0z" class="prefix__cls-1" data-name="Rectangle 225" transform="translate(22.153 46.215)"/>
        <path id="prefix__Rectangle_226" d="M0 0H9.69V2.236H0z" class="prefix__cls-1" data-name="Rectangle 226" transform="translate(22.153 51.433)"/>
        <path id="prefix__Rectangle_227" d="M0 0H9.69V2.236H0z" class="prefix__cls-1" data-name="Rectangle 227" transform="translate(22.153 56.651)"/>
        <path id="prefix__Rectangle_228" d="M0 0H2.236V2.236H0z" class="prefix__cls-1" data-name="Rectangle 228" transform="translate(22.153 7.454)"/>
        <path id="prefix__Rectangle_229" d="M0 0H10.436V2.236H0z" class="prefix__cls-1" data-name="Rectangle 229" transform="translate(26.625 7.454)"/>
        <path id="prefix__Rectangle_230" d="M0 0H14.908V2.982H0z" class="prefix__cls-1" data-name="Rectangle 230" transform="translate(22.153 11.927)"/>
    </g>
</svg>
