<svg xmlns="http://www.w3.org/2000/svg" id="prefix__Research-Medicine" width="74.86" height="69.869" viewBox="0 0 74.86 69.869">
    <defs>
        <style>
            .prefix__cls-1{fill:#ffc401}
        </style>
    </defs>
    <path id="prefix__Path_3406" d="M70.622 6H8.238A6.246 6.246 0 002 12.238v42.421A6.246 6.246 0 008.238 60.9h19.8l-.938 7.483h-1.394a1.248 1.248 0 00-1.248 1.248v3.743h-4.991v2.5h39.926v-2.5H54.4v-3.743a1.248 1.248 0 00-1.248-1.248h-1.391l-1.1-8.811V58.4H8.238A3.743 3.743 0 014.5 54.659v-3.743h46.159v-2.5H4.5V12.238A3.743 3.743 0 018.238 8.5h62.384a3.743 3.743 0 013.743 3.743v36.178H63.136v2.5h11.229v3.743a3.743 3.743 0 01-3.743 3.736h-7.486v2.5h7.486a6.246 6.246 0 006.238-6.238V12.238A6.246 6.246 0 0070.622 6zM51.907 73.374H26.953v-2.5h24.954zm-22.292-4.991l.935-7.483h17.76l.936 7.486z" class="prefix__cls-1" data-name="Path 3406" transform="translate(-2 -6)"/>
    <path id="prefix__Rectangle_377" d="M0 0H3.108V2.486H0z" class="prefix__cls-1" data-name="Rectangle 377" transform="translate(64.123 46.922)"/>
    <path id="prefix__Path_3407" d="M8 26.972A14.972 14.972 0 1022.972 12 14.972 14.972 0 008 26.972zm27.449 0A12.477 12.477 0 1122.972 14.5a12.477 12.477 0 0112.477 12.472z" class="prefix__cls-1" data-name="Path 3407" transform="translate(-.514 -4.514)"/>
    <path id="prefix__Path_3408" d="M63.944 24.977A14.972 14.972 0 1045.229 39.45v21.709a3.743 3.743 0 107.486 0V39.45a14.984 14.984 0 0011.229-14.473zm-27.449 0a12.477 12.477 0 1112.477 12.476A12.477 12.477 0 0136.5 24.977zM50.22 61.159a1.248 1.248 0 01-2.5 0V39.885c.413.035.826.064 1.248.064s.835-.029 1.248-.064z" class="prefix__cls-1" data-name="Path 3408" transform="translate(5.925 -5.014)"/>
    <path id="prefix__Path_3409" d="M59.458 24.229a11.229 11.229 0 10-11.229 11.229 11.229 11.229 0 0011.229-11.229zm-19.963 0a8.734 8.734 0 118.734 8.734 8.734 8.734 0 01-8.729-8.734z" class="prefix__cls-1" data-name="Path 3409" transform="translate(6.668 -4.266)"/>
    <path id="prefix__Path_3410" d="M14.633 25.691a4.991 4.991 0 007.058 7.058l7.058-7.058a4.991 4.991 0 10-7.058-7.058zm5.294 5.294a2.5 2.5 0 01-3.53-3.53l2.648-2.646 3.528 3.528zm5.294-11.316a2.5 2.5 0 011.764 4.258l-2.648 2.646-3.528-3.528 2.646-2.645a2.5 2.5 0 011.766-.731z" class="prefix__cls-1" data-name="Path 3410" transform="translate(.767 -3.233)"/>
</svg>
 1.3 0 01-1.3-1.3V32.117l10.122 2.024a1.3 1.3 0 00.26.026h12.978a1.3 1.3 0 00.26-.026l10.122-2.024z" class="prefix__cls-1" data-name="Path 4147" transform="translate(6.334 -5.619)"/>
        <path id="prefix__Path_4148" d="M51.679 35.893V33.3a1.3 1.3 0 00-1.3-1.3h-5.188a1.3 1.3 0 00-1.3 1.3v2.6H41.3a1.3 1.3 0 00-1.3 1.3v5.191a1.3 1.3 0 001.3 1.3h2.6v2.6a1.3 1.3 0 001.3 1.3h5.191a1.3 1.3 0 001.3-1.3v-2.6h2.6a1.3 1.3 0 001.3-1.3v-5.2a1.3 1.3 0 00-1.3-1.3zm1.3 5.191h-2.6a1.3 1.3 0 00-1.3 1.3v2.6h-2.6v-2.6a1.3 1.3 0 00-1.3-1.3H42.6v-2.6h2.6a1.3 1.3 0 001.3-1.3V34.6h2.6v2.6a1.3 1.3 0 001.3 1.3H53z" class="prefix__cls-1" data-name="Path 4148" transform="translate(9.311 -.857)"/>
    </g>
</svg>
ass="prefix__cls-1" data-name="Path 2903" transform="translate(-106.652 -289.832)"/>
        <path id="prefix__Path_2904" d="M287.321 270.321a1.21 1.21 0 001.21-1.211v-2.075a1.9 1.9 0 00-1.9-1.9h-6.571a1.9 1.9 0 00-1.9 1.9v6.571a1.9 1.9 0 001.9 1.9h1.9a1.21 1.21 0 100-2.421h-1.383v-5.534h5.534v1.556a1.211 1.211 0 001.21 1.214z" class="prefix__cls-1" data-name="Path 2904" transform="translate(-233.194 -224.494)"/>
        <path id="prefix__Path_2905" d="M330.927 310.973a1.2 1.2 0 00.634-.18l8.376-5.159a1.211 1.211 0 00.576-1.031v-13.26a1.211 1.211 0 10-2.421 0v12.584l-7.8 4.8a1.211 1.211 0 00.636 2.242z" class="prefix__cls-1" data-name="Path 2905" transform="translate(-275.836 -245.171)"/>
        <path id="prefix__Path_2906" d="M78.461 45.7h.726a4.311 4.311 0 004.306-4.306v-6.955a4.311 4.311 0 00-4.306-4.306h-.726a4.311 4.311 0 00-4.306 4.306v6.952a4.311 4.311 0 004.306 4.309zm-1.885-11.261a1.887 1.887 0 011.885-1.885h.726a1.887 1.887 0 011.885 1.885v6.952a1.887 1.887 0 01-1.885 1.885h-.726a1.887 1.887 0 01-1.885-1.885z" class="prefix__cls-1" data-name="Path 2906" transform="translate(-64.471 -30.133)"/>
        <path id="prefix__Path_2907" d="M338.461 45.7h.726a4.311 4.311 0 004.306-4.306v-6.955a4.311 4.311 0 00-4.306-4.306h-.726a4.311 4.311 0 00-4.306 4.306v6.952a4.311 4.311 0 004.306 4.309zm-1.885-11.258a1.887 1.887 0 011.885-1.885h.726a1.887 1.887 0 011.885 1.885v6.952a1.887 1.887 0 01-1.885 1.885h-.726a1.887 1.887 0 01-1.885-1.885z" class="prefix__cls-1" data-name="Path 2907" transform="translate(-279.509 -30.133)"/>
        <path id="prefix__Path_2908" d="M116.367 77.554h37.872a1.211 1.211 0 100-2.421h-37.872a1.211 1.211 0 100 2.421z" class="prefix__cls-1" data-name="Path 2908" transform="translate(-98.382 -67.351)"/>
        <path id="prefix__Path_2909" d="M91.825 111.065V82.491a7.186 7.186 0 00-7.166-7.358H80.93a1.211 1.211 0 100 2.421h3.729a4.792 4.792 0 014.741 4.937v4.92H20.577v-4.92a5.247 5.247 0 015.272-4.937h3.2a1.211 1.211 0 100-2.421h-3.2a7.632 7.632 0 00-7.693 7.358v47.977a7.671 7.671 0 007.693 7.44h40.877a18.681 18.681 0 1025.1-26.843zm-65.976 24.421a5.285 5.285 0 01-5.272-5.019V89.832H89.4v19.914a18.681 18.681 0 00-24.2 25.74zm55.882 7.563A16.265 16.265 0 1198 126.784a16.265 16.265 0 01-16.269 16.265z" class="prefix__cls-1" data-name="Path 2909" transform="translate(-18.156 -67.351)"/>
    </g>
</svg>
