<svg xmlns="http://www.w3.org/2000/svg" width="16.565" height="15.87" viewBox="0 0 16.565 15.87">
    <path id="prefix__star_1_" d="M16.2 8.239a1.188 1.188 0 00-.659-2.026l-4.006-.583a.524.524 0 01-.395-.287L9.347 1.709a1.188 1.188 0 00-2.13 0L5.423 5.343a.524.524 0 01-.4.287l-4.011.583a1.188 1.188 0 00-.653 2.026l2.9 2.829a.525.525 0 01.151.464l-.685 3.994a1.163 1.163 0 00.259.963 1.2 1.2 0 001.464.289l3.587-1.886a.537.537 0 01.488 0l3.587 1.886a1.176 1.176 0 00.553.138 1.191 1.191 0 00.911-.427 1.162 1.162 0 00.259-.963l-.685-3.994a.525.525 0 01.151-.464z" data-name="star (1)" transform="translate(.001 -1.047)" style="fill:#ffc401"/>
</svg>
