<?xml version="1.0" encoding="UTF-8" standalone="no"?>
<!-- Created with Inkscape (http://www.inkscape.org/) -->

<svg
   xmlns:dc="http://purl.org/dc/elements/1.1/"
   xmlns:cc="http://creativecommons.org/ns#"
   xmlns:rdf="http://www.w3.org/1999/02/22-rdf-syntax-ns#"
   xmlns:svg="http://www.w3.org/2000/svg"
   xmlns="http://www.w3.org/2000/svg"
   xmlns:sodipodi="http://sodipodi.sourceforge.net/DTD/sodipodi-0.dtd"
   xmlns:inkscape="http://www.inkscape.org/namespaces/inkscape"
   width="23px"
   height="23px"
   viewBox="0 0 23 23"
   version="1.1"
   id="SVGRoot"
   inkscape:version="0.92.3 (2405546, 2018-03-11)"
   sodipodi:docname="address.svg">
  <sodipodi:namedview
     id="base"
     pagecolor="#ffffff"
     bordercolor="#666666"
     borderopacity="1.0"
     inkscape:pageopacity="0.0"
     inkscape:pageshadow="2"
     inkscape:zoom="16.147578"
     inkscape:cx="5.5390408"
     inkscape:cy="11.5"
     inkscape:document-units="px"
     inkscape:current-layer="layer1"
     showgrid="false"
     inkscape:window-width="1366"
     inkscape:window-height="706"
     inkscape:window-x="-8"
     inkscape:window-y="-8"
     inkscape:window-maximized="1"
     inkscape:grid-bbox="true" />
  <defs
     id="defs818" />
  <metadata
     id="metadata821">
    <rdf:RDF>
      <cc:Work
         rdf:about="">
        <dc:format>image/svg+xml</dc:format>
        <dc:type
           rdf:resource="http://purl.org/dc/dcmitype/StillImage" />
        <dc:title></dc:title>
      </cc:Work>
    </rdf:RDF>
  </metadata>
  <g
     id="layer1"
     inkscape:groupmode="layer"
     inkscape:label="Layer 1">
    <g
       transform="matrix(0.03898301,0,0,0.04356231,1.3866144,0.39262362)"
       id="g10"
       style="fill:none;stroke:#989898;stroke-width:13;stroke-miterlimit:4;stroke-dasharray:none;stroke-opacity:0.82352941">
      <path
         inkscape:connector-curvature="0"
         d="M 65.13,199 H 219 v 0 h 78 v 0 h 93.591 c 7.738,0 15.196,-2.523 21.567,-6.917 l 33.288,-23.056 c 10.284,-7.092 16.424,-18.834 16.424,-31.326 0,-12.492 -6.14,-24.209 -16.424,-31.301 L 412.158,83.58 C 405.787,79.187 398.329,77 390.591,77 H 345.937 297.258 219.499 140.027 65.13 C 56.846,77 50,83.421 50,91.705 v 91.893 C 50,191.882 56.846,199 65.13,199 Z"
         id="path2"
         style="fill:none;stroke:#989898;stroke-width:13;stroke-miterlimit:4;stroke-dasharray:none;stroke-opacity:0.82352941" />
      <path
         inkscape:connector-curvature="0"
         d="M 297,47 V 38.879 C 297,17.441 279.438,0 258,0 236.562,0 219,17.441 219,38.879 V 47 Z"
         id="path4"
         style="fill:none;stroke:#989898;stroke-width:13;stroke-miterlimit:4;stroke-dasharray:none;stroke-opacity:0.82352941" />
      <path
         inkscape:connector-curvature="0"
         d="M 337.355,482 H 297 V 381 h -78 v 101 h -39.599 c -8.284,0 -15,6.716 -15,15 0,8.284 6.716,15 15,15 h 157.954 c 8.284,0 15,-6.716 15,-15 0,-8.284 -6.715,-15 -15,-15 z"
         id="path6"
         style="fill:none;stroke:#989898;stroke-width:13;stroke-miterlimit:4;stroke-dasharray:none;stroke-opacity:0.82352941" />
      <path
         inkscape:connector-curvature="0"
         d="M 446.87,229 H 297 v 0 h -78 v 0 h -97.591 c -7.738,0 -15.196,2.275 -21.567,6.668 L 66.554,258.6 c -10.284,7.092 -16.424,18.772 -16.424,31.264 0,12.492 6.14,24.178 16.424,31.27 l 33.288,23.053 c 6.371,4.393 13.829,6.813 21.567,6.813 h 31.636 66.454 77.759 61.697 87.916 c 8.284,0 15.13,-6.917 15.13,-15.201 V 243.906 C 462,235.622 455.154,229 446.87,229 Z"
         id="path8"
         style="fill:none;stroke:#989898;stroke-width:13;stroke-miterlimit:4;stroke-dasharray:none;stroke-opacity:0.82352941" />
    </g>
  </g>
</svg>
