<?xml version="1.0" encoding="UTF-8" standalone="no"?>
<svg
   xmlns:dc="http://purl.org/dc/elements/1.1/"
   xmlns:cc="http://creativecommons.org/ns#"
   xmlns:rdf="http://www.w3.org/1999/02/22-rdf-syntax-ns#"
   xmlns:svg="http://www.w3.org/2000/svg"
   xmlns="http://www.w3.org/2000/svg"
   xmlns:sodipodi="http://sodipodi.sourceforge.net/DTD/sodipodi-0.dtd"
   xmlns:inkscape="http://www.inkscape.org/namespaces/inkscape"
   width="21.093"
   height="21.093"
   viewBox="0 0 21.093 21.093"
   version="1.1"
   id="svg4"
   sodipodi:docname="Layer 21.svg"
   inkscape:version="0.92.3 (2405546, 2018-03-11)">
  <metadata
     id="metadata10">
    <rdf:RDF>
      <cc:Work
         rdf:about="">
        <dc:format>image/svg+xml</dc:format>
        <dc:type
           rdf:resource="http://purl.org/dc/dcmitype/StillImage" />
        <dc:title />
      </cc:Work>
    </rdf:RDF>
  </metadata>
  <defs
     id="defs8" />
  <sodipodi:namedview
     pagecolor="#ffffff"
     bordercolor="#666666"
     borderopacity="1"
     objecttolerance="10"
     gridtolerance="10"
     guidetolerance="10"
     inkscape:pageopacity="0"
     inkscape:pageshadow="2"
     inkscape:window-width="1366"
     inkscape:window-height="706"
     id="namedview6"
     showgrid="false"
     inkscape:zoom="11.188546"
     inkscape:cx="-3.977282"
     inkscape:cy="10.5465"
     inkscape:window-x="-8"
     inkscape:window-y="-8"
     inkscape:window-maximized="1"
     inkscape:current-layer="svg4" />
  <g
     id="Layer_22"
     data-name="Layer 22"
     transform="translate(-2.001 -2)"
     style="fill:#f9f9f9">
    <path
       id="Path_2273"
       data-name="Path 2273"
       d="M16.313,9.88l-2.7,2.667,2.7,2.667a.765.765,0,1,1-1.062,1.1l-2.7-2.7-2.667,2.7a.751.751,0,0,1-1.062-1.062l2.667-2.7L8.818,9.88A.753.753,0,0,1,9.88,8.817l2.667,2.667,2.667-2.667a.765.765,0,0,1,1.1,1.062ZM20,20A10.546,10.546,0,1,1,20,5.089,10.546,10.546,0,0,1,20,20ZM18.942,6.151a9.04,9.04,0,1,0,2.659,6.4,9.04,9.04,0,0,0-2.659-6.4Z"
       transform="translate(0)"
       style="fill:#f9f9f9" />
  </g>
</svg>
